SplineFontDB: 3.2
FontName: RisingSun-MediumItalic
FullName: Rising Sun Medium Italic
FamilyName: Rising Sun Medium
Weight: Medium
Copyright: Copyright (c) 2012, The Raleway Project Authors (matt@pixelspread.com)
Version: 4.322
ItalicAngle: -12
UnderlinePosition: -125
UnderlineWidth: 50
Ascent: 800
Descent: 200
InvalidEm: 0
sfntRevision: 0x0004526e
LayerCount: 2
Layer: 0 1 "Back" 1
Layer: 1 1 "Fore" 0
XUID: [1021 158 994486733 6228343]
StyleMap: 0x0001
FSType: 0
OS2Version: 4
OS2_WeightWidthSlopeOnly: 0
OS2_UseTypoMetrics: 1
CreationTime: 1683073834
ModificationTime: 1710188540
PfmFamily: 81
TTFWeight: 500
TTFWidth: 5
LineGap: 21
VLineGap: 0
Panose: 0 0 0 0 0 0 0 0 0 0
OS2TypoAscent: 923
OS2TypoAOffset: 0
OS2TypoDescent: -213
OS2TypoDOffset: 0
OS2TypoLinegap: 21
OS2WinAscent: 944
OS2WinAOffset: 0
OS2WinDescent: 234
OS2WinDOffset: 0
HheadAscent: 923
HheadAOffset: 0
HheadDescent: -213
HheadDOffset: 0
OS2SubXSize: 650
OS2SubYSize: 600
OS2SubXOff: 0
OS2SubYOff: 75
OS2SupXSize: 650
OS2SupYSize: 600
OS2SupXOff: 0
OS2SupYOff: 350
OS2StrikeYSize: 50
OS2StrikeYPos: 300
OS2CapHeight: 710
OS2XHeight: 523
OS2Vendor: '    '
OS2CodePages: 2000019f.00000000
OS2UnicodeRanges: a00002ff.4000205b.00000000.00000000
Lookup: 1 0 0 "'aalt' Access All Alternates lookup 0" { "'aalt' Access All Alternates lookup 0 subtable"  } ['aalt' ('DFLT' <'dflt' > 'cyrl' <'BGR ' 'MKD ' 'SRB ' 'dflt' > 'latn' <'AZE ' 'CAT ' 'CRT ' 'KAZ ' 'MOL ' 'ROM ' 'TAT ' 'TRK ' 'dflt' > ) ]
Lookup: 3 0 0 "'aalt' Access All Alternates lookup 1" { "'aalt' Access All Alternates lookup 1 subtable"  } ['aalt' ('DFLT' <'dflt' > 'cyrl' <'BGR ' 'MKD ' 'SRB ' 'dflt' > 'latn' <'AZE ' 'CAT ' 'CRT ' 'KAZ ' 'MOL ' 'ROM ' 'TAT ' 'TRK ' 'dflt' > ) ]

StartChar: .notdef
Encoding: 65536 -1 0
Width: 608
GlyphClass: 1
Flags: W
LayerCount: 2
Fore
SplineSet
558 689 m 2,0,1
 558 699 558 699 553 704.5 c 128,-1,2
 548 710 548 710 540 710 c 2,3,-1
 69 710 l 2,4,5
 61 710 61 710 55.5 704 c 128,-1,6
 50 698 50 698 50 687 c 2,7,-1
 50 25 l 2,8,9
 50 12 50 12 55.5 6 c 128,-1,10
 61 0 61 0 77 0 c 2,11,-1
 525 0 l 2,12,13
 542 0 542 0 550 6.5 c 128,-1,14
 558 13 558 13 558 29 c 2,15,-1
 558 689 l 2,0,1
506 74 m 2,16,17
 506 61 506 61 499 55.5 c 128,-1,18
 492 50 492 50 478 50 c 2,19,-1
 125 50 l 2,20,21
 111 50 111 50 106.5 55 c 128,-1,22
 102 60 102 60 102 71 c 2,23,-1
 102 641 l 2,24,25
 102 650 102 650 106.5 655 c 128,-1,26
 111 660 111 660 118 660 c 2,27,-1
 491 660 l 2,28,29
 498 660 498 660 502 655 c 128,-1,30
 506 650 506 650 506 642 c 2,31,-1
 506 74 l 2,16,17
538 33 m 1,32,-1
 123 696 l 1,33,-1
 71 669 l 1,34,-1
 478 28 l 1,35,-1
 538 33 l 1,32,-1
EndSplineSet
EndChar

StartChar: exclam
Encoding: 33 33 4
Width: 272
GlyphClass: 1
Flags: W
LayerCount: 2
Fore
SplineSet
7 62 m 256,0,1
 4 47 4 47 6.5 34 c 128,-1,2
 9 21 9 21 17 11.5 c 128,-1,3
 25 2 25 2 37 -4 c 128,-1,4
 49 -10 49 -10 64 -10 c 256,5,6
 79 -10 79 -10 93 -4 c 128,-1,7
 107 2 107 2 119.5 11.5 c 128,-1,8
 132 21 132 21 140 34 c 128,-1,9
 148 47 148 47 151 62 c 0,10,11
 155 77 155 77 152 90 c 128,-1,12
 149 103 149 103 141 113 c 128,-1,13
 133 123 133 123 121 128.5 c 128,-1,14
 109 134 109 134 94 134 c 256,15,16
 79 134 79 134 65 128.5 c 128,-1,17
 51 123 51 123 39 113 c 128,-1,18
 27 103 27 103 18.5 90 c 128,-1,19
 10 77 10 77 7 62 c 256,0,1
158 252 m 1,20,-1
 228 510 l 1,21,-1
 272 717 l 1,22,-1
 163 717 l 1,23,-1
 119 510 l 1,24,-1
 78 252 l 1,25,-1
 158 252 l 1,20,-1
EndSplineSet
EndChar

StartChar: quotedbl
Encoding: 34 34 5
Width: 377
GlyphClass: 1
Flags: W
LayerCount: 2
Fore
SplineSet
106 510 m 1,0,-1
 157 510 l 1,1,-1
 284 723 l 1,2,-1
 186 723 l 1,3,-1
 106 510 l 1,0,-1
254 510 m 1,4,-1
 305 510 l 1,5,-1
 432 723 l 1,6,-1
 334 723 l 1,7,-1
 254 510 l 1,4,-1
EndSplineSet
EndChar

StartChar: numbersign
Encoding: 35 35 6
Width: 677
GlyphClass: 1
Flags: W
LayerCount: 2
Fore
SplineSet
686 514 m 1,0,-1
 571 514 l 1,1,-1
 659 710 l 1,2,-1
 570 710 l 1,3,-1
 484 514 l 1,4,-1
 351 514 l 1,5,-1
 438 710 l 1,6,-1
 350 710 l 1,7,-1
 263 514 l 1,8,-1
 126 514 l 1,9,-1
 109 437 l 1,10,-1
 227 437 l 1,11,-1
 159 277 l 1,12,-1
 31 277 l 1,13,-1
 14 195 l 1,14,-1
 121 195 l 1,15,-1
 34 0 l 1,16,-1
 123 0 l 1,17,-1
 209 195 l 1,18,-1
 342 195 l 1,19,-1
 255 0 l 1,20,-1
 343 0 l 1,21,-1
 430 195 l 1,22,-1
 574 195 l 1,23,-1
 591 277 l 1,24,-1
 466 277 l 1,25,-1
 536 437 l 1,26,-1
 669 437 l 1,27,-1
 686 514 l 1,0,-1
246 277 m 1,28,-1
 315 437 l 1,29,-1
 448 437 l 1,30,-1
 379 277 l 1,31,-1
 246 277 l 1,28,-1
EndSplineSet
EndChar

StartChar: dollar
Encoding: 36 36 7
Width: 603
GlyphClass: 1
Flags: W
LayerCount: 2
Fore
SplineSet
191 -111 m 1,0,-1
 241 -111 l 1,1,-1
 276 49 l 1,2,-1
 225 50 l 1,3,-1
 191 -111 l 1,0,-1
270 61 m 1,4,-1
 396 653 l 1,5,-1
 359 645 l 1,6,-1
 235 63 l 1,7,-1
 270 61 l 1,4,-1
354 654 m 1,8,-1
 406 662 l 1,9,-1
 438 815 l 1,10,-1
 388 815 l 1,11,-1
 354 654 l 1,8,-1
606 635 m 1,12,13
 588 652 588 652 566 666.5 c 128,-1,14
 544 681 544 681 517.5 692 c 128,-1,15
 491 703 491 703 460 709 c 128,-1,16
 429 715 429 715 394 715 c 0,17,18
 335 715 335 715 281 697.5 c 128,-1,19
 227 680 227 680 186.5 648 c 128,-1,20
 146 616 146 616 122 569 c 128,-1,21
 98 522 98 522 98 462 c 0,22,23
 98 431 98 431 108.5 407.5 c 128,-1,24
 119 384 119 384 140 366 c 128,-1,25
 161 348 161 348 191.5 334.5 c 128,-1,26
 222 321 222 321 262 310 c 0,27,28
 298 300 298 300 327.5 290 c 128,-1,29
 357 280 357 280 377.5 267.5 c 128,-1,30
 398 255 398 255 409.5 239.5 c 128,-1,31
 421 224 421 224 421 202 c 0,32,33
 421 176 421 176 411 156 c 128,-1,34
 401 136 401 136 382 121.5 c 128,-1,35
 363 107 363 107 335.5 100 c 128,-1,36
 308 93 308 93 272 93 c 0,37,38
 233 93 233 93 198.5 102 c 128,-1,39
 164 111 164 111 136.5 125 c 128,-1,40
 109 139 109 139 89 155 c 128,-1,41
 69 171 69 171 61 184 c 1,42,-1
 -10 89 l 1,43,44
 13 66 13 66 42 48 c 128,-1,45
 71 30 71 30 104.5 17.5 c 128,-1,46
 138 5 138 5 174 -1 c 128,-1,47
 210 -7 210 -7 248 -7 c 0,48,49
 307 -7 307 -7 360.5 7 c 128,-1,50
 414 21 414 21 455 51 c 128,-1,51
 496 81 496 81 520.5 126.5 c 128,-1,52
 545 172 545 172 545 236 c 0,53,54
 545 273 545 273 532 299 c 128,-1,55
 519 325 519 325 495 344 c 128,-1,56
 471 363 471 363 437 377 c 128,-1,57
 403 391 403 391 362 403 c 0,58,59
 327 412 327 412 300.5 420.5 c 128,-1,60
 274 429 274 429 256 440 c 128,-1,61
 238 451 238 451 229 465 c 128,-1,62
 220 479 220 479 220 499 c 0,63,64
 220 525 220 525 229 546.5 c 128,-1,65
 238 568 238 568 257 583.5 c 128,-1,66
 276 599 276 599 304 608 c 128,-1,67
 332 617 332 617 370 617 c 0,68,69
 400 617 400 617 428 609.5 c 128,-1,70
 456 602 456 602 477.5 591 c 128,-1,71
 499 580 499 580 515 568 c 128,-1,72
 531 556 531 556 537 544 c 1,73,-1
 606 635 l 1,12,13
EndSplineSet
EndChar

StartChar: percent
Encoding: 37 37 8
Width: 731
GlyphClass: 1
Flags: W
LayerCount: 2
Fore
SplineSet
215 423 m 0,0,1
 251 423 251 423 284.5 437 c 128,-1,2
 318 451 318 451 344 474.5 c 128,-1,3
 370 498 370 498 386 530 c 128,-1,4
 402 562 402 562 402 597 c 0,5,6
 402 623 402 623 393.5 645.5 c 128,-1,7
 385 668 385 668 368 684.5 c 128,-1,8
 351 701 351 701 328.5 710.5 c 128,-1,9
 306 720 306 720 278 720 c 0,10,11
 243 720 243 720 209 706 c 128,-1,12
 175 692 175 692 149 668.5 c 128,-1,13
 123 645 123 645 107 613.5 c 128,-1,14
 91 582 91 582 91 546 c 0,15,16
 91 521 91 521 100 498 c 128,-1,17
 109 475 109 475 125 458.5 c 128,-1,18
 141 442 141 442 164 432.5 c 128,-1,19
 187 423 187 423 215 423 c 0,0,1
227 480 m 0,20,21
 201 480 201 480 185 501 c 128,-1,22
 169 522 169 522 169 553 c 0,23,24
 169 575 169 575 177.5 594.5 c 128,-1,25
 186 614 186 614 200 629.5 c 128,-1,26
 214 645 214 645 231 654.5 c 128,-1,27
 248 664 248 664 266 664 c 0,28,29
 292 664 292 664 308 642.5 c 128,-1,30
 324 621 324 621 324 590 c 0,31,32
 324 569 324 569 315.5 549 c 128,-1,33
 307 529 307 529 293 513.5 c 128,-1,34
 279 498 279 498 262 489 c 128,-1,35
 245 480 245 480 227 480 c 0,20,21
476 -10 m 0,36,37
 512 -10 512 -10 545.5 4 c 128,-1,38
 579 18 579 18 605 41.5 c 128,-1,39
 631 65 631 65 646.5 97 c 128,-1,40
 662 129 662 129 662 164 c 0,41,42
 662 190 662 190 653 212.5 c 128,-1,43
 644 235 644 235 628 251.5 c 128,-1,44
 612 268 612 268 589.5 277.5 c 128,-1,45
 567 287 567 287 539 287 c 0,46,47
 503 287 503 287 469 273 c 128,-1,48
 435 259 435 259 409 235.5 c 128,-1,49
 383 212 383 212 367 180.5 c 128,-1,50
 351 149 351 149 351 113 c 0,51,52
 351 88 351 88 360.5 65 c 128,-1,53
 370 42 370 42 386 25.5 c 128,-1,54
 402 9 402 9 425 -0.5 c 128,-1,55
 448 -10 448 -10 476 -10 c 0,36,37
487 46 m 0,56,57
 461 46 461 46 445 67.5 c 128,-1,58
 429 89 429 89 429 120 c 0,59,60
 429 141 429 141 437.5 161 c 128,-1,61
 446 181 446 181 459.5 196.5 c 128,-1,62
 473 212 473 212 490.5 221 c 128,-1,63
 508 230 508 230 526 230 c 0,64,65
 552 230 552 230 568.5 209 c 128,-1,66
 585 188 585 188 585 157 c 0,67,68
 585 135 585 135 576 115.5 c 128,-1,69
 567 96 567 96 553.5 80 c 128,-1,70
 540 64 540 64 522.5 55 c 128,-1,71
 505 46 505 46 487 46 c 0,56,57
66 -6 m 1,72,-1
 396 342 l 1,73,-1
 728 672 l 1,74,-1
 687 716 l 1,75,-1
 363 373 l 1,76,-1
 26 39 l 1,77,-1
 66 -6 l 1,72,-1
EndSplineSet
EndChar

StartChar: ampersand
Encoding: 38 38 9
Width: 683
GlyphClass: 1
Flags: W
LayerCount: 2
Fore
SplineSet
189 -10 m 0,0,1
 250 -10 250 -10 311 20.5 c 128,-1,2
 372 51 372 51 425 107 c 128,-1,3
 478 163 478 163 518 241.5 c 128,-1,4
 558 320 558 320 576 416 c 1,5,-1
 483 416 l 1,6,7
 471 342 471 342 443.5 279.5 c 128,-1,8
 416 217 416 217 379.5 171.5 c 128,-1,9
 343 126 343 126 300.5 100.5 c 128,-1,10
 258 75 258 75 215 75 c 0,11,12
 176 75 176 75 149 99.5 c 128,-1,13
 122 124 122 124 122 171 c 0,14,15
 122 200 122 200 134 224.5 c 128,-1,16
 146 249 146 249 168 271 c 128,-1,17
 190 293 190 293 222.5 313.5 c 128,-1,18
 255 334 255 334 293 356 c 1,19,-1
 243 423 l 1,20,21
 202 399 202 399 161 372.5 c 128,-1,22
 120 346 120 346 88 315 c 128,-1,23
 56 284 56 284 36 245.5 c 128,-1,24
 16 207 16 207 16 158 c 0,25,26
 16 123 16 123 28.5 92 c 128,-1,27
 41 61 41 61 63 38.5 c 128,-1,28
 85 16 85 16 117 3 c 128,-1,29
 149 -10 149 -10 189 -10 c 0,0,1
458 0 m 1,30,-1
 595 0 l 1,31,-1
 303 420 l 2,32,33
 285 445 285 445 273.5 464 c 128,-1,34
 262 483 262 483 254.5 498 c 128,-1,35
 247 513 247 513 244.5 524.5 c 128,-1,36
 242 536 242 536 242 546 c 0,37,38
 242 564 242 564 250.5 581 c 128,-1,39
 259 598 259 598 272.5 610.5 c 128,-1,40
 286 623 286 623 304.5 630.5 c 128,-1,41
 323 638 323 638 343 638 c 0,42,43
 378 638 378 638 406 614 c 128,-1,44
 434 590 434 590 447 551 c 1,45,-1
 521 604 l 1,46,47
 512 632 512 632 495 653 c 128,-1,48
 478 674 478 674 457 688.5 c 128,-1,49
 436 703 436 703 410.5 711 c 128,-1,50
 385 719 385 719 357 719 c 0,51,52
 314 719 314 719 274.5 704.5 c 128,-1,53
 235 690 235 690 205 664 c 128,-1,54
 175 638 175 638 157.5 603.5 c 128,-1,55
 140 569 140 569 140 529 c 0,56,57
 140 511 140 511 144 493 c 128,-1,58
 148 475 148 475 157 455 c 128,-1,59
 166 435 166 435 179.5 412 c 128,-1,60
 193 389 193 389 212 361 c 2,61,-1
 458 0 l 1,30,-1
478 335 m 1,62,-1
 646 335 l 1,63,-1
 661 416 l 1,64,-1
 493 416 l 1,65,-1
 478 335 l 1,62,-1
EndSplineSet
EndChar

StartChar: quotesingle
Encoding: 39 39 10
Width: 221
GlyphClass: 1
Flags: W
LayerCount: 2
Fore
SplineSet
146 507 m 1,0,-1
 273 720 l 1,1,-1
 176 720 l 1,2,-1
 96 507 l 1,3,-1
 146 507 l 1,0,-1
EndSplineSet
EndChar

StartChar: parenleft
Encoding: 40 40 11
Width: 290
GlyphClass: 1
Flags: W
LayerCount: 2
Fore
SplineSet
39 262 m 0,0,1
 39 224 39 224 43.5 184 c 128,-1,2
 48 144 48 144 57 104 c 128,-1,3
 66 64 66 64 78 25.5 c 128,-1,4
 90 -13 90 -13 105 -47 c 1,5,-1
 194 -6 l 1,6,7
 181 27 181 27 171.5 62.5 c 128,-1,8
 162 98 162 98 155 134 c 128,-1,9
 148 170 148 170 144.5 204 c 128,-1,10
 141 238 141 238 141 269 c 0,11,12
 141 327 141 327 161 388.5 c 128,-1,13
 181 450 181 450 211.5 509 c 128,-1,14
 242 568 242 568 279 620.5 c 128,-1,15
 316 673 316 673 349 714 c 1,16,-1
 274 750 l 1,17,18
 225 687 225 687 182 627.5 c 128,-1,19
 139 568 139 568 107 509 c 128,-1,20
 75 450 75 450 57 389 c 128,-1,21
 39 328 39 328 39 262 c 0,0,1
EndSplineSet
EndChar

StartChar: parenright
Encoding: 41 41 12
Width: 289
GlyphClass: 1
Flags: W
LayerCount: 2
Fore
SplineSet
271 432 m 0,0,1
 271 508 271 508 252.5 590.5 c 128,-1,2
 234 673 234 673 207 750 c 1,3,-1
 116 714 l 1,4,5
 124 693 124 693 133 661 c 128,-1,6
 142 629 142 629 150 589.5 c 128,-1,7
 158 550 158 550 163 507.5 c 128,-1,8
 168 465 168 465 168 424 c 0,9,10
 168 369 168 369 153 315.5 c 128,-1,11
 138 262 138 262 111 209 c 128,-1,12
 84 156 84 156 47 102.5 c 128,-1,13
 10 49 10 49 -34 -6 c 1,14,-1
 37 -47 l 1,15,16
 84 10 84 10 126.5 67.5 c 128,-1,17
 169 125 169 125 201 184.5 c 128,-1,18
 233 244 233 244 252 305.5 c 128,-1,19
 271 367 271 367 271 432 c 0,0,1
EndSplineSet
EndChar

StartChar: asterisk
Encoding: 42 42 13
Width: 329
GlyphClass: 1
Flags: W
LayerCount: 2
Fore
SplineSet
163 501 m 1,0,-1
 221 571 l 1,1,-1
 248 501 l 1,2,-1
 298 530 l 1,3,-1
 268 598 l 1,4,-1
 339 620 l 1,5,-1
 335 669 l 1,6,-1
 261 640 l 1,7,-1
 281 715 l 1,8,-1
 221 715 l 1,9,-1
 209 640 l 1,10,-1
 148 669 l 1,11,-1
 122 620 l 1,12,-1
 184 598 l 1,13,-1
 126 530 l 1,14,-1
 163 501 l 1,0,-1
EndSplineSet
EndChar

StartChar: plus
Encoding: 43 43 14
Width: 421
GlyphClass: 1
Flags: W
LayerCount: 2
Fore
SplineSet
269 399 m 1,0,-1
 269 520 l 1,1,-1
 171 520 l 1,2,-1
 171 399 l 1,3,-1
 59 399 l 1,4,-1
 59 311 l 1,5,-1
 171 311 l 1,6,-1
 171 190 l 1,7,-1
 269 190 l 1,8,-1
 269 311 l 1,9,-1
 380 311 l 1,10,-1
 380 399 l 1,11,-1
 269 399 l 1,0,-1
EndSplineSet
EndChar

StartChar: comma
Encoding: 44 44 15
Width: 220
GlyphClass: 1
Flags: W
LayerCount: 2
Fore
SplineSet
43 -160 m 1,0,-1
 188 100 l 1,1,-1
 90 100 l 1,2,-1
 -8 -160 l 1,3,-1
 43 -160 l 1,0,-1
EndSplineSet
EndChar

StartChar: hyphen
Encoding: 45 45 16
Width: 404
GlyphClass: 1
Flags: W
LayerCount: 2
Fore
SplineSet
328 225 m 1,0,-1
 349 323 l 1,1,-1
 64 323 l 1,2,-1
 44 225 l 1,3,-1
 328 225 l 1,0,-1
EndSplineSet
EndChar

StartChar: period
Encoding: 46 46 17
Width: 212
GlyphClass: 1
Flags: W
LayerCount: 2
Fore
SplineSet
41 54 m 0,0,1
 35 27 35 27 49.5 8.5 c 128,-1,2
 64 -10 64 -10 91 -10 c 0,3,4
 117 -10 117 -10 139.5 8.5 c 128,-1,5
 162 27 162 27 168 54 c 0,6,7
 174 80 174 80 159 98.5 c 128,-1,8
 144 117 144 117 118 117 c 0,9,10
 91 117 91 117 68.5 98.5 c 128,-1,11
 46 80 46 80 41 54 c 0,0,1
EndSplineSet
EndChar

StartChar: slash
Encoding: 47 47 18
Width: 657
GlyphClass: 1
Flags: W
LayerCount: 2
Fore
SplineSet
589 710 m 1,0,-1
 -26 0 l 1,1,-1
 94 0 l 1,2,-1
 709 710 l 1,3,-1
 589 710 l 1,0,-1
EndSplineSet
Substitution2: "'frac' Diagonal Fractions lookup 23 subtable" fraction
Substitution2: "'aalt' Access All Alternates lookup 0 subtable" fraction
EndChar

StartChar: zero
Encoding: 48 48 19
Width: 670
GlyphClass: 1
Flags: W
LayerCount: 2
Fore
SplineSet
269 -10 m 0,0,1
 346 -10 346 -10 414 29.5 c 128,-1,2
 482 69 482 69 533 131 c 128,-1,3
 584 193 584 193 613.5 270 c 128,-1,4
 643 347 643 347 643 421 c 0,5,6
 643 472 643 472 630.5 523 c 128,-1,7
 618 574 618 574 591 616 c 128,-1,8
 564 658 564 658 522 684 c 128,-1,9
 480 710 480 710 421 710 c 0,10,11
 344 710 344 710 276 670 c 128,-1,12
 208 630 208 630 157 567.5 c 128,-1,13
 106 505 106 505 76.5 428 c 128,-1,14
 47 351 47 351 47 277 c 0,15,16
 47 226 47 226 59.5 174.5 c 128,-1,17
 72 123 72 123 99 82 c 128,-1,18
 126 41 126 41 168.5 15.5 c 128,-1,19
 211 -10 211 -10 269 -10 c 0,0,1
289 89 m 0,20,21
 255 89 255 89 230 104 c 128,-1,22
 205 119 205 119 189.5 144.5 c 128,-1,23
 174 170 174 170 167 202.5 c 128,-1,24
 160 235 160 235 160 271 c 0,25,26
 160 320 160 320 177 379.5 c 128,-1,27
 194 439 194 439 225 490.5 c 128,-1,28
 256 542 256 542 300.5 576.5 c 128,-1,29
 345 611 345 611 401 611 c 0,30,31
 434 611 434 611 458.5 594 c 128,-1,32
 483 577 483 577 499 549 c 128,-1,33
 515 521 515 521 522.5 486 c 128,-1,34
 530 451 530 451 530 414 c 0,35,36
 530 366 530 366 512.5 309 c 128,-1,37
 495 252 495 252 463.5 203.5 c 128,-1,38
 432 155 432 155 388 122 c 128,-1,39
 344 89 344 89 289 89 c 0,20,21
EndSplineSet
Substitution2: "'frac' Diagonal Fractions lookup 24 subtable" zero.numr
Substitution2: "'dnom' Denominators lookup 22 subtable" zero.dnom
Substitution2: "'numr' Numerators lookup 21 subtable" zero.numr
Substitution2: "'sups' Superscript lookup 20 subtable" uni2070
Substitution2: "'sinf' Scientific Inferiors lookup 19 subtable" zero.subs
Substitution2: "'subs' Subscript lookup 18 subtable" uni2080
AlternateSubs2: "'aalt' Access All Alternates lookup 1 subtable" uni2080 zero.subs uni2070 zero.numr zero.dnom
EndChar

StartChar: one
Encoding: 49 49 20
Width: 404
GlyphClass: 1
Flags: W
LayerCount: 2
Fore
SplineSet
131 0 m 1,0,-1
 242 0 l 1,1,-1
 394 717 l 1,2,-1
 284 717 l 2,3,4
 283 716 283 716 265 700.5 c 128,-1,5
 247 685 247 685 221.5 667.5 c 128,-1,6
 196 650 196 650 166.5 635.5 c 128,-1,7
 137 621 137 621 111 621 c 1,8,-1
 90 520 l 1,9,10
 109 520 109 520 134 529 c 128,-1,11
 159 538 159 538 183.5 551.5 c 128,-1,12
 208 565 208 565 229 579.5 c 128,-1,13
 250 594 250 594 260 606 c 1,14,-1
 131 0 l 1,0,-1
EndSplineSet
Substitution2: "'frac' Diagonal Fractions lookup 24 subtable" one.numr
Substitution2: "'dnom' Denominators lookup 22 subtable" one.dnom
Substitution2: "'numr' Numerators lookup 21 subtable" one.numr
Substitution2: "'sups' Superscript lookup 20 subtable" onesuperior
Substitution2: "'sinf' Scientific Inferiors lookup 19 subtable" one.subs
Substitution2: "'subs' Subscript lookup 18 subtable" uni2081
AlternateSubs2: "'aalt' Access All Alternates lookup 1 subtable" uni2081 one.subs onesuperior one.numr one.dnom
EndChar

StartChar: two
Encoding: 50 50 21
Width: 575
GlyphClass: 1
Flags: W
LayerCount: 2
Fore
SplineSet
-19 0 m 1,0,-1
 460 0 l 1,1,-1
 481 98 l 1,2,-1
 129 98 l 1,3,4
 135 128 135 128 152 152.5 c 128,-1,5
 169 177 169 177 196 199 c 128,-1,6
 223 221 223 221 259.5 240.5 c 128,-1,7
 296 260 296 260 342 282 c 0,8,9
 388 303 388 303 429.5 326.5 c 128,-1,10
 471 350 471 350 503 380.5 c 128,-1,11
 535 411 535 411 553.5 452 c 128,-1,12
 572 493 572 493 572 551 c 0,13,14
 572 587 572 587 560.5 617.5 c 128,-1,15
 549 648 549 648 527 670.5 c 128,-1,16
 505 693 505 693 470.5 706 c 128,-1,17
 436 719 436 719 390 719 c 0,18,19
 339 719 339 719 294 705 c 128,-1,20
 249 691 249 691 213 671.5 c 128,-1,21
 177 652 177 652 151.5 632 c 128,-1,22
 126 612 126 612 112 599 c 1,23,-1
 165 528 l 1,24,25
 180 543 180 543 201 559 c 128,-1,26
 222 575 222 575 246 588.5 c 128,-1,27
 270 602 270 602 298 611 c 128,-1,28
 326 620 326 620 356 620 c 0,29,30
 379 620 379 620 396.5 613.5 c 128,-1,31
 414 607 414 607 425.5 595 c 128,-1,32
 437 583 437 583 442.5 566.5 c 128,-1,33
 448 550 448 550 448 530 c 0,34,35
 448 484 448 484 428 454 c 128,-1,36
 408 424 408 424 376.5 402 c 128,-1,37
 345 380 345 380 305.5 363.5 c 128,-1,38
 266 347 266 347 227 330 c 0,39,40
 175 306 175 306 135.5 277.5 c 128,-1,41
 96 249 96 249 66.5 210.5 c 128,-1,42
 37 172 37 172 16.5 121 c 128,-1,43
 -4 70 -4 70 -19 0 c 1,0,-1
EndSplineSet
Substitution2: "'frac' Diagonal Fractions lookup 24 subtable" two.numr
Substitution2: "'dnom' Denominators lookup 22 subtable" two.dnom
Substitution2: "'numr' Numerators lookup 21 subtable" two.numr
Substitution2: "'sups' Superscript lookup 20 subtable" twosuperior
Substitution2: "'sinf' Scientific Inferiors lookup 19 subtable" two.subs
Substitution2: "'subs' Subscript lookup 18 subtable" uni2082
AlternateSubs2: "'aalt' Access All Alternates lookup 1 subtable" uni2082 two.subs twosuperior two.numr two.dnom
EndChar

StartChar: three
Encoding: 51 51 22
Width: 527
GlyphClass: 1
Flags: W
LayerCount: 2
Fore
SplineSet
176 -9 m 0,0,1
 238 -9 238 -9 290.5 9 c 128,-1,2
 343 27 343 27 381.5 59 c 128,-1,3
 420 91 420 91 441.5 136 c 128,-1,4
 463 181 463 181 463 235 c 256,5,6
 463 289 463 289 437 327 c 128,-1,7
 411 365 411 365 363 374 c 1,8,9
 397 380 397 380 426 398 c 128,-1,10
 455 416 455 416 476 442.5 c 128,-1,11
 497 469 497 469 509.5 501.5 c 128,-1,12
 522 534 522 534 522 568 c 0,13,14
 522 601 522 601 509.5 628 c 128,-1,15
 497 655 497 655 474 674 c 128,-1,16
 451 693 451 693 418.5 703.5 c 128,-1,17
 386 714 386 714 344 714 c 0,18,19
 307 714 307 714 272 706.5 c 128,-1,20
 237 699 237 699 204.5 684.5 c 128,-1,21
 172 670 172 670 145 650 c 128,-1,22
 118 630 118 630 100 606 c 1,23,-1
 151 533 l 1,24,25
 183 574 183 574 224 596.5 c 128,-1,26
 265 619 265 619 312 619 c 0,27,28
 353 619 353 619 378 600.5 c 128,-1,29
 403 582 403 582 403 544 c 0,30,31
 403 517 403 517 391.5 493 c 128,-1,32
 380 469 380 469 360 451.5 c 128,-1,33
 340 434 340 434 310.5 423.5 c 128,-1,34
 281 413 281 413 245 413 c 2,35,-1
 182 413 l 1,36,-1
 164 327 l 1,37,-1
 224 327 l 2,38,39
 288 327 288 327 319 301 c 128,-1,40
 350 275 350 275 350 229 c 0,41,42
 350 196 350 196 339.5 170 c 128,-1,43
 329 144 329 144 309 126.5 c 128,-1,44
 289 109 289 109 260 99.5 c 128,-1,45
 231 90 231 90 194 90 c 0,46,47
 139 90 139 90 108.5 111 c 128,-1,48
 78 132 78 132 62 169 c 1,49,-1
 -19 94 l 1,50,51
 4 44 4 44 54 17.5 c 128,-1,52
 104 -9 104 -9 176 -9 c 0,0,1
EndSplineSet
Substitution2: "'frac' Diagonal Fractions lookup 24 subtable" three.numr
Substitution2: "'dnom' Denominators lookup 22 subtable" three.dnom
Substitution2: "'numr' Numerators lookup 21 subtable" three.numr
Substitution2: "'sups' Superscript lookup 20 subtable" threesuperior
Substitution2: "'sinf' Scientific Inferiors lookup 19 subtable" three.subs
Substitution2: "'subs' Subscript lookup 18 subtable" uni2083
AlternateSubs2: "'aalt' Access All Alternates lookup 1 subtable" uni2083 three.subs threesuperior three.numr three.dnom
EndChar

StartChar: four
Encoding: 52 52 23
Width: 558
GlyphClass: 1
Flags: W
LayerCount: 2
Fore
SplineSet
371 0 m 1,0,-1
 407 172 l 1,1,-1
 491 172 l 1,2,-1
 512 270 l 1,3,-1
 428 270 l 1,4,-1
 521 710 l 1,5,-1
 446 710 l 1,6,-1
 21 269 l 1,7,-1
 0 172 l 1,8,-1
 299 172 l 1,9,-1
 262 0 l 1,10,-1
 371 0 l 1,0,-1
132 270 m 1,11,-1
 390 545 l 1,12,-1
 331 270 l 1,13,-1
 132 270 l 1,11,-1
EndSplineSet
Substitution2: "'frac' Diagonal Fractions lookup 24 subtable" four.numr
Substitution2: "'dnom' Denominators lookup 22 subtable" four.dnom
Substitution2: "'numr' Numerators lookup 21 subtable" four.numr
Substitution2: "'sups' Superscript lookup 20 subtable" uni2074
Substitution2: "'sinf' Scientific Inferiors lookup 19 subtable" four.subs
Substitution2: "'subs' Subscript lookup 18 subtable" uni2084
AlternateSubs2: "'aalt' Access All Alternates lookup 1 subtable" uni2084 four.subs uni2074 four.numr four.dnom
EndChar

StartChar: five
Encoding: 53 53 24
Width: 543
GlyphClass: 1
Flags: W
LayerCount: 2
Fore
SplineSet
191 -10 m 0,0,1
 251 -10 251 -10 305 11.5 c 128,-1,2
 359 33 359 33 400.5 70.5 c 128,-1,3
 442 108 442 108 466.5 160 c 128,-1,4
 491 212 491 212 491 273 c 0,5,6
 491 313 491 313 478 347 c 128,-1,7
 465 381 465 381 442 405 c 128,-1,8
 419 429 419 429 386 442.5 c 128,-1,9
 353 456 353 456 312 456 c 0,10,11
 278 456 278 456 249.5 445 c 128,-1,12
 221 434 221 434 200 415 c 1,13,-1
 275 611 l 1,14,-1
 526 611 l 1,15,-1
 548 710 l 1,16,-1
 217 710 l 1,17,18
 214 703 214 703 202 673 c 128,-1,19
 190 643 190 643 174 601.5 c 128,-1,20
 158 560 158 560 138.5 512 c 128,-1,21
 119 464 119 464 102 420.5 c 128,-1,22
 85 377 85 377 71.5 343.5 c 128,-1,23
 58 310 58 310 53 297 c 1,24,-1
 148 297 l 1,25,26
 174 328 174 328 208.5 345 c 128,-1,27
 243 362 243 362 278 362 c 0,28,29
 301 362 301 362 319 354 c 128,-1,30
 337 346 337 346 350.5 332 c 128,-1,31
 364 318 364 318 371 298 c 128,-1,32
 378 278 378 278 378 254 c 0,33,34
 378 219 378 219 364 188.5 c 128,-1,35
 350 158 350 158 327.5 135.5 c 128,-1,36
 305 113 305 113 275 100 c 128,-1,37
 245 87 245 87 212 87 c 0,38,39
 165 87 165 87 129.5 112.5 c 128,-1,40
 94 138 94 138 76 181 c 1,41,-1
 -2 119 l 1,42,43
 16 59 16 59 67 24.5 c 128,-1,44
 118 -10 118 -10 191 -10 c 0,0,1
EndSplineSet
Substitution2: "'frac' Diagonal Fractions lookup 24 subtable" five.numr
Substitution2: "'dnom' Denominators lookup 22 subtable" five.dnom
Substitution2: "'numr' Numerators lookup 21 subtable" five.numr
Substitution2: "'sups' Superscript lookup 20 subtable" uni2075
Substitution2: "'sinf' Scientific Inferiors lookup 19 subtable" five.subs
Substitution2: "'subs' Subscript lookup 18 subtable" uni2085
AlternateSubs2: "'aalt' Access All Alternates lookup 1 subtable" uni2085 five.subs uni2075 five.numr five.dnom
EndChar

StartChar: six
Encoding: 54 54 25
Width: 591
GlyphClass: 1
Flags: W
LayerCount: 2
Fore
SplineSet
237 -10 m 0,0,1
 192 -10 192 -10 156 6 c 128,-1,2
 120 22 120 22 95.5 51.5 c 128,-1,3
 71 81 71 81 58 124 c 128,-1,4
 45 167 45 167 45 220 c 0,5,6
 45 320 45 320 71.5 410 c 128,-1,7
 98 500 98 500 145 568 c 128,-1,8
 192 636 192 636 257.5 675.5 c 128,-1,9
 323 715 323 715 402 715 c 0,10,11
 467 715 467 715 514 684 c 128,-1,12
 561 653 561 653 583 595 c 1,13,-1
 505 528 l 1,14,15
 492 571 492 571 459 596 c 128,-1,16
 426 621 426 621 380 621 c 0,17,18
 346 621 346 621 313 604.5 c 128,-1,19
 280 588 280 588 251 556.5 c 128,-1,20
 222 525 222 525 198 479.5 c 128,-1,21
 174 434 174 434 157 376 c 1,22,23
 172 398 172 398 194.5 416 c 128,-1,24
 217 434 217 434 242.5 447 c 128,-1,25
 268 460 268 460 296 467 c 128,-1,26
 324 474 324 474 350 474 c 0,27,28
 392 474 392 474 427.5 459 c 128,-1,29
 463 444 463 444 487.5 417.5 c 128,-1,30
 512 391 512 391 525.5 356 c 128,-1,31
 539 321 539 321 539 279 c 0,32,33
 539 221 539 221 514 168 c 128,-1,34
 489 115 489 115 447 75.5 c 128,-1,35
 405 36 405 36 350.5 13 c 128,-1,36
 296 -10 296 -10 237 -10 c 0,0,1
258 83 m 0,37,38
 290 83 290 83 321.5 97.5 c 128,-1,39
 353 112 353 112 378 137 c 128,-1,40
 403 162 403 162 418 194.5 c 128,-1,41
 433 227 433 227 433 263 c 0,42,43
 433 289 433 289 425 311.5 c 128,-1,44
 417 334 417 334 402.5 351 c 128,-1,45
 388 368 388 368 367.5 377.5 c 128,-1,46
 347 387 347 387 322 387 c 0,47,48
 289 387 289 387 257.5 372.5 c 128,-1,49
 226 358 226 358 201.5 333.5 c 128,-1,50
 177 309 177 309 161.5 276.5 c 128,-1,51
 146 244 146 244 146 208 c 0,52,53
 146 182 146 182 154 159 c 128,-1,54
 162 136 162 136 177 119.5 c 128,-1,55
 192 103 192 103 212.5 93 c 128,-1,56
 233 83 233 83 258 83 c 0,37,38
EndSplineSet
Substitution2: "'frac' Diagonal Fractions lookup 24 subtable" six.numr
Substitution2: "'dnom' Denominators lookup 22 subtable" six.dnom
Substitution2: "'numr' Numerators lookup 21 subtable" six.numr
Substitution2: "'sups' Superscript lookup 20 subtable" uni2076
Substitution2: "'sinf' Scientific Inferiors lookup 19 subtable" six.subs
Substitution2: "'subs' Subscript lookup 18 subtable" uni2086
AlternateSubs2: "'aalt' Access All Alternates lookup 1 subtable" uni2086 six.subs uni2076 six.numr six.dnom
EndChar

StartChar: seven
Encoding: 55 55 26
Width: 528
GlyphClass: 1
Flags: W
LayerCount: 2
Fore
SplineSet
1 0 m 1,0,-1
 123 0 l 1,1,-1
 612 710 l 1,2,-1
 117 710 l 1,3,-1
 96 611 l 1,4,-1
 419 611 l 1,5,-1
 1 0 l 1,0,-1
EndSplineSet
Substitution2: "'frac' Diagonal Fractions lookup 24 subtable" seven.numr
Substitution2: "'dnom' Denominators lookup 22 subtable" seven.dnom
Substitution2: "'numr' Numerators lookup 21 subtable" seven.numr
Substitution2: "'sups' Superscript lookup 20 subtable" uni2077
Substitution2: "'sinf' Scientific Inferiors lookup 19 subtable" seven.subs
Substitution2: "'subs' Subscript lookup 18 subtable" uni2087
AlternateSubs2: "'aalt' Access All Alternates lookup 1 subtable" uni2087 seven.subs uni2077 seven.numr seven.dnom
EndChar

StartChar: eight
Encoding: 56 56 27
Width: 579
GlyphClass: 1
Flags: W
LayerCount: 2
Fore
SplineSet
515 237 m 0,0,1
 515 287 515 287 490.5 324.5 c 128,-1,2
 466 362 466 362 432 380 c 1,3,4
 456 391 456 391 479 407.5 c 128,-1,5
 502 424 502 424 520.5 446 c 128,-1,6
 539 468 539 468 550 494.5 c 128,-1,7
 561 521 561 521 561 551 c 0,8,9
 561 590 561 590 545 619.5 c 128,-1,10
 529 649 529 649 503 669 c 128,-1,11
 477 689 477 689 443.5 699.5 c 128,-1,12
 410 710 410 710 375 710 c 0,13,14
 333 710 333 710 286.5 695.5 c 128,-1,15
 240 681 240 681 201 653.5 c 128,-1,16
 162 626 162 626 137 586 c 128,-1,17
 112 546 112 546 112 495 c 0,18,19
 112 456 112 456 130.5 425.5 c 128,-1,20
 149 395 149 395 178 380 c 1,21,22
 152 368 152 368 124.5 349.5 c 128,-1,23
 97 331 97 331 74.5 305.5 c 128,-1,24
 52 280 52 280 37.5 246.5 c 128,-1,25
 23 213 23 213 23 173 c 0,26,27
 23 134 23 134 37.5 100.5 c 128,-1,28
 52 67 52 67 78 43 c 128,-1,29
 104 19 104 19 141 5.5 c 128,-1,30
 178 -8 178 -8 222 -8 c 0,31,32
 278 -8 278 -8 330.5 10 c 128,-1,33
 383 28 383 28 424 60.5 c 128,-1,34
 465 93 465 93 490 138 c 128,-1,35
 515 183 515 183 515 237 c 0,0,1
405 234 m 0,36,37
 405 202 405 202 390.5 175.5 c 128,-1,38
 376 149 376 149 352.5 130 c 128,-1,39
 329 111 329 111 300.5 100 c 128,-1,40
 272 89 272 89 244 89 c 0,41,42
 223 89 223 89 203.5 96.5 c 128,-1,43
 184 104 184 104 169 117 c 128,-1,44
 154 130 154 130 145 149 c 128,-1,45
 136 168 136 168 136 191 c 0,46,47
 136 222 136 222 150.5 249 c 128,-1,48
 165 276 165 276 187.5 295 c 128,-1,49
 210 314 210 314 238.5 324.5 c 128,-1,50
 267 335 267 335 295 335 c 0,51,52
 317 335 317 335 336.5 328 c 128,-1,53
 356 321 356 321 371.5 308 c 128,-1,54
 387 295 387 295 396 276.5 c 128,-1,55
 405 258 405 258 405 234 c 0,36,37
222 499 m 0,56,57
 222 524 222 524 233.5 545.5 c 128,-1,58
 245 567 245 567 264 582 c 128,-1,59
 283 597 283 597 306.5 605 c 128,-1,60
 330 613 330 613 355 613 c 0,61,62
 374 613 374 613 391 608 c 128,-1,63
 408 603 408 603 420.5 592 c 128,-1,64
 433 581 433 581 440.5 566.5 c 128,-1,65
 448 552 448 552 448 534 c 0,66,67
 448 506 448 506 435 484 c 128,-1,68
 422 462 422 462 402 447 c 128,-1,69
 382 432 382 432 358.5 424.5 c 128,-1,70
 335 417 335 417 314 417 c 0,71,72
 297 417 297 417 280.5 422.5 c 128,-1,73
 264 428 264 428 251 438.5 c 128,-1,74
 238 449 238 449 230 464 c 128,-1,75
 222 479 222 479 222 499 c 0,56,57
EndSplineSet
Substitution2: "'frac' Diagonal Fractions lookup 24 subtable" eight.numr
Substitution2: "'dnom' Denominators lookup 22 subtable" eight.dnom
Substitution2: "'numr' Numerators lookup 21 subtable" eight.numr
Substitution2: "'sups' Superscript lookup 20 subtable" uni2078
Substitution2: "'sinf' Scientific Inferiors lookup 19 subtable" eight.subs
Substitution2: "'subs' Subscript lookup 18 subtable" uni2088
AlternateSubs2: "'aalt' Access All Alternates lookup 1 subtable" uni2088 eight.subs uni2078 eight.numr eight.dnom
EndChar

StartChar: nine
Encoding: 57 57 28
Width: 574
GlyphClass: 1
Flags: W
LayerCount: 2
Fore
SplineSet
213 -8 m 0,0,1
 148 -8 148 -8 101 23.5 c 128,-1,2
 54 55 54 55 32 112 c 1,3,-1
 110 179 l 1,4,5
 123 136 123 136 155.5 111.5 c 128,-1,6
 188 87 188 87 235 87 c 0,7,8
 269 87 269 87 304.5 103.5 c 128,-1,9
 340 120 340 120 370.5 151.5 c 128,-1,10
 401 183 401 183 424 228.5 c 128,-1,11
 447 274 447 274 457 332 c 1,12,13
 442 309 442 309 420 291 c 128,-1,14
 398 273 398 273 372.5 260 c 128,-1,15
 347 247 347 247 319 240.5 c 128,-1,16
 291 234 291 234 264 234 c 0,17,18
 222 234 222 234 187 249 c 128,-1,19
 152 264 152 264 127.5 290 c 128,-1,20
 103 316 103 316 89.5 351.5 c 128,-1,21
 76 387 76 387 76 429 c 0,22,23
 76 487 76 487 101 539.5 c 128,-1,24
 126 592 126 592 168 631.5 c 128,-1,25
 210 671 210 671 264.5 694.5 c 128,-1,26
 319 718 319 718 378 718 c 0,27,28
 423 718 423 718 458.5 702 c 128,-1,29
 494 686 494 686 519 656 c 128,-1,30
 544 626 544 626 556.5 584 c 128,-1,31
 569 542 569 542 569 488 c 0,32,33
 569 388 569 388 543 298 c 128,-1,34
 517 208 517 208 470 140 c 128,-1,35
 423 72 423 72 357.5 32 c 128,-1,36
 292 -8 292 -8 213 -8 c 0,0,1
292 320 m 0,37,38
 325 320 325 320 357 334.5 c 128,-1,39
 389 349 389 349 413.5 374 c 128,-1,40
 438 399 438 399 453 431.5 c 128,-1,41
 468 464 468 464 468 499 c 0,42,43
 468 525 468 525 460 548.5 c 128,-1,44
 452 572 452 572 437.5 588.5 c 128,-1,45
 423 605 423 605 402.5 615 c 128,-1,46
 382 625 382 625 357 625 c 0,47,48
 325 625 325 625 293.5 610.5 c 128,-1,49
 262 596 262 596 236.5 571 c 128,-1,50
 211 546 211 546 196 513 c 128,-1,51
 181 480 181 480 181 444 c 0,52,53
 181 418 181 418 189.5 395.5 c 128,-1,54
 198 373 198 373 212.5 356 c 128,-1,55
 227 339 227 339 247.5 329.5 c 128,-1,56
 268 320 268 320 292 320 c 0,37,38
EndSplineSet
Substitution2: "'frac' Diagonal Fractions lookup 24 subtable" nine.numr
Substitution2: "'dnom' Denominators lookup 22 subtable" nine.dnom
Substitution2: "'numr' Numerators lookup 21 subtable" nine.numr
Substitution2: "'sups' Superscript lookup 20 subtable" uni2079
Substitution2: "'sinf' Scientific Inferiors lookup 19 subtable" nine.subs
Substitution2: "'subs' Subscript lookup 18 subtable" uni2089
AlternateSubs2: "'aalt' Access All Alternates lookup 1 subtable" uni2089 nine.subs uni2079 nine.numr nine.dnom
EndChar

StartChar: less
Encoding: 60 60 31
Width: 548
GlyphClass: 1
Flags: W
LayerCount: 2
Fore
SplineSet
30 229 m 1,0,-1
 450 -21 l 1,1,-1
 450 100 l 1,2,-1
 187 259 l 1,3,-1
 450 422 l 1,4,-1
 450 538 l 1,5,-1
 30 284 l 1,6,-1
 30 229 l 1,0,-1
EndSplineSet
EndChar

StartChar: equal
Encoding: 61 61 32
Width: 482
GlyphClass: 1
Flags: W
LayerCount: 2
Fore
SplineSet
389 163 m 1,0,-1
 389 235 l 1,1,-1
 80 235 l 1,2,-1
 80 163 l 1,3,-1
 389 163 l 1,0,-1
389 317 m 1,4,-1
 389 389 l 1,5,-1
 80 389 l 1,6,-1
 80 317 l 1,7,-1
 389 317 l 1,4,-1
EndSplineSet
EndChar

StartChar: greater
Encoding: 62 62 33
Width: 548
GlyphClass: 1
Flags: W
LayerCount: 2
Fore
SplineSet
500 284 m 1,0,-1
 79 538 l 1,1,-1
 79 422 l 1,2,-1
 342 259 l 1,3,-1
 79 100 l 1,4,-1
 79 -21 l 1,5,-1
 500 229 l 1,6,-1
 500 284 l 1,0,-1
EndSplineSet
EndChar

StartChar: question
Encoding: 63 63 34
Width: 466
GlyphClass: 1
Flags: W
LayerCount: 2
Fore
SplineSet
196 221 m 1,0,1
 203 250 203 250 216 270 c 128,-1,2
 229 290 229 290 246.5 304.5 c 128,-1,3
 264 319 264 319 284 330 c 128,-1,4
 304 341 304 341 325 352 c 0,5,6
 352 367 352 367 376 382.5 c 128,-1,7
 400 398 400 398 419.5 417.5 c 128,-1,8
 439 437 439 437 453 463 c 128,-1,9
 467 489 467 489 474 525 c 0,10,11
 486 575 486 575 476.5 611.5 c 128,-1,12
 467 648 467 648 444.5 672 c 128,-1,13
 422 696 422 696 389.5 707.5 c 128,-1,14
 357 719 357 719 320 719 c 0,15,16
 289 719 289 719 256 710.5 c 128,-1,17
 223 702 223 702 193 685.5 c 128,-1,18
 163 669 163 669 137.5 645 c 128,-1,19
 112 621 112 621 92 590 c 1,20,-1
 151 542 l 1,21,22
 163 558 163 558 179.5 574 c 128,-1,23
 196 590 196 590 215 602.5 c 128,-1,24
 234 615 234 615 255 622.5 c 128,-1,25
 276 630 276 630 299 630 c 0,26,27
 320 630 320 630 337.5 623.5 c 128,-1,28
 355 617 355 617 366.5 604 c 128,-1,29
 378 591 378 591 383 572 c 128,-1,30
 388 553 388 553 383 528 c 0,31,32
 376 497 376 497 357.5 473.5 c 128,-1,33
 339 450 339 450 315 433.5 c 128,-1,34
 291 417 291 417 266.5 404.5 c 128,-1,35
 242 392 242 392 224 381 c 0,36,37
 198 366 198 366 179 349 c 128,-1,38
 160 332 160 332 146.5 312 c 128,-1,39
 133 292 133 292 124.5 269 c 128,-1,40
 116 246 116 246 110 221 c 1,41,-1
 196 221 l 1,0,1
58 54 m 0,42,43
 53 27 53 27 66.5 8.5 c 128,-1,44
 80 -10 80 -10 106 -10 c 0,45,46
 119 -10 119 -10 131 -5 c 128,-1,47
 143 0 143 0 153 8.5 c 128,-1,48
 163 17 163 17 170.5 28.5 c 128,-1,49
 178 40 178 40 180 54 c 0,50,51
 186 80 186 80 172 98.5 c 128,-1,52
 158 117 158 117 133 117 c 0,53,54
 121 117 121 117 108.5 112 c 128,-1,55
 96 107 96 107 85.5 98.5 c 128,-1,56
 75 90 75 90 68 78.5 c 128,-1,57
 61 67 61 67 58 54 c 0,42,43
EndSplineSet
EndChar

StartChar: at
Encoding: 64 64 35
Width: 810
GlyphClass: 1
Flags: W
LayerCount: 2
Fore
SplineSet
573 35 m 0,0,1
 556 35 556 35 548.5 44.5 c 128,-1,2
 541 54 541 54 541 73 c 0,3,4
 541 79 541 79 542 88 c 128,-1,5
 543 97 543 97 545 106 c 2,6,-1
 617 450 l 1,7,-1
 555 450 l 1,8,-1
 539 368 l 1,9,10
 526 408 526 408 493 434 c 128,-1,11
 460 460 460 460 408 460 c 0,12,13
 360 460 360 460 316 437 c 128,-1,14
 272 414 272 414 238 375.5 c 128,-1,15
 204 337 204 337 183.5 286.5 c 128,-1,16
 163 236 163 236 163 182 c 0,17,18
 163 144 163 144 174 110.5 c 128,-1,19
 185 77 185 77 205 52 c 128,-1,20
 225 27 225 27 254.5 12.5 c 128,-1,21
 284 -2 284 -2 321 -2 c 0,22,23
 365 -2 365 -2 407.5 18 c 128,-1,24
 450 38 450 38 485 70 c 1,25,26
 483 65 483 65 483 60 c 128,-1,27
 483 55 483 55 483 50 c 0,28,29
 483 14 483 14 503.5 -1 c 128,-1,30
 524 -16 524 -16 555 -16 c 0,31,32
 591 -16 591 -16 619 0.5 c 128,-1,33
 647 17 647 17 669 45 c 128,-1,34
 691 73 691 73 706.5 108 c 128,-1,35
 722 143 722 143 732 179.5 c 128,-1,36
 742 216 742 216 747 251 c 128,-1,37
 752 286 752 286 752 313 c 0,38,39
 752 371 752 371 732.5 423.5 c 128,-1,40
 713 476 713 476 676 516 c 128,-1,41
 639 556 639 556 585.5 579.5 c 128,-1,42
 532 603 532 603 464 603 c 0,43,44
 384 603 384 603 305 570.5 c 128,-1,45
 226 538 226 538 163.5 479 c 128,-1,46
 101 420 101 420 61.5 338.5 c 128,-1,47
 22 257 22 257 22 159 c 0,48,49
 22 90 22 90 42 34 c 128,-1,50
 62 -22 62 -22 98.5 -62 c 128,-1,51
 135 -102 135 -102 186.5 -124 c 128,-1,52
 238 -146 238 -146 300 -146 c 0,53,54
 341 -146 341 -146 383.5 -136 c 128,-1,55
 426 -126 426 -126 469 -106 c 1,56,-1
 464 -62 l 1,57,58
 423 -80 423 -80 387 -90 c 128,-1,59
 351 -100 351 -100 310 -100 c 0,60,61
 254 -100 254 -100 209.5 -80.5 c 128,-1,62
 165 -61 165 -61 134.5 -25.5 c 128,-1,63
 104 10 104 10 87.5 58.5 c 128,-1,64
 71 107 71 107 71 164 c 0,65,66
 71 247 71 247 103.5 318.5 c 128,-1,67
 136 390 136 390 189 443 c 128,-1,68
 242 496 242 496 311 526.5 c 128,-1,69
 380 557 380 557 452 557 c 0,70,71
 514 557 514 557 560.5 535.5 c 128,-1,72
 607 514 607 514 639 478.5 c 128,-1,73
 671 443 671 443 687 396.5 c 128,-1,74
 703 350 703 350 703 300 c 0,75,76
 703 262 703 262 694 216 c 128,-1,77
 685 170 685 170 668 130 c 128,-1,78
 651 90 651 90 626.5 62.5 c 128,-1,79
 602 35 602 35 573 35 c 0,0,1
348 56 m 256,80,81
 324 56 324 56 302 66.5 c 128,-1,82
 280 77 280 77 264.5 95.5 c 128,-1,83
 249 114 249 114 240.5 140 c 128,-1,84
 232 166 232 166 232 196 c 0,85,86
 232 238 232 238 247.5 275 c 128,-1,87
 263 312 263 312 288 339 c 128,-1,88
 313 366 313 366 344 382 c 128,-1,89
 375 398 375 398 405 398 c 0,90,91
 443 398 443 398 473 373.5 c 128,-1,92
 503 349 503 349 516 297 c 1,93,-1
 493 164 l 1,94,95
 484 142 484 142 469.5 122 c 128,-1,96
 455 102 455 102 435.5 87.5 c 128,-1,97
 416 73 416 73 394 64.5 c 128,-1,98
 372 56 372 56 348 56 c 256,80,81
EndSplineSet
EndChar

StartChar: A
Encoding: 65 65 36
Width: 649
GlyphClass: 1
Flags: W
LayerCount: 2
Fore
SplineSet
-50 0 m 1,0,-1
 67 0 l 1,1,-1
 177 194 l 1,2,-1
 433 194 l 1,3,-1
 462 0 l 1,4,-1
 578 0 l 1,5,-1
 464 710 l 1,6,-1
 366 710 l 1,7,-1
 -50 0 l 1,0,-1
213 276 m 1,8,-1
 388 583 l 1,9,-1
 429 276 l 1,10,-1
 213 276 l 1,8,-1
EndSplineSet
Substitution2: "Single Substitution lookup 46 subtable" ordfeminine
Substitution2: "'aalt' Access All Alternates lookup 0 subtable" ordfeminine
EndChar

StartChar: B
Encoding: 66 66 37
Width: 651
GlyphClass: 1
Flags: W
LayerCount: 2
Fore
SplineSet
15 0 m 1,0,-1
 339 0 l 2,1,2
 388 0 388 0 433.5 15.5 c 128,-1,3
 479 31 479 31 514 59.5 c 128,-1,4
 549 88 549 88 570 129.5 c 128,-1,5
 591 171 591 171 591 222 c 256,6,7
 591 273 591 273 567.5 311 c 128,-1,8
 544 349 544 349 499 364 c 1,9,10
 531 377 531 377 556 398.5 c 128,-1,11
 581 420 581 420 599 446.5 c 128,-1,12
 617 473 617 473 626.5 503.5 c 128,-1,13
 636 534 636 534 636 565 c 0,14,15
 636 593 636 593 628.5 619 c 128,-1,16
 621 645 621 645 606 665.5 c 128,-1,17
 591 686 591 686 568.5 698 c 128,-1,18
 546 710 546 710 516 710 c 2,19,-1
 166 710 l 1,20,-1
 15 0 l 1,0,-1
147 95 m 1,21,-1
 193 314 l 1,22,-1
 412 314 l 2,23,24
 428 314 428 314 441 307 c 128,-1,25
 454 300 454 300 463 288 c 128,-1,26
 472 276 472 276 477 260.5 c 128,-1,27
 482 245 482 245 482 227 c 0,28,29
 482 201 482 201 471.5 177 c 128,-1,30
 461 153 461 153 443.5 134.5 c 128,-1,31
 426 116 426 116 404 105.5 c 128,-1,32
 382 95 382 95 359 95 c 2,33,-1
 147 95 l 1,21,-1
212 403 m 1,34,-1
 257 614 l 1,35,-1
 455 614 l 2,36,37
 470 614 470 614 482 608 c 128,-1,38
 494 602 494 602 502.5 591.5 c 128,-1,39
 511 581 511 581 515.5 565.5 c 128,-1,40
 520 550 520 550 520 532 c 0,41,42
 520 505 520 505 510 481.5 c 128,-1,43
 500 458 500 458 484 440.5 c 128,-1,44
 468 423 468 423 447 413 c 128,-1,45
 426 403 426 403 404 403 c 2,46,-1
 212 403 l 1,34,-1
EndSplineSet
EndChar

StartChar: C
Encoding: 67 67 38
Width: 655
GlyphClass: 1
Flags: W
LayerCount: 2
Fore
SplineSet
301 -6 m 0,0,1
 341 -6 341 -6 383 4 c 128,-1,2
 425 14 425 14 465 34.5 c 128,-1,3
 505 55 505 55 540.5 86.5 c 128,-1,4
 576 118 576 118 603 159 c 1,5,-1
 522 211 l 1,6,7
 503 180 503 180 478.5 158 c 128,-1,8
 454 136 454 136 428 121.5 c 128,-1,9
 402 107 402 107 375 100 c 128,-1,10
 348 93 348 93 322 93 c 0,11,12
 282 93 282 93 250.5 110 c 128,-1,13
 219 127 219 127 197.5 155 c 128,-1,14
 176 183 176 183 165 221.5 c 128,-1,15
 154 260 154 260 154 302 c 0,16,17
 154 354 154 354 171 409.5 c 128,-1,18
 188 465 188 465 222 510.5 c 128,-1,19
 256 556 256 556 307 585.5 c 128,-1,20
 358 615 358 615 427 615 c 0,21,22
 453 615 453 615 476.5 610 c 128,-1,23
 500 605 500 605 521 592.5 c 128,-1,24
 542 580 542 580 558 558.5 c 128,-1,25
 574 537 574 537 583 503 c 1,26,-1
 677 559 l 1,27,28
 668 592 668 592 648.5 620.5 c 128,-1,29
 629 649 629 649 600.5 669.5 c 128,-1,30
 572 690 572 690 533 702 c 128,-1,31
 494 714 494 714 445 714 c 0,32,33
 355 714 355 714 280.5 675.5 c 128,-1,34
 206 637 206 637 152.5 577 c 128,-1,35
 99 517 99 517 70.5 441.5 c 128,-1,36
 42 366 42 366 42 291 c 0,37,38
 42 235 42 235 58 181.5 c 128,-1,39
 74 128 74 128 107 86.5 c 128,-1,40
 140 45 140 45 188.5 19.5 c 128,-1,41
 237 -6 237 -6 301 -6 c 0,0,1
EndSplineSet
EndChar

StartChar: D
Encoding: 68 68 39
Width: 692
GlyphClass: 1
Flags: W
LayerCount: 2
Fore
SplineSet
15 0 m 1,0,-1
 256 0 l 2,1,2
 345 0 345 0 421 33 c 128,-1,3
 497 66 497 66 553 124.5 c 128,-1,4
 609 183 609 183 640.5 262.5 c 128,-1,5
 672 342 672 342 672 436 c 0,6,7
 672 493 672 493 655.5 543.5 c 128,-1,8
 639 594 639 594 606.5 631 c 128,-1,9
 574 668 574 668 524.5 689 c 128,-1,10
 475 710 475 710 407 710 c 2,11,-1
 166 710 l 1,12,-1
 15 0 l 1,0,-1
147 98 m 1,13,-1
 257 612 l 1,14,-1
 386 612 l 2,15,16
 428 612 428 612 460 597.5 c 128,-1,17
 492 583 492 583 513.5 557.5 c 128,-1,18
 535 532 535 532 546 496.5 c 128,-1,19
 557 461 557 461 557 419 c 0,20,21
 557 356 557 356 537.5 297.5 c 128,-1,22
 518 239 518 239 481.5 194.5 c 128,-1,23
 445 150 445 150 393 124 c 128,-1,24
 341 98 341 98 277 98 c 2,25,-1
 147 98 l 1,13,-1
EndSplineSet
EndChar

StartChar: E
Encoding: 69 69 40
Width: 579
GlyphClass: 1
Flags: W
LayerCount: 2
Fore
SplineSet
15 0 m 1,0,-1
 479 0 l 1,1,-1
 500 98 l 1,2,-1
 147 98 l 1,3,-1
 194 316 l 1,4,-1
 492 316 l 1,5,-1
 511 408 l 1,6,-1
 213 408 l 1,7,-1
 257 612 l 1,8,-1
 600 612 l 1,9,-1
 621 710 l 1,10,-1
 166 710 l 1,11,-1
 15 0 l 1,0,-1
EndSplineSet
EndChar

StartChar: F
Encoding: 70 70 41
Width: 561
GlyphClass: 1
Flags: W
LayerCount: 2
Fore
SplineSet
15 0 m 1,0,-1
 126 0 l 1,1,-1
 192 307 l 1,2,-1
 475 307 l 1,3,-1
 494 399 l 1,4,-1
 212 399 l 1,5,-1
 257 612 l 1,6,-1
 595 612 l 1,7,-1
 616 710 l 1,8,-1
 166 710 l 1,9,-1
 15 0 l 1,0,-1
EndSplineSet
EndChar

StartChar: G
Encoding: 71 71 42
Width: 714
GlyphClass: 1
Flags: W
LayerCount: 2
Fore
SplineSet
300 -5 m 0,0,1
 340 -5 340 -5 378.5 2 c 128,-1,2
 417 9 417 9 454.5 23.5 c 128,-1,3
 492 38 492 38 529 61 c 128,-1,4
 566 84 566 84 602 116 c 1,5,-1
 654 365 l 1,6,-1
 370 365 l 1,7,-1
 350 269 l 1,8,-1
 527 269 l 1,9,-1
 502 156 l 1,10,11
 483 139 483 139 463 127 c 128,-1,12
 443 115 443 115 421.5 107.5 c 128,-1,13
 400 100 400 100 374 97 c 128,-1,14
 348 94 348 94 316 94 c 0,15,16
 265 94 265 94 230 116.5 c 128,-1,17
 195 139 195 139 175.5 176.5 c 128,-1,18
 156 214 156 214 151.5 260.5 c 128,-1,19
 147 307 147 307 157 354 c 0,20,21
 167 403 167 403 191.5 450 c 128,-1,22
 216 497 216 497 251 534 c 128,-1,23
 286 571 286 571 331 593.5 c 128,-1,24
 376 616 376 616 426 616 c 0,25,26
 461 616 461 616 487.5 604 c 128,-1,27
 514 592 514 592 533 574 c 128,-1,28
 552 556 552 556 564 534.5 c 128,-1,29
 576 513 576 513 583 495 c 1,30,-1
 682 564 l 1,31,32
 656 634 656 634 598 674.5 c 128,-1,33
 540 715 540 715 453 715 c 0,34,35
 380 715 380 715 313 685 c 128,-1,36
 246 655 246 655 192.5 605.5 c 128,-1,37
 139 556 139 556 101.5 491.5 c 128,-1,38
 64 427 64 427 49 357 c 0,39,40
 34 288 34 288 44 222.5 c 128,-1,41
 54 157 54 157 86.5 106.5 c 128,-1,42
 119 56 119 56 172.5 25.5 c 128,-1,43
 226 -5 226 -5 300 -5 c 0,0,1
EndSplineSet
Substitution2: "'ss11' Style Set 11 lookup 42 subtable" G.ss11
Substitution2: "'aalt' Access All Alternates lookup 0 subtable" G.ss11
EndChar

StartChar: H
Encoding: 72 72 43
Width: 715
GlyphClass: 1
Flags: W
LayerCount: 2
Fore
SplineSet
15 0 m 1,0,-1
 126 0 l 1,1,-1
 193 314 l 1,2,-1
 528 314 l 1,3,-1
 461 0 l 1,4,-1
 572 0 l 1,5,-1
 723 710 l 1,6,-1
 612 710 l 1,7,-1
 549 412 l 1,8,-1
 214 412 l 1,9,-1
 277 710 l 1,10,-1
 166 710 l 1,11,-1
 15 0 l 1,0,-1
EndSplineSet
EndChar

StartChar: I
Encoding: 73 73 44
Width: 270
GlyphClass: 1
Flags: W
LayerCount: 2
Fore
SplineSet
15 0 m 1,0,-1
 126 0 l 1,1,-1
 277 709 l 1,2,-1
 166 709 l 1,3,-1
 15 0 l 1,0,-1
EndSplineSet
EndChar

StartChar: J
Encoding: 74 74 45
Width: 539
GlyphClass: 2
Flags: W
LayerCount: 2
Fore
SplineSet
93 184 m 1,0,1
 99 167 99 167 107 150.5 c 128,-1,2
 115 134 115 134 126.5 120.5 c 128,-1,3
 138 107 138 107 153.5 99 c 128,-1,4
 169 91 169 91 189 91 c 0,5,6
 223 91 223 91 249 105 c 128,-1,7
 275 119 275 119 294.5 141.5 c 128,-1,8
 314 164 314 164 326 193 c 128,-1,9
 338 222 338 222 344 251 c 2,10,-1
 433 710 l 1,11,-1
 540 710 l 1,12,-1
 443 223 l 2,13,14
 433 173 433 173 409 131 c 128,-1,15
 385 89 385 89 350 57.5 c 128,-1,16
 315 26 315 26 270 8.5 c 128,-1,17
 225 -9 225 -9 173 -9 c 0,18,19
 138 -9 138 -9 109 2 c 128,-1,20
 80 13 80 13 57 33 c 128,-1,21
 34 53 34 53 18.5 80.5 c 128,-1,22
 3 108 3 108 -5 141 c 1,23,-1
 93 184 l 1,0,1
EndSplineSet
EndChar

StartChar: K
Encoding: 75 75 46
Width: 633
GlyphClass: 1
Flags: W
LayerCount: 2
Fore
SplineSet
15 0 m 1,0,-1
 126 0 l 1,1,-1
 172 215 l 1,2,-1
 296 328 l 1,3,-1
 451 0 l 1,4,-1
 575 0 l 1,5,-1
 380 396 l 1,6,-1
 711 710 l 1,7,-1
 588 710 l 1,8,-1
 199 342 l 1,9,-1
 277 709 l 1,10,-1
 166 709 l 1,11,-1
 15 0 l 1,0,-1
EndSplineSet
EndChar

StartChar: L
Encoding: 76 76 47
Width: 560
GlyphClass: 1
Flags: W
LayerCount: 2
Fore
SplineSet
15 0 m 1,0,-1
 485 0 l 1,1,-1
 505 98 l 1,2,-1
 147 98 l 1,3,-1
 277 710 l 1,4,-1
 166 710 l 1,5,-1
 15 0 l 1,0,-1
EndSplineSet
EndChar

StartChar: M
Encoding: 77 77 48
Width: 834
GlyphClass: 1
Flags: W
LayerCount: 2
Fore
SplineSet
15 0 m 1,0,-1
 126 0 l 1,1,-1
 236 514 l 1,2,-1
 349 125 l 1,3,-1
 411 125 l 1,4,-1
 689 514 l 1,5,-1
 580 0 l 1,6,-1
 691 0 l 1,7,-1
 842 710 l 1,8,-1
 724 710 l 1,9,-1
 412 274 l 1,10,-1
 285 710 l 1,11,-1
 166 710 l 1,12,-1
 15 0 l 1,0,-1
EndSplineSet
EndChar

StartChar: N
Encoding: 78 78 49
Width: 736
GlyphClass: 1
Flags: W
LayerCount: 2
Fore
SplineSet
15 0 m 1,0,-1
 126 0 l 1,1,-1
 233 503 l 1,2,-1
 502 0 l 1,3,-1
 593 0 l 1,4,-1
 744 709 l 1,5,-1
 633 709 l 1,6,-1
 524 195 l 1,7,-1
 253 710 l 1,8,-1
 166 710 l 1,9,-1
 15 0 l 1,0,-1
EndSplineSet
EndChar

StartChar: O
Encoding: 79 79 50
Width: 724
GlyphClass: 1
Flags: W
LayerCount: 2
Fore
SplineSet
297 -5 m 0,0,1
 376 -5 376 -5 450 31 c 128,-1,2
 524 67 524 67 581 126.5 c 128,-1,3
 638 186 638 186 672 262 c 128,-1,4
 706 338 706 338 706 419 c 0,5,6
 706 476 706 476 689 529.5 c 128,-1,7
 672 583 672 583 640 624 c 128,-1,8
 608 665 608 665 560.5 690 c 128,-1,9
 513 715 513 715 452 715 c 0,10,11
 372 715 372 715 297.5 679 c 128,-1,12
 223 643 223 643 166 583 c 128,-1,13
 109 523 109 523 75 446.5 c 128,-1,14
 41 370 41 370 41 289 c 0,15,16
 41 232 41 232 57.5 178.5 c 128,-1,17
 74 125 74 125 107 84.5 c 128,-1,18
 140 44 140 44 187.5 19.5 c 128,-1,19
 235 -5 235 -5 297 -5 c 0,0,1
319 94 m 0,20,21
 278 94 278 94 247.5 111 c 128,-1,22
 217 128 217 128 196 155.5 c 128,-1,23
 175 183 175 183 164.5 220 c 128,-1,24
 154 257 154 257 154 298 c 0,25,26
 154 354 154 354 175 410.5 c 128,-1,27
 196 467 196 467 233 512.5 c 128,-1,28
 270 558 270 558 320.5 586.5 c 128,-1,29
 371 615 371 615 429 615 c 0,30,31
 468 615 468 615 499 598 c 128,-1,32
 530 581 530 581 550.5 553.5 c 128,-1,33
 571 526 571 526 581.5 489 c 128,-1,34
 592 452 592 452 592 411 c 0,35,36
 592 356 592 356 571.5 299.5 c 128,-1,37
 551 243 551 243 514.5 197.5 c 128,-1,38
 478 152 478 152 428 123 c 128,-1,39
 378 94 378 94 319 94 c 0,20,21
EndSplineSet
Substitution2: "Single Substitution lookup 46 subtable" ordmasculine
Substitution2: "'aalt' Access All Alternates lookup 0 subtable" ordmasculine
EndChar

StartChar: P
Encoding: 80 80 51
Width: 601
GlyphClass: 1
Flags: W
LayerCount: 2
Fore
SplineSet
15 0 m 1,0,-1
 126 0 l 1,1,-1
 179 248 l 1,2,-1
 357 248 l 2,3,4
 410 248 410 248 457 271.5 c 128,-1,5
 504 295 504 295 539.5 333.5 c 128,-1,6
 575 372 575 372 595.5 421 c 128,-1,7
 616 470 616 470 616 519 c 0,8,9
 616 555 616 555 605 589.5 c 128,-1,10
 594 624 594 624 572.5 650.5 c 128,-1,11
 551 677 551 677 520 693.5 c 128,-1,12
 489 710 489 710 450 710 c 2,13,-1
 166 710 l 1,14,-1
 15 0 l 1,0,-1
200 346 m 1,15,-1
 257 612 l 1,16,-1
 422 612 l 2,17,18
 439 612 439 612 454 604.5 c 128,-1,19
 469 597 469 597 479.5 583.5 c 128,-1,20
 490 570 490 570 496.5 551 c 128,-1,21
 503 532 503 532 503 509 c 0,22,23
 503 477 503 477 492 447 c 128,-1,24
 481 417 481 417 463 394.5 c 128,-1,25
 445 372 445 372 421 359 c 128,-1,26
 397 346 397 346 371 346 c 2,27,-1
 200 346 l 1,15,-1
EndSplineSet
EndChar

StartChar: Q
Encoding: 81 81 52
Width: 724
GlyphClass: 1
Flags: W
LayerCount: 2
Fore
SplineSet
297 -5 m 0,0,1
 376 -5 376 -5 450 31 c 128,-1,2
 524 67 524 67 581 126.5 c 128,-1,3
 638 186 638 186 672 262 c 128,-1,4
 706 338 706 338 706 419 c 0,5,6
 706 476 706 476 689 529.5 c 128,-1,7
 672 583 672 583 640 624 c 128,-1,8
 608 665 608 665 560.5 690 c 128,-1,9
 513 715 513 715 452 715 c 0,10,11
 372 715 372 715 297.5 679 c 128,-1,12
 223 643 223 643 166 583 c 128,-1,13
 109 523 109 523 75 446.5 c 128,-1,14
 41 370 41 370 41 289 c 0,15,16
 41 232 41 232 57.5 178.5 c 128,-1,17
 74 125 74 125 107 84.5 c 128,-1,18
 140 44 140 44 187.5 19.5 c 128,-1,19
 235 -5 235 -5 297 -5 c 0,0,1
319 94 m 0,20,21
 278 94 278 94 247.5 111 c 128,-1,22
 217 128 217 128 196 155.5 c 128,-1,23
 175 183 175 183 164.5 220 c 128,-1,24
 154 257 154 257 154 298 c 0,25,26
 154 354 154 354 175 410.5 c 128,-1,27
 196 467 196 467 233 512.5 c 128,-1,28
 270 558 270 558 320.5 586.5 c 128,-1,29
 371 615 371 615 429 615 c 0,30,31
 468 615 468 615 499 598 c 128,-1,32
 530 581 530 581 550.5 553.5 c 128,-1,33
 571 526 571 526 581.5 489 c 128,-1,34
 592 452 592 452 592 411 c 0,35,36
 592 356 592 356 571.5 299.5 c 128,-1,37
 551 243 551 243 514.5 197.5 c 128,-1,38
 478 152 478 152 428 123 c 128,-1,39
 378 94 378 94 319 94 c 0,20,21
587 -14 m 1,40,-1
 660 48 l 1,41,-1
 430 326 l 1,42,-1
 357 264 l 1,43,-1
 587 -14 l 1,40,-1
EndSplineSet
EndChar

StartChar: R
Encoding: 82 82 53
Width: 637
GlyphClass: 1
Flags: W
LayerCount: 2
Fore
SplineSet
126 0 m 1,0,-1
 179 248 l 1,1,-1
 330 248 l 1,2,-1
 422 0 l 1,3,-1
 548 0 l 1,4,-1
 447 270 l 1,5,6
 485 282 485 282 518 307.5 c 128,-1,7
 551 333 551 333 575 366 c 128,-1,8
 599 399 599 399 613 438.5 c 128,-1,9
 627 478 627 478 627 519 c 0,10,11
 627 555 627 555 615.5 589.5 c 128,-1,12
 604 624 604 624 582.5 650.5 c 128,-1,13
 561 677 561 677 530.5 693.5 c 128,-1,14
 500 710 500 710 461 710 c 2,15,-1
 166 710 l 1,16,-1
 15 0 l 1,17,-1
 126 0 l 1,0,-1
200 346 m 1,18,-1
 257 612 l 1,19,-1
 433 612 l 2,20,21
 450 612 450 612 464.5 603.5 c 128,-1,22
 479 595 479 595 489.5 581 c 128,-1,23
 500 567 500 567 506 547.5 c 128,-1,24
 512 528 512 528 512 507 c 0,25,26
 512 476 512 476 501.5 447 c 128,-1,27
 491 418 491 418 473 395.5 c 128,-1,28
 455 373 455 373 431.5 359.5 c 128,-1,29
 408 346 408 346 382 346 c 2,30,-1
 200 346 l 1,18,-1
EndSplineSet
EndChar

StartChar: S
Encoding: 83 83 54
Width: 590
GlyphClass: 1
Flags: W
LayerCount: 2
Fore
SplineSet
243 -7 m 0,0,1
 301 -7 301 -7 354.5 7 c 128,-1,2
 408 21 408 21 449 51 c 128,-1,3
 490 81 490 81 514.5 126.5 c 128,-1,4
 539 172 539 172 539 236 c 0,5,6
 539 273 539 273 526 299 c 128,-1,7
 513 325 513 325 489 344 c 128,-1,8
 465 363 465 363 431.5 377 c 128,-1,9
 398 391 398 391 356 403 c 0,10,11
 322 412 322 412 295 420.5 c 128,-1,12
 268 429 268 429 250 440 c 128,-1,13
 232 451 232 451 223 465 c 128,-1,14
 214 479 214 479 214 499 c 0,15,16
 214 525 214 525 223 546.5 c 128,-1,17
 232 568 232 568 251 583.5 c 128,-1,18
 270 599 270 599 298 608 c 128,-1,19
 326 617 326 617 365 617 c 0,20,21
 395 617 395 617 422.5 609.5 c 128,-1,22
 450 602 450 602 472 591 c 128,-1,23
 494 580 494 580 509.5 568 c 128,-1,24
 525 556 525 556 531 544 c 1,25,-1
 600 635 l 1,26,27
 583 652 583 652 560.5 666.5 c 128,-1,28
 538 681 538 681 511 692 c 128,-1,29
 484 703 484 703 453.5 709 c 128,-1,30
 423 715 423 715 388 715 c 0,31,32
 329 715 329 715 275 697.5 c 128,-1,33
 221 680 221 680 180.5 648 c 128,-1,34
 140 616 140 616 116 569 c 128,-1,35
 92 522 92 522 92 462 c 0,36,37
 92 431 92 431 103 407.5 c 128,-1,38
 114 384 114 384 134.5 366 c 128,-1,39
 155 348 155 348 185.5 334.5 c 128,-1,40
 216 321 216 321 256 310 c 0,41,42
 292 300 292 300 321.5 290 c 128,-1,43
 351 280 351 280 372 267.5 c 128,-1,44
 393 255 393 255 404 239.5 c 128,-1,45
 415 224 415 224 415 202 c 0,46,47
 415 176 415 176 405 156 c 128,-1,48
 395 136 395 136 376 121.5 c 128,-1,49
 357 107 357 107 329.5 100 c 128,-1,50
 302 93 302 93 266 93 c 0,51,52
 227 93 227 93 192.5 102 c 128,-1,53
 158 111 158 111 130.5 125 c 128,-1,54
 103 139 103 139 83.5 155 c 128,-1,55
 64 171 64 171 55 184 c 1,56,-1
 -16 89 l 1,57,58
 8 66 8 66 37 48 c 128,-1,59
 66 30 66 30 99 17.5 c 128,-1,60
 132 5 132 5 168 -1 c 128,-1,61
 204 -7 204 -7 243 -7 c 0,0,1
EndSplineSet
EndChar

StartChar: T
Encoding: 84 84 55
Width: 589
GlyphClass: 1
Flags: W
LayerCount: 2
Fore
SplineSet
174 0 m 1,0,-1
 285 0 l 1,1,-1
 415 612 l 1,2,-1
 638 612 l 1,3,-1
 659 710 l 1,4,-1
 102 710 l 1,5,-1
 81 612 l 1,6,-1
 304 612 l 1,7,-1
 174 0 l 1,0,-1
EndSplineSet
EndChar

StartChar: U
Encoding: 85 85 56
Width: 723
GlyphClass: 1
Flags: W
LayerCount: 2
Fore
SplineSet
297 -5 m 0,0,1
 375 -5 375 -5 436 23 c 128,-1,2
 497 51 497 51 542.5 100 c 128,-1,3
 588 149 588 149 618 213 c 128,-1,4
 648 277 648 277 663 350 c 2,5,-1
 740 710 l 1,6,-1
 629 710 l 1,7,-1
 552 350 l 2,8,9
 542 302 542 302 523.5 256 c 128,-1,10
 505 210 505 210 476.5 174.5 c 128,-1,11
 448 139 448 139 408.5 116.5 c 128,-1,12
 369 94 369 94 317 94 c 0,13,14
 279 94 279 94 252.5 106 c 128,-1,15
 226 118 226 118 210 140 c 128,-1,16
 194 162 194 162 187 190.5 c 128,-1,17
 180 219 180 219 180 252 c 0,18,19
 180 276 180 276 182.5 300 c 128,-1,20
 185 324 185 324 191 350 c 2,21,-1
 267 710 l 1,22,-1
 156 710 l 1,23,-1
 80 350 l 2,24,25
 73 319 73 319 69.5 290.5 c 128,-1,26
 66 262 66 262 66 233 c 0,27,28
 66 184 66 184 78.5 140 c 128,-1,29
 91 96 91 96 118.5 64 c 128,-1,30
 146 32 146 32 189.5 13.5 c 128,-1,31
 233 -5 233 -5 297 -5 c 0,0,1
EndSplineSet
EndChar

StartChar: V
Encoding: 86 86 57
Width: 648
GlyphClass: 1
Flags: W
LayerCount: 2
Fore
SplineSet
210 0 m 1,0,-1
 305 0 l 1,1,-1
 724 710 l 1,2,-1
 607 710 l 1,3,-1
 287 139 l 1,4,-1
 208 710 l 1,5,-1
 91 710 l 1,6,-1
 210 0 l 1,0,-1
EndSplineSet
EndChar

StartChar: W
Encoding: 87 87 58
Width: 1017
GlyphClass: 1
Flags: W
LayerCount: 2
Fore
SplineSet
156 0 m 1,0,-1
 264 0 l 1,1,-1
 553 536 l 1,2,-1
 622 0 l 1,3,-1
 730 0 l 1,4,-1
 1086 710 l 1,5,-1
 969 710 l 1,6,-1
 698 155 l 1,7,-1
 645 710 l 1,8,-1
 531 710 l 1,9,-1
 252 155 l 1,10,-1
 212 710 l 1,11,-1
 95 710 l 1,12,-1
 156 0 l 1,0,-1
EndSplineSet
Substitution2: "'ss09' Style Set 9 lookup 40 subtable" W.ss09
Substitution2: "'aalt' Access All Alternates lookup 0 subtable" W.ss09
EndChar

StartChar: X
Encoding: 88 88 59
Width: 614
GlyphClass: 1
Flags: W
LayerCount: 2
Fore
SplineSet
-55 0 m 1,0,-1
 67 0 l 1,1,-1
 301 272 l 1,2,-1
 420 0 l 1,3,-1
 541 0 l 1,4,-1
 377 350 l 1,5,-1
 700 710 l 1,6,-1
 579 710 l 1,7,-1
 335 428 l 1,8,-1
 210 710 l 1,9,-1
 88 710 l 1,10,-1
 258 350 l 1,11,-1
 -55 0 l 1,0,-1
EndSplineSet
EndChar

StartChar: Y
Encoding: 89 89 60
Width: 615
GlyphClass: 1
Flags: W
LayerCount: 2
Fore
SplineSet
183 0 m 1,0,-1
 294 0 l 1,1,-1
 348 254 l 1,2,-1
 696 710 l 1,3,-1
 575 710 l 1,4,-1
 314 353 l 1,5,-1
 207 710 l 1,6,-1
 86 710 l 1,7,-1
 238 256 l 1,8,-1
 183 0 l 1,0,-1
EndSplineSet
EndChar

StartChar: Z
Encoding: 90 90 61
Width: 599
GlyphClass: 1
Flags: W
LayerCount: 2
Fore
SplineSet
-35 0 m 1,0,-1
 500 0 l 1,1,-1
 521 98 l 1,2,-1
 126 98 l 1,3,-1
 632 625 l 1,4,-1
 650 710 l 1,5,-1
 127 710 l 1,6,-1
 106 612 l 1,7,-1
 500 612 l 1,8,-1
 -16 85 l 1,9,-1
 -35 0 l 1,0,-1
EndSplineSet
EndChar

StartChar: bracketleft
Encoding: 91 91 62
Width: 281
GlyphClass: 1
Flags: W
LayerCount: 2
Fore
SplineSet
165 -40 m 1,0,-1
 183 48 l 1,1,-1
 125 48 l 1,2,-1
 253 652 l 1,3,-1
 312 652 l 1,4,-1
 330 740 l 1,5,-1
 172 740 l 1,6,-1
 6 -40 l 1,7,-1
 165 -40 l 1,0,-1
EndSplineSet
EndChar

StartChar: backslash
Encoding: 92 92 63
Width: 577
GlyphClass: 1
Flags: W
LayerCount: 2
Fore
SplineSet
108 710 m 1,0,-1
 371 0 l 1,1,-1
 491 0 l 1,2,-1
 229 710 l 1,3,-1
 108 710 l 1,0,-1
EndSplineSet
EndChar

StartChar: bracketright
Encoding: 93 93 64
Width: 281
GlyphClass: 1
Flags: W
LayerCount: 2
Fore
SplineSet
131 -40 m 1,0,-1
 296 740 l 1,1,-1
 138 740 l 1,2,-1
 119 652 l 1,3,-1
 177 652 l 1,4,-1
 49 48 l 1,5,-1
 -9 48 l 1,6,-1
 -28 -40 l 1,7,-1
 131 -40 l 1,0,-1
EndSplineSet
EndChar

StartChar: asciicircum
Encoding: 94 94 65
Width: 571
GlyphClass: 1
Flags: W
LayerCount: 2
Fore
SplineSet
138 303 m 1,0,-1
 293 616 l 1,1,-1
 445 303 l 1,2,-1
 535 303 l 1,3,-1
 338 710 l 1,4,-1
 248 710 l 1,5,-1
 50 303 l 1,6,-1
 138 303 l 1,0,-1
EndSplineSet
EndChar

StartChar: underscore
Encoding: 95 95 66
Width: 471
GlyphClass: 1
Flags: W
LayerCount: 2
Fore
SplineSet
326 -98 m 1,0,-1
 347 0 l 1,1,-1
 -5 0 l 1,2,-1
 -26 -98 l 1,3,-1
 326 -98 l 1,0,-1
EndSplineSet
EndChar

StartChar: a
Encoding: 97 97 68
Width: 607
GlyphClass: 1
Flags: W
LayerCount: 2
Fore
SplineSet
204 -10 m 0,0,1
 260 -10 260 -10 307 17.5 c 128,-1,2
 354 45 354 45 390 93 c 1,3,-1
 370 0 l 1,4,-1
 478 0 l 1,5,-1
 588 517 l 1,6,-1
 480 517 l 1,7,-1
 459 423 l 1,8,9
 445 472 445 472 406 502 c 128,-1,10
 367 532 367 532 309 532 c 0,11,12
 254 532 254 532 201.5 505.5 c 128,-1,13
 149 479 149 479 108.5 434 c 128,-1,14
 68 389 68 389 43.5 330 c 128,-1,15
 19 271 19 271 19 205 c 0,16,17
 19 161 19 161 31.5 121.5 c 128,-1,18
 44 82 44 82 67.5 52.5 c 128,-1,19
 91 23 91 23 125.5 6.5 c 128,-1,20
 160 -10 160 -10 204 -10 c 0,0,1
251 83 m 0,21,22
 224 83 224 83 202 93.5 c 128,-1,23
 180 104 180 104 165 123 c 128,-1,24
 150 142 150 142 141.5 167.5 c 128,-1,25
 133 193 133 193 133 223 c 0,26,27
 133 262 133 262 148.5 300.5 c 128,-1,28
 164 339 164 339 190 370 c 128,-1,29
 216 401 216 401 250.5 420 c 128,-1,30
 285 439 285 439 322 439 c 0,31,32
 345 439 345 439 365 430.5 c 128,-1,33
 385 422 385 422 400 406.5 c 128,-1,34
 415 391 415 391 425 370 c 128,-1,35
 435 349 435 349 439 324 c 1,36,-1
 409 186 l 1,37,38
 395 164 395 164 377 145 c 128,-1,39
 359 126 359 126 339 112.5 c 128,-1,40
 319 99 319 99 296.5 91 c 128,-1,41
 274 83 274 83 251 83 c 0,21,22
EndSplineSet
Substitution2: "Single Substitution lookup 46 subtable" ordfeminine
Substitution2: "'ss02' Style Set 2 lookup 33 subtable" a.ss02
Substitution2: "'ss01' Style Set 1 lookup 32 subtable" a.ss01
Substitution2: "'salt' Stylistic Alternatives lookup 31 subtable" a.ss01
AlternateSubs2: "'aalt' Access All Alternates lookup 1 subtable" ordfeminine a.ss01 a.ss02
EndChar

StartChar: b
Encoding: 98 98 69
Width: 605
GlyphClass: 1
Flags: W
LayerCount: 2
Fore
SplineSet
271 -10 m 0,0,1
 328 -10 328 -10 381.5 16.5 c 128,-1,2
 435 43 435 43 476.5 88 c 128,-1,3
 518 133 518 133 543.5 193 c 128,-1,4
 569 253 569 253 569 319 c 0,5,6
 569 362 569 362 558 400.5 c 128,-1,7
 547 439 547 439 525 468.5 c 128,-1,8
 503 498 503 498 470.5 515 c 128,-1,9
 438 532 438 532 396 532 c 0,10,11
 340 532 340 532 289.5 502.5 c 128,-1,12
 239 473 239 473 199 424 c 1,13,-1
 264 730 l 1,14,-1
 156 730 l 1,15,-1
 1 0 l 1,16,-1
 96 0 l 1,17,-1
 116 95 l 1,18,19
 124 71 124 71 138 52 c 128,-1,20
 152 33 152 33 171.5 19 c 128,-1,21
 191 5 191 5 216 -2.5 c 128,-1,22
 241 -10 241 -10 271 -10 c 0,0,1
265 83 m 0,23,24
 242 83 242 83 221 91 c 128,-1,25
 200 99 200 99 184.5 113 c 128,-1,26
 169 127 169 127 159.5 146 c 128,-1,27
 150 165 150 165 149 186 c 1,28,-1
 179 326 l 1,29,30
 193 349 193 349 212 369.5 c 128,-1,31
 231 390 231 390 252.5 405.5 c 128,-1,32
 274 421 274 421 297 430 c 128,-1,33
 320 439 320 439 343 439 c 0,34,35
 370 439 370 439 390.5 428 c 128,-1,36
 411 417 411 417 425.5 397 c 128,-1,37
 440 377 440 377 447 352 c 128,-1,38
 454 327 454 327 454 299 c 0,39,40
 454 257 454 257 438.5 218 c 128,-1,41
 423 179 423 179 396.5 149 c 128,-1,42
 370 119 370 119 335.5 101 c 128,-1,43
 301 83 301 83 265 83 c 0,23,24
EndSplineSet
EndChar

StartChar: c
Encoding: 99 99 70
Width: 536
GlyphClass: 1
Flags: W
LayerCount: 2
Fore
SplineSet
228 -10 m 0,0,1
 267 -10 267 -10 303.5 0 c 128,-1,2
 340 10 340 10 371.5 27.5 c 128,-1,3
 403 45 403 45 430 70 c 128,-1,4
 457 95 457 95 475 123 c 1,5,-1
 375 155 l 1,6,7
 366 141 366 141 351.5 127.5 c 128,-1,8
 337 114 337 114 320 104 c 128,-1,9
 303 94 303 94 283 88.5 c 128,-1,10
 263 83 263 83 244 83 c 0,11,12
 219 83 219 83 198 93 c 128,-1,13
 177 103 177 103 162 122 c 128,-1,14
 147 141 147 141 139 167 c 128,-1,15
 131 193 131 193 131 224 c 0,16,17
 131 269 131 269 147 308 c 128,-1,18
 163 347 163 347 189.5 376 c 128,-1,19
 216 405 216 405 250 422 c 128,-1,20
 284 439 284 439 320 439 c 0,21,22
 357 439 357 439 382 421 c 128,-1,23
 407 403 407 403 418 369 c 1,24,-1
 531 402 l 1,25,26
 515 461 515 461 467 496.5 c 128,-1,27
 419 532 419 532 339 532 c 0,28,29
 270 532 270 532 211.5 505 c 128,-1,30
 153 478 153 478 110 433.5 c 128,-1,31
 67 389 67 389 43 331.5 c 128,-1,32
 19 274 19 274 19 211 c 0,33,34
 19 165 19 165 32.5 125 c 128,-1,35
 46 85 46 85 72.5 55 c 128,-1,36
 99 25 99 25 138 7.5 c 128,-1,37
 177 -10 177 -10 228 -10 c 0,0,1
EndSplineSet
EndChar

StartChar: d
Encoding: 100 100 71
Width: 605
GlyphClass: 1
Flags: W
LayerCount: 2
Fore
SplineSet
205 -10 m 0,0,1
 231 -10 231 -10 256 -3.5 c 128,-1,2
 281 3 281 3 304.5 16 c 128,-1,3
 328 29 328 29 348.5 47 c 128,-1,4
 369 65 369 65 387 87 c 1,5,-1
 368 0 l 1,6,-1
 477 0 l 1,7,-1
 632 730 l 1,8,-1
 523 730 l 1,9,-1
 458 424 l 1,10,11
 449 447 449 447 435 467 c 128,-1,12
 421 487 421 487 402 501 c 128,-1,13
 383 515 383 515 359 523.5 c 128,-1,14
 335 532 335 532 306 532 c 0,15,16
 250 532 250 532 198 505 c 128,-1,17
 146 478 146 478 106.5 433 c 128,-1,18
 67 388 67 388 43 329 c 128,-1,19
 19 270 19 270 19 206 c 0,20,21
 19 161 19 161 31.5 122 c 128,-1,22
 44 83 44 83 68 53.5 c 128,-1,23
 92 24 92 24 126.5 7 c 128,-1,24
 161 -10 161 -10 205 -10 c 0,0,1
252 83 m 0,25,26
 224 83 224 83 202.5 93.5 c 128,-1,27
 181 104 181 104 165.5 123 c 128,-1,28
 150 142 150 142 141.5 168 c 128,-1,29
 133 194 133 194 133 224 c 0,30,31
 133 263 133 263 148.5 301.5 c 128,-1,32
 164 340 164 340 189.5 370.5 c 128,-1,33
 215 401 215 401 249 420 c 128,-1,34
 283 439 283 439 320 439 c 0,35,36
 341 439 341 439 361 430.5 c 128,-1,37
 381 422 381 422 397 406.5 c 128,-1,38
 413 391 413 391 423.5 370.5 c 128,-1,39
 434 350 434 350 437 326 c 1,40,-1
 408 187 l 1,41,42
 399 165 399 165 380.5 146 c 128,-1,43
 362 127 362 127 340.5 113 c 128,-1,44
 319 99 319 99 296 91 c 128,-1,45
 273 83 273 83 252 83 c 0,25,26
EndSplineSet
Substitution2: "'ss03' Style Set 3 lookup 34 subtable" d.ss03
Substitution2: "'aalt' Access All Alternates lookup 0 subtable" d.ss03
EndChar

StartChar: e
Encoding: 101 101 72
Width: 544
GlyphClass: 1
Flags: W
LayerCount: 2
Fore
SplineSet
229 -10 m 0,0,1
 267 -10 267 -10 303.5 0 c 128,-1,2
 340 10 340 10 373 28 c 128,-1,3
 406 46 406 46 434 70 c 128,-1,4
 462 94 462 94 481 124 c 1,5,-1
 394 150 l 1,6,7
 383 132 383 132 366.5 117 c 128,-1,8
 350 102 350 102 330.5 91.5 c 128,-1,9
 311 81 311 81 290 75.5 c 128,-1,10
 269 70 269 70 247 70 c 0,11,12
 218 70 218 70 195.5 81 c 128,-1,13
 173 92 173 92 159 111 c 128,-1,14
 145 130 145 130 138 155 c 128,-1,15
 131 180 131 180 131 209 c 0,16,17
 131 250 131 250 143 292.5 c 128,-1,18
 155 335 155 335 180 370.5 c 128,-1,19
 205 406 205 406 242.5 429 c 128,-1,20
 280 452 280 452 330 452 c 0,21,22
 351 452 351 452 367.5 448 c 128,-1,23
 384 444 384 444 396.5 435.5 c 128,-1,24
 409 427 409 427 415 414.5 c 128,-1,25
 421 402 421 402 421 385 c 0,26,27
 421 365 421 365 411.5 348.5 c 128,-1,28
 402 332 402 332 379.5 320 c 128,-1,29
 357 308 357 308 321 302 c 128,-1,30
 285 296 285 296 231 296 c 0,31,32
 205 296 205 296 176.5 297.5 c 128,-1,33
 148 299 148 299 117 302 c 1,34,-1
 93 231 l 1,35,36
 131 227 131 227 165.5 225.5 c 128,-1,37
 200 224 200 224 229 224 c 0,38,39
 378 224 378 224 450 265.5 c 128,-1,40
 522 307 522 307 522 389 c 0,41,42
 522 424 522 424 508.5 451 c 128,-1,43
 495 478 495 478 471.5 495.5 c 128,-1,44
 448 513 448 513 415 522.5 c 128,-1,45
 382 532 382 532 342 532 c 0,46,47
 273 532 273 532 214 506 c 128,-1,48
 155 480 155 480 112 435.5 c 128,-1,49
 69 391 69 391 44.5 333 c 128,-1,50
 20 275 20 275 20 211 c 0,51,52
 20 164 20 164 34 123.5 c 128,-1,53
 48 83 48 83 75 53.5 c 128,-1,54
 102 24 102 24 141 7 c 128,-1,55
 180 -10 180 -10 229 -10 c 0,0,1
EndSplineSet
EndChar

StartChar: f
Encoding: 102 102 73
Width: 346
GlyphClass: 1
Flags: W
LayerCount: 2
Fore
SplineSet
-18 -212 m 1,0,-1
 91 -212 l 1,1,-1
 226 427 l 1,2,-1
 353 427 l 1,3,-1
 371 511 l 1,4,-1
 244 511 l 1,5,-1
 250 535 l 2,6,7
 262 590 262 590 287 619 c 128,-1,8
 312 648 312 648 349 648 c 0,9,10
 366 648 366 648 384.5 642.5 c 128,-1,11
 403 637 403 637 414 628 c 1,12,-1
 455 708 l 1,13,14
 431 723 431 723 403 731.5 c 128,-1,15
 375 740 375 740 345 740 c 0,16,17
 309 740 309 740 276 725.5 c 128,-1,18
 243 711 243 711 216 684 c 128,-1,19
 189 657 189 657 169.5 618 c 128,-1,20
 150 579 150 579 140 531 c 2,21,-1
 136 511 l 1,22,-1
 70 511 l 1,23,-1
 52 427 l 1,24,-1
 118 427 l 1,25,-1
 -18 -212 l 1,0,-1
EndSplineSet
EndChar

StartChar: g
Encoding: 103 103 74
Width: 604
GlyphClass: 1
Flags: W
LayerCount: 2
Fore
SplineSet
163 -223 m 0,0,1
 219 -223 219 -223 271.5 -207 c 128,-1,2
 324 -191 324 -191 366 -161 c 128,-1,3
 408 -131 408 -131 437 -87 c 128,-1,4
 466 -43 466 -43 479 14 c 2,5,-1
 587 523 l 1,6,-1
 492 523 l 1,7,-1
 471 424 l 1,8,9
 461 447 461 447 446.5 467.5 c 128,-1,10
 432 488 432 488 413 502 c 128,-1,11
 394 516 394 516 369.5 524 c 128,-1,12
 345 532 345 532 315 532 c 0,13,14
 256 532 256 532 202 505 c 128,-1,15
 148 478 148 478 107.5 433 c 128,-1,16
 67 388 67 388 43 329.5 c 128,-1,17
 19 271 19 271 19 206 c 0,18,19
 19 163 19 163 31 125 c 128,-1,20
 43 87 43 87 65.5 58 c 128,-1,21
 88 29 88 29 121 12 c 128,-1,22
 154 -5 154 -5 196 -5 c 0,23,24
 222 -5 222 -5 248.5 2 c 128,-1,25
 275 9 275 9 299.5 22 c 128,-1,26
 324 35 324 35 346.5 53 c 128,-1,27
 369 71 369 71 387 95 c 1,28,-1
 370 14 l 2,29,30
 362 -25 362 -25 343 -54 c 128,-1,31
 324 -83 324 -83 298.5 -102.5 c 128,-1,32
 273 -122 273 -122 242.5 -131 c 128,-1,33
 212 -140 212 -140 180 -140 c 0,34,35
 128 -140 128 -140 88.5 -118 c 128,-1,36
 49 -96 49 -96 29 -54 c 1,37,-1
 -43 -111 l 1,38,39
 -30 -137 -30 -137 -11.5 -157.5 c 128,-1,40
 7 -178 7 -178 31.5 -193 c 128,-1,41
 56 -208 56 -208 89 -215.5 c 128,-1,42
 122 -223 122 -223 163 -223 c 0,0,1
251 83 m 0,43,44
 223 83 223 83 201.5 94 c 128,-1,45
 180 105 180 105 164.5 124 c 128,-1,46
 149 143 149 143 140.5 168.5 c 128,-1,47
 132 194 132 194 132 223 c 0,48,49
 132 262 132 262 146.5 300 c 128,-1,50
 161 338 161 338 186.5 369 c 128,-1,51
 212 400 212 400 246 419.5 c 128,-1,52
 280 439 280 439 319 439 c 0,53,54
 340 439 340 439 360 431 c 128,-1,55
 380 423 380 423 395.5 407.5 c 128,-1,56
 411 392 411 392 422 371.5 c 128,-1,57
 433 351 433 351 437 326 c 1,58,-1
 407 187 l 1,59,60
 397 167 397 167 380 148 c 128,-1,61
 363 129 363 129 342 114.5 c 128,-1,62
 321 100 321 100 297.5 91.5 c 128,-1,63
 274 83 274 83 251 83 c 0,43,44
EndSplineSet
EndChar

StartChar: h
Encoding: 104 104 75
Width: 574
GlyphClass: 1
Flags: W
LayerCount: 2
Fore
SplineSet
1 0 m 1,0,-1
 109 0 l 1,1,-1
 175 311 l 1,2,3
 189 338 189 338 209 361 c 128,-1,4
 229 384 229 384 251.5 400.5 c 128,-1,5
 274 417 274 417 297 426.5 c 128,-1,6
 320 436 320 436 341 436 c 0,7,8
 375 436 375 436 393 415 c 128,-1,9
 411 394 411 394 411 353 c 0,10,11
 411 339 411 339 409 324.5 c 128,-1,12
 407 310 407 310 404 293 c 2,13,-1
 342 0 l 1,14,-1
 450 0 l 1,15,-1
 517 319 l 2,16,17
 522 341 522 341 524.5 363 c 128,-1,18
 527 385 527 385 527 405 c 0,19,20
 527 433 527 433 521 456 c 128,-1,21
 515 479 515 479 501 496 c 128,-1,22
 487 513 487 513 463.5 522.5 c 128,-1,23
 440 532 440 532 406 532 c 0,24,25
 377 532 377 532 348.5 524 c 128,-1,26
 320 516 320 516 293 501.5 c 128,-1,27
 266 487 266 487 242 465.5 c 128,-1,28
 218 444 218 444 198 418 c 1,29,-1
 264 730 l 1,30,-1
 156 730 l 1,31,-1
 1 0 l 1,0,-1
EndSplineSet
EndChar

StartChar: k
Encoding: 107 107 78
Width: 550
GlyphClass: 1
Flags: W
LayerCount: 2
Fore
SplineSet
354 0 m 1,0,-1
 470 0 l 1,1,-1
 362 213 l 1,2,3
 441 249 441 249 482 303.5 c 128,-1,4
 523 358 523 358 523 422 c 0,5,6
 523 473 523 473 497 502 c 128,-1,7
 471 531 471 531 417 531 c 0,8,9
 380 531 380 531 346 518 c 128,-1,10
 312 505 312 505 282 483 c 128,-1,11
 252 461 252 461 225.5 430.5 c 128,-1,12
 199 400 199 400 176 365 c 1,13,-1
 154 221 l 1,14,15
 169 266 169 266 194 306.5 c 128,-1,16
 219 347 219 347 249.5 377 c 128,-1,17
 280 407 280 407 313.5 424 c 128,-1,18
 347 441 347 441 379 441 c 0,19,20
 399 441 399 441 412 431 c 128,-1,21
 425 421 425 421 425 396 c 0,22,23
 425 350 425 350 377.5 308 c 128,-1,24
 330 266 330 266 240 247 c 1,25,-1
 354 0 l 1,0,-1
1 0 m 1,26,-1
 109 0 l 1,27,-1
 264 730 l 1,28,-1
 156 730 l 1,29,-1
 1 0 l 1,26,-1
EndSplineSet
EndChar

StartChar: l
Encoding: 108 108 79
Width: 293
GlyphClass: 1
Flags: W
LayerCount: 2
Fore
SplineSet
116 -8 m 0,0,1
 142 -8 142 -8 174.5 -1 c 128,-1,2
 207 6 207 6 233 16 c 1,3,-1
 237 101 l 1,4,5
 223 95 223 95 208 91.5 c 128,-1,6
 193 88 193 88 182 88 c 0,7,8
 161 88 161 88 150 99 c 128,-1,9
 139 110 139 110 139 130 c 0,10,11
 139 135 139 135 139.5 140 c 128,-1,12
 140 145 140 145 141 150 c 2,13,-1
 264 730 l 1,14,-1
 157 730 l 1,15,-1
 25 111 l 2,16,17
 23 102 23 102 22 93.5 c 128,-1,18
 21 85 21 85 21 76 c 0,19,20
 21 36 21 36 45.5 14 c 128,-1,21
 70 -8 70 -8 116 -8 c 0,0,1
EndSplineSet
Substitution2: "'ss05' Style Set 5 lookup 36 subtable" l.ss05
Substitution2: "'aalt' Access All Alternates lookup 0 subtable" l.ss05
EndChar

StartChar: m
Encoding: 109 109 80
Width: 887
GlyphClass: 1
Flags: W
LayerCount: 2
Fore
SplineSet
1 0 m 1,0,-1
 109 0 l 1,1,-1
 175 311 l 1,2,3
 189 339 189 339 207.5 361.5 c 128,-1,4
 226 384 226 384 246.5 400.5 c 128,-1,5
 267 417 267 417 289.5 426.5 c 128,-1,6
 312 436 312 436 334 436 c 0,7,8
 365 436 365 436 381.5 417 c 128,-1,9
 398 398 398 398 398 358 c 0,10,11
 398 344 398 344 396 328 c 128,-1,12
 394 312 394 312 390 293 c 2,13,-1
 328 0 l 1,14,-1
 436 0 l 1,15,-1
 501 310 l 1,16,17
 515 337 515 337 533.5 360.5 c 128,-1,18
 552 384 552 384 573 400.5 c 128,-1,19
 594 417 594 417 616.5 426.5 c 128,-1,20
 639 436 639 436 661 436 c 0,21,22
 691 436 691 436 708 417 c 128,-1,23
 725 398 725 398 725 357 c 0,24,25
 725 343 725 343 723 327 c 128,-1,26
 721 311 721 311 717 293 c 2,27,-1
 655 0 l 1,28,-1
 763 0 l 1,29,-1
 831 319 l 2,30,31
 837 345 837 345 839.5 367 c 128,-1,32
 842 389 842 389 842 407 c 0,33,34
 842 435 842 435 836 457.5 c 128,-1,35
 830 480 830 480 816.5 497 c 128,-1,36
 803 514 803 514 780.5 523 c 128,-1,37
 758 532 758 532 726 532 c 0,38,39
 696 532 696 532 668 524.5 c 128,-1,40
 640 517 640 517 613 501.5 c 128,-1,41
 586 486 586 486 562 463.5 c 128,-1,42
 538 441 538 441 516 412 c 1,43,44
 514 440 514 440 506.5 462.5 c 128,-1,45
 499 485 499 485 484 500 c 128,-1,46
 469 515 469 515 447 523.5 c 128,-1,47
 425 532 425 532 395 532 c 0,48,49
 337 532 337 532 282 501.5 c 128,-1,50
 227 471 227 471 188 418 c 1,51,-1
 210 523 l 1,52,-1
 112 523 l 1,53,-1
 1 0 l 1,0,-1
EndSplineSet
EndChar

StartChar: n
Encoding: 110 110 81
Width: 574
GlyphClass: 1
Flags: W
LayerCount: 2
Fore
SplineSet
1 0 m 1,0,-1
 109 0 l 1,1,-1
 175 311 l 1,2,3
 189 338 189 338 209 361 c 128,-1,4
 229 384 229 384 252.5 400.5 c 128,-1,5
 276 417 276 417 300.5 426.5 c 128,-1,6
 325 436 325 436 347 436 c 0,7,8
 378 436 378 436 395 417 c 128,-1,9
 412 398 412 398 412 358 c 0,10,11
 412 344 412 344 410 328 c 128,-1,12
 408 312 408 312 404 293 c 2,13,-1
 342 0 l 1,14,-1
 450 0 l 1,15,-1
 517 319 l 2,16,17
 522 343 522 343 525.5 365.5 c 128,-1,18
 529 388 529 388 529 410 c 0,19,20
 529 437 529 437 523 459 c 128,-1,21
 517 481 517 481 503.5 497.5 c 128,-1,22
 490 514 490 514 468 523 c 128,-1,23
 446 532 446 532 413 532 c 0,24,25
 381 532 381 532 349 524 c 128,-1,26
 317 516 317 516 287.5 501 c 128,-1,27
 258 486 258 486 232.5 464.5 c 128,-1,28
 207 443 207 443 188 418 c 1,29,-1
 210 523 l 1,30,-1
 112 523 l 1,31,-1
 1 0 l 1,0,-1
EndSplineSet
EndChar

StartChar: o
Encoding: 111 111 82
Width: 582
GlyphClass: 1
Flags: W
LayerCount: 2
Fore
SplineSet
231 -10 m 0,0,1
 298 -10 298 -10 355.5 15.5 c 128,-1,2
 413 41 413 41 455 85 c 128,-1,3
 497 129 497 129 521.5 187.5 c 128,-1,4
 546 246 546 246 546 311 c 0,5,6
 546 357 546 357 533 397 c 128,-1,7
 520 437 520 437 493.5 467 c 128,-1,8
 467 497 467 497 427 514.5 c 128,-1,9
 387 532 387 532 332 532 c 0,10,11
 266 532 266 532 209 506.5 c 128,-1,12
 152 481 152 481 109.5 436.5 c 128,-1,13
 67 392 67 392 43 334 c 128,-1,14
 19 276 19 276 19 211 c 0,15,16
 19 166 19 166 31.5 125.5 c 128,-1,17
 44 85 44 85 70.5 55 c 128,-1,18
 97 25 97 25 137 7.5 c 128,-1,19
 177 -10 177 -10 231 -10 c 0,0,1
249 83 m 0,20,21
 220 83 220 83 198 93 c 128,-1,22
 176 103 176 103 161.5 122 c 128,-1,23
 147 141 147 141 139 167 c 128,-1,24
 131 193 131 193 131 224 c 0,25,26
 131 270 131 270 146.5 309.5 c 128,-1,27
 162 349 162 349 188 378 c 128,-1,28
 214 407 214 407 247 423 c 128,-1,29
 280 439 280 439 315 439 c 0,30,31
 344 439 344 439 366 428.5 c 128,-1,32
 388 418 388 418 402.5 399 c 128,-1,33
 417 380 417 380 425 353.5 c 128,-1,34
 433 327 433 327 433 296 c 0,35,36
 433 250 433 250 417.5 211 c 128,-1,37
 402 172 402 172 376 143.5 c 128,-1,38
 350 115 350 115 317 99 c 128,-1,39
 284 83 284 83 249 83 c 0,20,21
EndSplineSet
Substitution2: "Single Substitution lookup 46 subtable" ordmasculine
Substitution2: "'aalt' Access All Alternates lookup 0 subtable" ordmasculine
EndChar

StartChar: p
Encoding: 112 112 83
Width: 605
GlyphClass: 1
Flags: W
LayerCount: 2
Fore
SplineSet
-44 -213 m 1,0,-1
 64 -213 l 1,1,-1
 130 98 l 1,2,3
 138 75 138 75 151.5 54.5 c 128,-1,4
 165 34 165 34 184.5 20 c 128,-1,5
 204 6 204 6 229 -2 c 128,-1,6
 254 -10 254 -10 283 -10 c 0,7,8
 340 -10 340 -10 392 17 c 128,-1,9
 444 44 444 44 483.5 89 c 128,-1,10
 523 134 523 134 546 193 c 128,-1,11
 569 252 569 252 569 315 c 0,12,13
 569 360 569 360 556.5 399 c 128,-1,14
 544 438 544 438 520 468 c 128,-1,15
 496 498 496 498 462 515 c 128,-1,16
 428 532 428 532 385 532 c 0,17,18
 357 532 357 532 329.5 525 c 128,-1,19
 302 518 302 518 277 504 c 128,-1,20
 252 490 252 490 229.5 471 c 128,-1,21
 207 452 207 452 187 429 c 1,22,-1
 207 523 l 1,23,-1
 112 523 l 1,24,-1
 -44 -213 l 1,0,-1
268 83 m 0,25,26
 245 83 245 83 225.5 91.5 c 128,-1,27
 206 100 206 100 191 115.5 c 128,-1,28
 176 131 176 131 165.5 152 c 128,-1,29
 155 173 155 173 151 197 c 1,30,-1
 180 335 l 1,31,32
 191 357 191 357 209 376 c 128,-1,33
 227 395 227 395 248.5 409 c 128,-1,34
 270 423 270 423 293 431 c 128,-1,35
 316 439 316 439 336 439 c 0,36,37
 363 439 363 439 385 428 c 128,-1,38
 407 417 407 417 423 398 c 128,-1,39
 439 379 439 379 447 353 c 128,-1,40
 455 327 455 327 455 298 c 0,41,42
 455 259 455 259 440 220.5 c 128,-1,43
 425 182 425 182 399 151 c 128,-1,44
 373 120 373 120 339.5 101.5 c 128,-1,45
 306 83 306 83 268 83 c 0,25,26
EndSplineSet
EndChar

StartChar: q
Encoding: 113 113 84
Width: 604
GlyphClass: 1
Flags: W
LayerCount: 2
Fore
SplineSet
322 -213 m 1,0,-1
 431 -213 l 1,1,-1
 587 523 l 1,2,-1
 491 523 l 1,3,-1
 471 427 l 1,4,5
 462 451 462 451 448 470 c 128,-1,6
 434 489 434 489 414.5 503 c 128,-1,7
 395 517 395 517 370.5 524.5 c 128,-1,8
 346 532 346 532 318 532 c 0,9,10
 260 532 260 532 206.5 505.5 c 128,-1,11
 153 479 153 479 111.5 434 c 128,-1,12
 70 389 70 389 44.5 329 c 128,-1,13
 19 269 19 269 19 202 c 0,14,15
 19 159 19 159 30.5 120 c 128,-1,16
 42 81 42 81 64 52 c 128,-1,17
 86 23 86 23 117.5 6.5 c 128,-1,18
 149 -10 149 -10 189 -10 c 0,19,20
 245 -10 245 -10 295.5 17.5 c 128,-1,21
 346 45 346 45 388 98 c 1,22,-1
 322 -213 l 1,0,-1
248 83 m 0,23,24
 220 83 220 83 199 93.5 c 128,-1,25
 178 104 178 104 163 123 c 128,-1,26
 148 142 148 142 140 167.5 c 128,-1,27
 132 193 132 193 132 221 c 0,28,29
 132 262 132 262 148 301 c 128,-1,30
 164 340 164 340 190.5 371 c 128,-1,31
 217 402 217 402 251.5 420.5 c 128,-1,32
 286 439 286 439 323 439 c 0,33,34
 346 439 346 439 366 429.5 c 128,-1,35
 386 420 386 420 401.5 404.5 c 128,-1,36
 417 389 417 389 426 367.5 c 128,-1,37
 435 346 435 346 436 322 c 1,38,-1
 406 183 l 1,39,40
 390 162 390 162 372 143.5 c 128,-1,41
 354 125 354 125 334 112 c 128,-1,42
 314 99 314 99 292.5 91 c 128,-1,43
 271 83 271 83 248 83 c 0,23,24
EndSplineSet
Substitution2: "'ss06' Style Set 6 lookup 37 subtable" q.ss06
Substitution2: "'aalt' Access All Alternates lookup 0 subtable" q.ss06
EndChar

StartChar: r
Encoding: 114 114 85
Width: 365
GlyphClass: 1
Flags: W
LayerCount: 2
Fore
SplineSet
1 0 m 1,0,-1
 109 0 l 1,1,-1
 177 320 l 1,2,3
 208 371 208 371 260.5 399 c 128,-1,4
 313 427 313 427 374 429 c 1,5,-1
 394 524 l 1,6,7
 389 525 389 525 383.5 525.5 c 128,-1,8
 378 526 378 526 368 526 c 0,9,10
 321 526 321 526 273 493 c 128,-1,11
 225 460 225 460 187 406 c 1,12,-1
 212 523 l 1,13,-1
 112 523 l 1,14,-1
 1 0 l 1,0,-1
EndSplineSet
EndChar

StartChar: s
Encoding: 115 115 86
Width: 477
GlyphClass: 1
Flags: W
LayerCount: 2
Fore
SplineSet
183 -10 m 0,0,1
 237 -10 237 -10 280.5 4 c 128,-1,2
 324 18 324 18 354.5 41.5 c 128,-1,3
 385 65 385 65 402 98.5 c 128,-1,4
 419 132 419 132 419 170 c 0,5,6
 419 198 419 198 408.5 218.5 c 128,-1,7
 398 239 398 239 377 254.5 c 128,-1,8
 356 270 356 270 325.5 282 c 128,-1,9
 295 294 295 294 253 306 c 0,10,11
 228 313 228 313 210.5 319 c 128,-1,12
 193 325 193 325 182 332 c 128,-1,13
 171 339 171 339 166 348 c 128,-1,14
 161 357 161 357 161 371 c 0,15,16
 161 391 161 391 170 406 c 128,-1,17
 179 421 179 421 194.5 431.5 c 128,-1,18
 210 442 210 442 231 447 c 128,-1,19
 252 452 252 452 277 452 c 0,20,21
 315 452 315 452 345 439 c 128,-1,22
 375 426 375 426 404 397 c 1,23,-1
 464 462 l 1,24,25
 433 496 433 496 388.5 514 c 128,-1,26
 344 532 344 532 285 532 c 0,27,28
 237 532 237 532 194.5 518.5 c 128,-1,29
 152 505 152 505 121.5 480 c 128,-1,30
 91 455 91 455 73 420.5 c 128,-1,31
 55 386 55 386 55 345 c 0,32,33
 55 319 55 319 63.5 301 c 128,-1,34
 72 283 72 283 90.5 270 c 128,-1,35
 109 257 109 257 137 246.5 c 128,-1,36
 165 236 165 236 203 225 c 0,37,38
 230 216 230 216 250 210 c 128,-1,39
 270 204 270 204 283 196 c 128,-1,40
 296 188 296 188 302.5 178 c 128,-1,41
 309 168 309 168 309 152 c 0,42,43
 309 134 309 134 301 119 c 128,-1,44
 293 104 293 104 278 93 c 128,-1,45
 263 82 263 82 241.5 76.5 c 128,-1,46
 220 71 220 71 194 71 c 0,47,48
 150 71 150 71 110 87.5 c 128,-1,49
 70 104 70 104 33 138 c 1,50,-1
 -25 68 l 1,51,52
 10 30 10 30 64.5 10 c 128,-1,53
 119 -10 119 -10 183 -10 c 0,0,1
EndSplineSet
EndChar

StartChar: t
Encoding: 116 116 87
Width: 353
GlyphClass: 1
Flags: W
LayerCount: 2
Fore
SplineSet
47 78 m 0,0,1
 47 33 47 33 76 12.5 c 128,-1,2
 105 -8 105 -8 148 -8 c 0,3,4
 168 -8 168 -8 187.5 -5 c 128,-1,5
 207 -2 207 -2 225.5 3 c 128,-1,6
 244 8 244 8 259.5 14 c 128,-1,7
 275 20 275 20 287 27 c 1,8,-1
 283 113 l 1,9,10
 277 110 277 110 268.5 106.5 c 128,-1,11
 260 103 260 103 250 99.5 c 128,-1,12
 240 96 240 96 229 94 c 128,-1,13
 218 92 218 92 207 92 c 0,14,15
 189 92 189 92 177 100.5 c 128,-1,16
 165 109 165 109 165 129 c 0,17,18
 165 133 165 133 165.5 137 c 128,-1,19
 166 141 166 141 167 145 c 2,20,-1
 229 439 l 1,21,-1
 337 439 l 1,22,-1
 355 523 l 1,23,-1
 247 523 l 1,24,-1
 283 695 l 1,25,-1
 175 695 l 1,26,-1
 138 523 l 1,27,-1
 73 523 l 1,28,-1
 54 439 l 1,29,-1
 121 439 l 1,30,-1
 51 110 l 2,31,32
 49 101 49 101 48 93 c 128,-1,33
 47 85 47 85 47 78 c 0,0,1
EndSplineSet
Substitution2: "'ss07' Style Set 7 lookup 38 subtable" t.ss07
Substitution2: "'aalt' Access All Alternates lookup 0 subtable" t.ss07
EndChar

StartChar: u
Encoding: 117 117 88
Width: 577
GlyphClass: 1
Flags: W
LayerCount: 2
Fore
SplineSet
158 -10 m 0,0,1
 186 -10 186 -10 214 -3 c 128,-1,2
 242 4 242 4 269.5 18 c 128,-1,3
 297 32 297 32 321.5 52.5 c 128,-1,4
 346 73 346 73 365 100 c 1,5,-1
 344 0 l 1,6,-1
 448 0 l 1,7,-1
 559 523 l 1,8,-1
 451 523 l 1,9,-1
 382 197 l 1,10,11
 366 172 366 172 346.5 150.5 c 128,-1,12
 327 129 327 129 306 114.5 c 128,-1,13
 285 100 285 100 262.5 91.5 c 128,-1,14
 240 83 240 83 217 83 c 0,15,16
 177 83 177 83 160.5 105.5 c 128,-1,17
 144 128 144 128 144 164 c 0,18,19
 144 178 144 178 146 193.5 c 128,-1,20
 148 209 148 209 151 225 c 2,21,-1
 215 523 l 1,22,-1
 107 523 l 1,23,-1
 39 203 l 2,24,25
 34 181 34 181 31 160 c 128,-1,26
 28 139 28 139 28 120 c 0,27,28
 28 91 28 91 35 66.5 c 128,-1,29
 42 42 42 42 57.5 25 c 128,-1,30
 73 8 73 8 97.5 -1 c 128,-1,31
 122 -10 122 -10 158 -10 c 0,0,1
EndSplineSet
Substitution2: "'ss08' Style Set 8 lookup 39 subtable" u.ss08
Substitution2: "'aalt' Access All Alternates lookup 0 subtable" u.ss08
EndChar

StartChar: v
Encoding: 118 118 89
Width: 516
GlyphClass: 1
Flags: W
LayerCount: 2
Fore
SplineSet
130 0 m 1,0,-1
 258 0 l 1,1,-1
 541 523 l 1,2,-1
 427 523 l 1,3,-1
 213 91 l 1,4,-1
 166 523 l 1,5,-1
 53 523 l 1,6,-1
 130 0 l 1,0,-1
EndSplineSet
EndChar

StartChar: w
Encoding: 119 119 90
Width: 818
GlyphClass: 1
Flags: W
LayerCount: 2
Fore
SplineSet
61 522 m 1,0,-1
 122 0 l 1,1,-1
 235 0 l 1,2,-1
 421 365 l 1,3,-1
 449 0 l 1,4,-1
 565 0 l 1,5,-1
 846 522 l 1,6,-1
 739 522 l 1,7,-1
 529 121 l 1,8,-1
 504 522 l 1,9,-1
 404 522 l 1,10,-1
 209 121 l 1,11,-1
 170 522 l 1,12,-1
 61 522 l 1,0,-1
EndSplineSet
Substitution2: "'ss09' Style Set 9 lookup 40 subtable" w.ss09
Substitution2: "'aalt' Access All Alternates lookup 0 subtable" w.ss09
EndChar

StartChar: x
Encoding: 120 120 91
Width: 501
GlyphClass: 1
Flags: W
LayerCount: 2
Fore
SplineSet
-55 0 m 1,0,-1
 58 0 l 1,1,-1
 216 179 l 1,2,-1
 227 195 l 1,3,-1
 233 179 l 1,4,-1
 315 0 l 1,5,-1
 428 0 l 1,6,-1
 301 261 l 1,7,-1
 537 523 l 1,8,-1
 425 523 l 1,9,-1
 267 343 l 1,10,-1
 255 326 l 1,11,-1
 251 343 l 1,12,-1
 170 523 l 1,13,-1
 58 523 l 1,14,-1
 183 261 l 1,15,-1
 -55 0 l 1,0,-1
EndSplineSet
EndChar

StartChar: y
Encoding: 121 121 92
Width: 518
GlyphClass: 1
Flags: W
LayerCount: 2
Fore
SplineSet
145 0 m 1,0,1
 132 -21 132 -21 117 -46 c 128,-1,2
 102 -71 102 -71 85.5 -99 c 128,-1,3
 69 -127 69 -127 52 -156 c 128,-1,4
 35 -185 35 -185 18 -213 c 1,5,-1
 143 -213 l 1,6,-1
 552 523 l 1,7,-1
 450 523 l 1,8,-1
 224 95 l 1,9,-1
 167 523 l 1,10,-1
 53 523 l 1,11,-1
 145 0 l 1,0,1
EndSplineSet
Substitution2: "'ss10' Style Set 10 lookup 41 subtable" y.ss10
Substitution2: "'aalt' Access All Alternates lookup 0 subtable" y.ss10
EndChar

StartChar: z
Encoding: 122 122 93
Width: 470
GlyphClass: 1
Flags: W
LayerCount: 2
Fore
SplineSet
-36 0 m 1,0,-1
 375 0 l 1,1,-1
 392 77 l 1,2,-1
 100 77 l 1,3,-1
 469 455 l 1,4,-1
 484 523 l 1,5,-1
 85 523 l 1,6,-1
 68 446 l 1,7,-1
 349 446 l 1,8,-1
 -22 68 l 1,9,-1
 -36 0 l 1,0,-1
EndSplineSet
EndChar

StartChar: braceleft
Encoding: 123 123 94
Width: 284
GlyphClass: 1
Flags: W
LayerCount: 2
Fore
SplineSet
313 652 m 1,0,-1
 332 740 l 1,1,-1
 203 740 l 2,2,3
 198 740 198 740 188.5 734.5 c 128,-1,4
 179 729 179 729 175 710 c 2,5,-1
 122 460 l 2,6,7
 121 452 121 452 115.5 441 c 128,-1,8
 110 430 110 430 102 421 c 128,-1,9
 94 412 94 412 84.5 406 c 128,-1,10
 75 400 75 400 65 400 c 1,11,-1
 48 322 l 1,12,13
 63 320 63 320 71.5 307 c 128,-1,14
 80 294 80 294 80 275 c 0,15,16
 80 271 80 271 80 267.5 c 128,-1,17
 80 264 80 264 79 260 c 2,18,-1
 24 -1 l 2,19,20
 23 -4 23 -4 23 -7 c 128,-1,21
 23 -10 23 -10 23 -12 c 0,22,23
 23 -23 23 -23 28.5 -27 c 128,-1,24
 34 -31 34 -31 39 -31 c 2,25,-1
 168 -31 l 1,26,-1
 187 57 l 1,27,-1
 135 57 l 1,28,-1
 185 294 l 2,29,30
 186 298 186 298 186 301.5 c 128,-1,31
 186 305 186 305 186 309 c 0,32,33
 186 323 186 323 181.5 336.5 c 128,-1,34
 177 350 177 350 168 360 c 1,35,36
 186 374 186 374 197.5 392 c 128,-1,37
 209 410 209 410 213 426 c 2,38,-1
 261 652 l 1,39,-1
 313 652 l 1,0,-1
EndSplineSet
EndChar

StartChar: bar
Encoding: 124 124 95
Width: 313
GlyphClass: 1
Flags: W
LayerCount: 2
Fore
SplineSet
208 -130 m 1,0,-1
 208 775 l 1,1,-1
 115 775 l 1,2,-1
 115 -130 l 1,3,-1
 208 -130 l 1,0,-1
EndSplineSet
EndChar

StartChar: braceright
Encoding: 125 125 96
Width: 284
GlyphClass: 1
Flags: W
LayerCount: 2
Fore
SplineSet
174 652 m 1,0,-1
 125 426 l 2,1,2
 124 422 124 422 123.5 418.5 c 128,-1,3
 123 415 123 415 123 410 c 0,4,5
 123 396 123 396 128 383.5 c 128,-1,6
 133 371 133 371 141 360 c 1,7,8
 124 346 124 346 112.5 328 c 128,-1,9
 101 310 101 310 97 294 c 2,10,-1
 47 57 l 1,11,-1
 -6 57 l 1,12,-1
 -24 -31 l 1,13,-1
 104 -31 l 2,14,15
 110 -31 110 -31 119.5 -24.5 c 128,-1,16
 129 -18 129 -18 133 -1 c 2,17,-1
 188 260 l 2,18,19
 193 284 193 284 209.5 301.5 c 128,-1,20
 226 319 226 319 245 322 c 1,21,-1
 262 400 l 1,22,23
 245 400 245 400 237 415.5 c 128,-1,24
 229 431 229 431 229 448 c 0,25,26
 229 451 229 451 229 454 c 128,-1,27
 229 457 229 457 230 460 c 2,28,-1
 284 710 l 2,29,30
 285 712 285 712 285 714.5 c 128,-1,31
 285 717 285 717 285 719 c 0,32,33
 285 732 285 732 278.5 736 c 128,-1,34
 272 740 272 740 268 740 c 2,35,-1
 140 740 l 1,36,-1
 121 652 l 1,37,-1
 174 652 l 1,0,-1
EndSplineSet
EndChar

StartChar: asciitilde
Encoding: 126 126 97
Width: 528
GlyphClass: 1
Flags: W
LayerCount: 2
Fore
SplineSet
46 233 m 1,0,-1
 107 233 l 1,1,2
 107 234 107 234 111 242 c 128,-1,3
 115 250 115 250 124 260.5 c 128,-1,4
 133 271 133 271 146.5 279 c 128,-1,5
 160 287 160 287 179 287 c 256,6,7
 198 287 198 287 215 279 c 128,-1,8
 232 271 232 271 249.5 260.5 c 128,-1,9
 267 250 267 250 287 241.5 c 128,-1,10
 307 233 307 233 332 233 c 0,11,12
 369 233 369 233 396.5 249.5 c 128,-1,13
 424 266 424 266 442 287.5 c 128,-1,14
 460 309 460 309 469 327.5 c 128,-1,15
 478 346 478 346 479 350 c 1,16,-1
 418 350 l 1,17,18
 418 348 418 348 413.5 339.5 c 128,-1,19
 409 331 409 331 400 322 c 128,-1,20
 391 313 391 313 377 305.5 c 128,-1,21
 363 298 363 298 343 298 c 0,22,23
 322 298 322 298 304.5 307 c 128,-1,24
 287 316 287 316 269.5 326 c 128,-1,25
 252 336 252 336 232.5 345 c 128,-1,26
 213 354 213 354 188 354 c 0,27,28
 154 354 154 354 127.5 338 c 128,-1,29
 101 322 101 322 83.5 301 c 128,-1,30
 66 280 66 280 56.5 260 c 128,-1,31
 47 240 47 240 46 233 c 1,0,-1
EndSplineSet
EndChar

StartChar: exclamdown
Encoding: 161 161 99
Width: 272
GlyphClass: 1
Flags: W
LayerCount: 2
Fore
SplineSet
265 457 m 0,0,1
 269 472 269 472 266 485 c 128,-1,2
 263 498 263 498 255 507.5 c 128,-1,3
 247 517 247 517 235 523 c 128,-1,4
 223 529 223 529 208 529 c 256,5,6
 193 529 193 529 179 523 c 128,-1,7
 165 517 165 517 153 507.5 c 128,-1,8
 141 498 141 498 132.5 485 c 128,-1,9
 124 472 124 472 121 457 c 256,10,11
 118 442 118 442 120.5 429 c 128,-1,12
 123 416 123 416 131 406.5 c 128,-1,13
 139 397 139 397 151 391 c 128,-1,14
 163 385 163 385 178 385 c 256,15,16
 193 385 193 385 207 391 c 128,-1,17
 221 397 221 397 233.5 406.5 c 128,-1,18
 246 416 246 416 254 429 c 128,-1,19
 262 442 262 442 265 457 c 0,0,1
114 267 m 1,20,-1
 45 9 l 1,21,-1
 1 -198 l 1,22,-1
 109 -198 l 1,23,-1
 153 9 l 1,24,-1
 194 267 l 1,25,-1
 114 267 l 1,20,-1
EndSplineSet
EndChar

StartChar: cent
Encoding: 162 162 100
Width: 558
GlyphClass: 1
Flags: W
LayerCount: 2
Fore
SplineSet
228 -120 m 1,0,-1
 251 -10 l 1,1,2
 275 -10 275 -10 307.5 -2 c 128,-1,3
 340 6 340 6 372.5 23 c 128,-1,4
 405 40 405 40 434.5 65 c 128,-1,5
 464 90 464 90 484 123 c 1,6,-1
 385 155 l 1,7,8
 378 141 378 141 364.5 129 c 128,-1,9
 351 117 351 117 335.5 108 c 128,-1,10
 320 99 320 99 303 93.5 c 128,-1,11
 286 88 286 88 271 85 c 1,12,-1
 345 436 l 1,13,14
 375 434 375 434 397 417 c 128,-1,15
 419 400 419 400 428 369 c 1,16,-1
 540 402 l 1,17,18
 523 462 523 462 478 495.5 c 128,-1,19
 433 529 433 529 366 531 c 1,20,-1
 390 645 l 1,21,-1
 340 645 l 1,22,-1
 315 531 l 1,23,24
 250 523 250 523 197 492.5 c 128,-1,25
 144 462 144 462 106.5 418 c 128,-1,26
 69 374 69 374 48 320.5 c 128,-1,27
 27 267 27 267 27 211 c 0,28,29
 27 171 27 171 39 133 c 128,-1,30
 51 95 51 95 73 64.5 c 128,-1,31
 95 34 95 34 127 14 c 128,-1,32
 159 -6 159 -6 201 -9 c 1,33,-1
 177 -120 l 1,34,-1
 228 -120 l 1,0,-1
140 222 m 0,35,36
 140 256 140 256 151.5 290.5 c 128,-1,37
 163 325 163 325 184 355 c 128,-1,38
 205 385 205 385 233 405.5 c 128,-1,39
 261 426 261 426 294 431 c 1,40,-1
 221 90 l 1,41,42
 202 95 202 95 187 107.5 c 128,-1,43
 172 120 172 120 161 137.5 c 128,-1,44
 150 155 150 155 145 177 c 128,-1,45
 140 199 140 199 140 222 c 0,35,36
EndSplineSet
EndChar

StartChar: sterling
Encoding: 163 163 101
Width: 506
GlyphClass: 1
Flags: W
LayerCount: 2
Fore
SplineSet
54 295 m 1,0,-1
 401 295 l 1,1,-1
 419 378 l 1,2,-1
 71 378 l 1,3,-1
 54 295 l 1,0,-1
11 -8 m 1,4,5
 41 1 41 1 74 6.5 c 128,-1,6
 107 12 107 12 130 12 c 0,7,8
 154 12 154 12 174 7.5 c 128,-1,9
 194 3 194 3 214 -2 c 128,-1,10
 234 -7 234 -7 254.5 -11 c 128,-1,11
 275 -15 275 -15 296 -15 c 0,12,13
 322 -15 322 -15 352.5 -7.5 c 128,-1,14
 383 0 383 0 409 13 c 1,15,-1
 400 95 l 1,16,17
 376 86 376 86 357 82 c 128,-1,18
 338 78 338 78 321 78 c 256,19,20
 304 78 304 78 289 81 c 128,-1,21
 274 84 274 84 259 87 c 128,-1,22
 244 90 244 90 228 92.5 c 128,-1,23
 212 95 212 95 194 95 c 0,24,25
 177 95 177 95 159.5 92.5 c 128,-1,26
 142 90 142 90 120 84 c 1,27,28
 161 122 161 122 187 152 c 128,-1,29
 213 182 213 182 227.5 208 c 128,-1,30
 242 234 242 234 247 259.5 c 128,-1,31
 252 285 252 285 252 314 c 0,32,33
 252 342 252 342 246.5 368 c 128,-1,34
 241 394 241 394 235 418 c 128,-1,35
 229 442 229 442 224 464.5 c 128,-1,36
 219 487 219 487 219 508 c 0,37,38
 219 533 219 533 228 554.5 c 128,-1,39
 237 576 237 576 252.5 592 c 128,-1,40
 268 608 268 608 288.5 617 c 128,-1,41
 309 626 309 626 331 626 c 0,42,43
 368 626 368 626 400 603 c 128,-1,44
 432 580 432 580 447 543 c 1,45,-1
 519 610 l 1,46,47
 496 659 496 659 452 687 c 128,-1,48
 408 715 408 715 352 715 c 0,49,50
 308 715 308 715 266.5 699 c 128,-1,51
 225 683 225 683 193 654.5 c 128,-1,52
 161 626 161 626 141.5 589 c 128,-1,53
 122 552 122 552 122 509 c 0,54,55
 122 484 122 484 127 458.5 c 128,-1,56
 132 433 132 433 138.5 408 c 128,-1,57
 145 383 145 383 150.5 356.5 c 128,-1,58
 156 330 156 330 156 303 c 0,59,60
 156 272 156 272 147 244.5 c 128,-1,61
 138 217 138 217 120 189 c 128,-1,62
 102 161 102 161 73 132 c 128,-1,63
 44 103 44 103 3 70 c 1,64,-1
 11 -8 l 1,4,5
EndSplineSet
EndChar

StartChar: currency
Encoding: 164 164 102
Width: 571
GlyphClass: 1
Flags: W
LayerCount: 2
Fore
SplineSet
114 562 m 1,0,-1
 67 515 l 1,1,-1
 137 444 l 1,2,3
 121 421 121 421 113.5 394 c 128,-1,4
 106 367 106 367 106 337 c 256,5,6
 106 307 106 307 114 280 c 128,-1,7
 122 253 122 253 138 230 c 1,8,-1
 67 159 l 1,9,-1
 109 117 l 1,10,-1
 182 186 l 1,11,12
 205 170 205 170 232.5 161.5 c 128,-1,13
 260 153 260 153 293 153 c 0,14,15
 325 153 325 153 352.5 161.5 c 128,-1,16
 380 170 380 170 402 186 c 1,17,-1
 475 117 l 1,18,-1
 517 159 l 1,19,-1
 446 229 l 1,20,21
 463 252 463 252 471 279.5 c 128,-1,22
 479 307 479 307 479 337 c 256,23,24
 479 367 479 367 471 394.5 c 128,-1,25
 463 422 463 422 447 445 c 1,26,-1
 517 515 l 1,27,-1
 470 562 l 1,28,-1
 400 491 l 1,29,30
 377 506 377 506 350.5 514.5 c 128,-1,31
 324 523 324 523 293 523 c 0,32,33
 261 523 261 523 234 514.5 c 128,-1,34
 207 506 207 506 185 490 c 1,35,-1
 114 562 l 1,0,-1
190 336 m 0,36,37
 190 361 190 361 198 382 c 128,-1,38
 206 403 206 403 220 418 c 128,-1,39
 234 433 234 433 252.5 442 c 128,-1,40
 271 451 271 451 293 451 c 0,41,42
 314 451 314 451 333 442.5 c 128,-1,43
 352 434 352 434 365.5 419 c 128,-1,44
 379 404 379 404 387 383 c 128,-1,45
 395 362 395 362 395 338 c 256,46,47
 395 314 395 314 387 293 c 128,-1,48
 379 272 379 272 365.5 256.5 c 128,-1,49
 352 241 352 241 333 232.5 c 128,-1,50
 314 224 314 224 293 224 c 0,51,52
 271 224 271 224 252.5 232.5 c 128,-1,53
 234 241 234 241 220 256 c 128,-1,54
 206 271 206 271 198 292 c 128,-1,55
 190 313 190 313 190 336 c 0,36,37
EndSplineSet
EndChar

StartChar: yen
Encoding: 165 165 103
Width: 671
GlyphClass: 1
Flags: W
LayerCount: 2
Fore
SplineSet
723 710 m 1,0,-1
 601 710 l 1,1,-1
 341 353 l 1,2,-1
 234 710 l 1,3,-1
 114 710 l 1,4,-1
 224 388 l 1,5,-1
 149 388 l 1,6,-1
 134 316 l 1,7,-1
 246 316 l 1,8,-1
 265 256 l 1,9,-1
 258 225 l 1,10,-1
 115 225 l 1,11,-1
 99 153 l 1,12,-1
 243 153 l 1,13,-1
 210 0 l 1,14,-1
 321 0 l 1,15,-1
 353 153 l 1,16,-1
 500 153 l 1,17,-1
 514 225 l 1,18,-1
 369 225 l 1,19,-1
 375 254 l 1,20,-1
 422 316 l 1,21,-1
 533 316 l 1,22,-1
 549 388 l 1,23,-1
 475 388 l 1,24,-1
 723 710 l 1,0,-1
EndSplineSet
EndChar

StartChar: brokenbar
Encoding: 166 166 104
Width: 307
GlyphClass: 1
Flags: W
LayerCount: 2
Fore
SplineSet
112 269 m 1,0,-1
 112 -130 l 1,1,-1
 205 -130 l 1,2,-1
 205 269 l 1,3,-1
 112 269 l 1,0,-1
112 775 m 1,4,-1
 112 376 l 1,5,-1
 205 376 l 1,6,-1
 205 775 l 1,7,-1
 112 775 l 1,4,-1
EndSplineSet
EndChar

StartChar: section
Encoding: 167 167 105
Width: 505
GlyphClass: 1
Flags: W
LayerCount: 2
Fore
SplineSet
405 207 m 1,0,1
 413 214 413 214 420.5 226 c 128,-1,2
 428 238 428 238 435 253.5 c 128,-1,3
 442 269 442 269 446.5 286.5 c 128,-1,4
 451 304 451 304 451 323 c 0,5,6
 451 360 451 360 436 385 c 128,-1,7
 421 410 421 410 396.5 425.5 c 128,-1,8
 372 441 372 441 342 448.5 c 128,-1,9
 312 456 312 456 281 456 c 0,10,11
 246 457 246 457 223.5 469.5 c 128,-1,12
 201 482 201 482 201 516 c 0,13,14
 201 540 201 540 211 558.5 c 128,-1,15
 221 577 221 577 237 590.5 c 128,-1,16
 253 604 253 604 273.5 611 c 128,-1,17
 294 618 294 618 315 618 c 0,18,19
 331 618 331 618 346 615 c 128,-1,20
 361 612 361 612 373 605 c 128,-1,21
 385 598 385 598 394 587.5 c 128,-1,22
 403 577 403 577 407 563 c 1,23,-1
 499 602 l 1,24,25
 491 621 491 621 478.5 640.5 c 128,-1,26
 466 660 466 660 446 676.5 c 128,-1,27
 426 693 426 693 397.5 704 c 128,-1,28
 369 715 369 715 329 715 c 0,29,30
 285 715 285 715 242 698 c 128,-1,31
 199 681 199 681 165.5 652.5 c 128,-1,32
 132 624 132 624 111 584.5 c 128,-1,33
 90 545 90 545 90 500 c 0,34,35
 90 474 90 474 96 452 c 128,-1,36
 102 430 102 430 112 420 c 1,37,38
 106 412 106 412 98.5 401.5 c 128,-1,39
 91 391 91 391 85 377.5 c 128,-1,40
 79 364 79 364 75 347 c 128,-1,41
 71 330 71 330 71 309 c 0,42,43
 71 278 71 278 81.5 253 c 128,-1,44
 92 228 92 228 112.5 210.5 c 128,-1,45
 133 193 133 193 163.5 182.5 c 128,-1,46
 194 172 194 172 232 169 c 0,47,48
 246 168 246 168 259.5 166 c 128,-1,49
 273 164 273 164 284 158 c 128,-1,50
 295 152 295 152 302 142 c 128,-1,51
 309 132 309 132 309 115 c 0,52,53
 309 92 309 92 298 73 c 128,-1,54
 287 54 287 54 270 41.5 c 128,-1,55
 253 29 253 29 232 22 c 128,-1,56
 211 15 211 15 191 15 c 0,57,58
 157 15 157 15 129.5 29.5 c 128,-1,59
 102 44 102 44 78 77 c 1,60,-1
 -6 11 l 1,61,62
 4 -4 4 -4 19.5 -21.5 c 128,-1,63
 35 -39 35 -39 57 -53.5 c 128,-1,64
 79 -68 79 -68 108 -78 c 128,-1,65
 137 -88 137 -88 174 -88 c 0,66,67
 210 -88 210 -88 254 -75 c 128,-1,68
 298 -62 298 -62 336 -34 c 128,-1,69
 374 -6 374 -6 399.5 37 c 128,-1,70
 425 80 425 80 425 141 c 0,71,72
 425 163 425 163 419.5 180.5 c 128,-1,73
 414 198 414 198 405 207 c 1,0,1
175 309 m 0,74,75
 175 331 175 331 184.5 350 c 128,-1,76
 194 369 194 369 206 379 c 1,77,78
 216 375 216 375 232 371.5 c 128,-1,79
 248 368 248 368 266 368 c 0,80,81
 280 368 280 368 293.5 365 c 128,-1,82
 307 362 307 362 318.5 354.5 c 128,-1,83
 330 347 330 347 337.5 335 c 128,-1,84
 345 323 345 323 345 305 c 0,85,86
 345 285 345 285 335 265.5 c 128,-1,87
 325 246 325 246 310 235 c 1,88,89
 296 242 296 242 273 244 c 128,-1,90
 250 246 250 246 228 251 c 128,-1,91
 206 256 206 256 190.5 268.5 c 128,-1,92
 175 281 175 281 175 309 c 0,74,75
EndSplineSet
EndChar

StartChar: copyright
Encoding: 169 169 107
Width: 852
GlyphClass: 1
Flags: W
LayerCount: 2
Fore
SplineSet
435 -7 m 0,0,1
 516 -7 516 -7 585 20.5 c 128,-1,2
 654 48 654 48 704.5 96.5 c 128,-1,3
 755 145 755 145 783 211 c 128,-1,4
 811 277 811 277 811 355 c 0,5,6
 811 432 811 432 783 498 c 128,-1,7
 755 564 755 564 704.5 612 c 128,-1,8
 654 660 654 660 585 687.5 c 128,-1,9
 516 715 516 715 435 715 c 0,10,11
 355 715 355 715 286.5 687.5 c 128,-1,12
 218 660 218 660 169 612 c 128,-1,13
 120 564 120 564 91.5 498 c 128,-1,14
 63 432 63 432 63 355 c 0,15,16
 63 277 63 277 91.5 211 c 128,-1,17
 120 145 120 145 169 96.5 c 128,-1,18
 218 48 218 48 286.5 20.5 c 128,-1,19
 355 -7 355 -7 435 -7 c 0,0,1
435 36 m 0,20,21
 365 36 365 36 305.5 60.5 c 128,-1,22
 246 85 246 85 202.5 127.5 c 128,-1,23
 159 170 159 170 134 228.5 c 128,-1,24
 109 287 109 287 109 354 c 0,25,26
 109 422 109 422 134 480 c 128,-1,27
 159 538 159 538 202.5 580.5 c 128,-1,28
 246 623 246 623 306 647.5 c 128,-1,29
 366 672 366 672 435 672 c 0,30,31
 506 672 506 672 566.5 647.5 c 128,-1,32
 627 623 627 623 671 580.5 c 128,-1,33
 715 538 715 538 740 479.5 c 128,-1,34
 765 421 765 421 765 353 c 0,35,36
 765 283 765 283 739.5 224.5 c 128,-1,37
 714 166 714 166 669.5 124.5 c 128,-1,38
 625 83 625 83 564.5 59.5 c 128,-1,39
 504 36 504 36 435 36 c 0,20,21
443 119 m 0,40,41
 484 119 484 119 518.5 130 c 128,-1,42
 553 141 553 141 580 158.5 c 128,-1,43
 607 176 607 176 626 198.5 c 128,-1,44
 645 221 645 221 654 244 c 1,45,-1
 549 276 l 1,46,47
 542 261 542 261 530 249 c 128,-1,48
 518 237 518 237 503.5 229 c 128,-1,49
 489 221 489 221 472.5 216.5 c 128,-1,50
 456 212 456 212 441 212 c 0,51,52
 418 212 418 212 394.5 221.5 c 128,-1,53
 371 231 371 231 352 249 c 128,-1,54
 333 267 333 267 321 293.5 c 128,-1,55
 309 320 309 320 309 355 c 0,56,57
 309 383 309 383 317.5 409 c 128,-1,58
 326 435 326 435 342.5 455 c 128,-1,59
 359 475 359 475 383 487 c 128,-1,60
 407 499 407 499 439 499 c 0,61,62
 452 499 452 499 467 496 c 128,-1,63
 482 493 482 493 496 486 c 128,-1,64
 510 479 510 479 523 467 c 128,-1,65
 536 455 536 455 544 437 c 1,66,-1
 649 470 l 1,67,68
 624 527 624 527 569 559 c 128,-1,69
 514 591 514 591 439 591 c 0,70,71
 379 591 379 591 333.5 571 c 128,-1,72
 288 551 288 551 258 517.5 c 128,-1,73
 228 484 228 484 213 441.5 c 128,-1,74
 198 399 198 399 198 355 c 0,75,76
 198 304 198 304 217 260.5 c 128,-1,77
 236 217 236 217 268.5 185.5 c 128,-1,78
 301 154 301 154 346 136.5 c 128,-1,79
 391 119 391 119 443 119 c 0,40,41
EndSplineSet
EndChar

StartChar: ordfeminine
Encoding: 170 170 108
Width: 421
GlyphClass: 1
Flags: W
LayerCount: 2
Fore
SplineSet
163 342 m 0,0,1
 200 342 200 342 236 358.5 c 128,-1,2
 272 375 272 375 302 407 c 1,3,-1
 291 349 l 1,4,-1
 361 349 l 1,5,6
 361 351 361 351 364 365.5 c 128,-1,7
 367 380 367 380 370 397.5 c 128,-1,8
 373 415 373 415 376 430 c 128,-1,9
 379 445 379 445 379 446 c 2,10,-1
 405 565 l 2,11,12
 407 576 407 576 408.5 586.5 c 128,-1,13
 410 597 410 597 410 607 c 0,14,15
 410 659 410 659 377 685.5 c 128,-1,16
 344 712 344 712 284 712 c 0,17,18
 247 712 247 712 210.5 700.5 c 128,-1,19
 174 689 174 689 136 666 c 1,20,-1
 150 613 l 1,21,22
 183 633 183 633 211 643.5 c 128,-1,23
 239 654 239 654 265 654 c 0,24,25
 296 654 296 654 312 639 c 128,-1,26
 328 624 328 624 328 598 c 0,27,28
 328 593 328 593 327.5 587 c 128,-1,29
 327 581 327 581 325 575 c 2,30,-1
 321 553 l 1,31,32
 305 560 305 560 284 564.5 c 128,-1,33
 263 569 263 569 239 569 c 0,34,35
 204 569 204 569 173.5 558.5 c 128,-1,36
 143 548 143 548 120 530 c 128,-1,37
 97 512 97 512 84 487.5 c 128,-1,38
 71 463 71 463 71 434 c 0,39,40
 71 394 71 394 96 368 c 128,-1,41
 121 342 121 342 163 342 c 0,0,1
200 403 m 0,42,43
 177 403 177 403 163.5 416.5 c 128,-1,44
 150 430 150 430 150 451 c 0,45,46
 150 482 150 482 177 501 c 128,-1,47
 204 520 204 520 243 520 c 0,48,49
 261 520 261 520 278.5 517 c 128,-1,50
 296 514 296 514 310 506 c 1,51,-1
 301 462 l 2,52,53
 298 451 298 451 288 440.5 c 128,-1,54
 278 430 278 430 263.5 421.5 c 128,-1,55
 249 413 249 413 232 408 c 128,-1,56
 215 403 215 403 200 403 c 0,42,43
EndSplineSet
EndChar

StartChar: guillemotleft
Encoding: 171 171 109
Width: 599
GlyphClass: 1
Flags: W
LayerCount: 2
Fore
SplineSet
23 229 m 1,0,-1
 232 54 l 1,1,-1
 251 144 l 1,2,-1
 116 259 l 1,3,-1
 301 378 l 1,4,-1
 320 468 l 1,5,-1
 35 284 l 1,6,-1
 23 229 l 1,0,-1
280 229 m 1,7,-1
 488 54 l 1,8,-1
 508 144 l 1,9,-1
 372 259 l 1,10,-1
 558 378 l 1,11,-1
 576 468 l 1,12,-1
 291 284 l 1,13,-1
 280 229 l 1,7,-1
EndSplineSet
EndChar

StartChar: logicalnot
Encoding: 172 172 110
Width: 580
GlyphClass: 1
Flags: W
LayerCount: 2
Fore
SplineSet
80 386 m 1,0,-1
 60 288 l 1,1,-1
 417 288 l 1,2,-1
 380 114 l 1,3,-1
 472 114 l 1,4,-1
 530 386 l 1,5,-1
 80 386 l 1,0,-1
EndSplineSet
EndChar

StartChar: uni00AD
Encoding: 173 173 111
Width: 570
GlyphClass: 1
Flags: W
LayerCount: 2
Fore
SplineSet
494 225 m 1,0,-1
 514 323 l 1,1,-1
 64 323 l 1,2,-1
 44 225 l 1,3,-1
 494 225 l 1,0,-1
EndSplineSet
EndChar

StartChar: registered
Encoding: 174 174 112
Width: 852
GlyphClass: 1
Flags: W
LayerCount: 2
Fore
SplineSet
436 -7 m 256,0,1
 517 -7 517 -7 585.5 20.5 c 128,-1,2
 654 48 654 48 704.5 96.5 c 128,-1,3
 755 145 755 145 783 211 c 128,-1,4
 811 277 811 277 811 355 c 0,5,6
 811 432 811 432 783 498 c 128,-1,7
 755 564 755 564 704.5 612 c 128,-1,8
 654 660 654 660 585.5 687.5 c 128,-1,9
 517 715 517 715 436 715 c 256,10,11
 355 715 355 715 287 687.5 c 128,-1,12
 219 660 219 660 169.5 612 c 128,-1,13
 120 564 120 564 91.5 498 c 128,-1,14
 63 432 63 432 63 355 c 0,15,16
 63 277 63 277 91.5 211 c 128,-1,17
 120 145 120 145 169.5 96.5 c 128,-1,18
 219 48 219 48 287 20.5 c 128,-1,19
 355 -7 355 -7 436 -7 c 256,0,1
436 35 m 0,20,21
 366 35 366 35 306 60 c 128,-1,22
 246 85 246 85 203 127.5 c 128,-1,23
 160 170 160 170 136 228.5 c 128,-1,24
 112 287 112 287 112 355 c 0,25,26
 112 422 112 422 136 480 c 128,-1,27
 160 538 160 538 203 580.5 c 128,-1,28
 246 623 246 623 306 647.5 c 128,-1,29
 366 672 366 672 436 672 c 0,30,31
 507 672 507 672 566.5 647.5 c 128,-1,32
 626 623 626 623 670 580.5 c 128,-1,33
 714 538 714 538 738.5 479.5 c 128,-1,34
 763 421 763 421 763 354 c 0,35,36
 763 283 763 283 738 224.5 c 128,-1,37
 713 166 713 166 668.5 124 c 128,-1,38
 624 82 624 82 564.5 58.5 c 128,-1,39
 505 35 505 35 436 35 c 0,20,21
278 133 m 1,40,-1
 356 133 l 1,41,-1
 356 289 l 1,42,-1
 441 289 l 1,43,-1
 539 133 l 1,44,-1
 626 133 l 1,45,-1
 520 302 l 1,46,47
 540 308 540 308 556.5 321 c 128,-1,48
 573 334 573 334 584.5 351 c 128,-1,49
 596 368 596 368 602.5 389 c 128,-1,50
 609 410 609 410 609 432 c 0,51,52
 609 459 609 459 599 485 c 128,-1,53
 589 511 589 511 570.5 531.5 c 128,-1,54
 552 552 552 552 527 565 c 128,-1,55
 502 578 502 578 471 578 c 2,56,-1
 278 578 l 1,57,-1
 278 133 l 1,40,-1
356 357 m 1,58,-1
 356 507 l 1,59,-1
 463 507 l 2,60,61
 478 507 478 507 490.5 502 c 128,-1,62
 503 497 503 497 512 487 c 128,-1,63
 521 477 521 477 526.5 463.5 c 128,-1,64
 532 450 532 450 532 432 c 0,65,66
 532 415 532 415 527.5 401.5 c 128,-1,67
 523 388 523 388 514.5 378 c 128,-1,68
 506 368 506 368 494 362.5 c 128,-1,69
 482 357 482 357 466 357 c 2,70,-1
 356 357 l 1,58,-1
EndSplineSet
EndChar

StartChar: degree
Encoding: 176 176 114
Width: 271
GlyphClass: 1
Flags: W
LayerCount: 2
Fore
SplineSet
182 534 m 0,0,1
 205 534 205 534 226 543 c 128,-1,2
 247 552 247 552 263 567.5 c 128,-1,3
 279 583 279 583 288 604 c 128,-1,4
 297 625 297 625 297 649 c 0,5,6
 297 681 297 681 277 702.5 c 128,-1,7
 257 724 257 724 223 724 c 0,8,9
 199 724 199 724 178 714 c 128,-1,10
 157 704 157 704 142 688 c 128,-1,11
 127 672 127 672 118 651 c 128,-1,12
 109 630 109 630 109 608 c 0,13,14
 109 575 109 575 129 554.5 c 128,-1,15
 149 534 149 534 182 534 c 0,0,1
194 589 m 0,16,17
 181 589 181 589 172.5 598 c 128,-1,18
 164 607 164 607 164 622 c 0,19,20
 164 641 164 641 179 655 c 128,-1,21
 194 669 194 669 211 669 c 0,22,23
 224 669 224 669 232.5 660.5 c 128,-1,24
 241 652 241 652 241 637 c 0,25,26
 241 618 241 618 225.5 603.5 c 128,-1,27
 210 589 210 589 194 589 c 0,16,17
EndSplineSet
EndChar

StartChar: plusminus
Encoding: 177 177 115
Width: 496
GlyphClass: 1
Flags: W
LayerCount: 2
Fore
SplineSet
407 41 m 1,0,-1
 407 129 l 1,1,-1
 65 129 l 1,2,-1
 65 41 l 1,3,-1
 407 41 l 1,0,-1
285 416 m 1,4,-1
 285 547 l 1,5,-1
 187 547 l 1,6,-1
 187 416 l 1,7,-1
 65 416 l 1,8,-1
 65 328 l 1,9,-1
 187 328 l 1,10,-1
 187 196 l 1,11,-1
 285 196 l 1,12,-1
 285 328 l 1,13,-1
 407 328 l 1,14,-1
 407 416 l 1,15,-1
 285 416 l 1,4,-1
EndSplineSet
EndChar

StartChar: twosuperior
Encoding: 178 178 116
Width: 392
GlyphClass: 1
Flags: W
LayerCount: 2
Fore
SplineSet
372 395 m 1,0,-1
 387 460 l 1,1,-1
 171 460 l 1,2,3
 174 472 174 472 181 484.5 c 128,-1,4
 188 497 188 497 201 508.5 c 128,-1,5
 214 520 214 520 233.5 530.5 c 128,-1,6
 253 541 253 541 281 550 c 0,7,8
 317 563 317 563 346.5 577.5 c 128,-1,9
 376 592 376 592 396 611 c 128,-1,10
 416 630 416 630 427 655 c 128,-1,11
 438 680 438 680 438 711 c 0,12,13
 438 757 438 757 406.5 785 c 128,-1,14
 375 813 375 813 312 813 c 0,15,16
 278 813 278 813 248 805.5 c 128,-1,17
 218 798 218 798 194.5 787.5 c 128,-1,18
 171 777 171 777 154.5 765 c 128,-1,19
 138 753 138 753 130 745 c 1,20,-1
 161 695 l 1,21,22
 171 704 171 704 185.5 713.5 c 128,-1,23
 200 723 200 723 217 731.5 c 128,-1,24
 234 740 234 740 254 745 c 128,-1,25
 274 750 274 750 296 750 c 0,26,27
 332 750 332 750 347.5 735 c 128,-1,28
 363 720 363 720 363 696 c 256,29,30
 363 672 363 672 349 655.5 c 128,-1,31
 335 639 335 639 314 627 c 128,-1,32
 293 615 293 615 266.5 605.5 c 128,-1,33
 240 596 240 596 214 586 c 0,34,35
 178 572 178 572 151 555 c 128,-1,36
 124 538 124 538 105 515.5 c 128,-1,37
 86 493 86 493 72.5 463.5 c 128,-1,38
 59 434 59 434 51 395 c 1,39,-1
 372 395 l 1,0,-1
EndSplineSet
EndChar

StartChar: threesuperior
Encoding: 179 179 117
Width: 385
GlyphClass: 1
Flags: W
LayerCount: 2
Fore
SplineSet
202 390 m 0,0,1
 238 390 238 390 272 398.5 c 128,-1,2
 306 407 306 407 333 423.5 c 128,-1,3
 360 440 360 440 376.5 465.5 c 128,-1,4
 393 491 393 491 393 524 c 0,5,6
 393 556 393 556 374 580.5 c 128,-1,7
 355 605 355 605 319 611 c 1,8,9
 369 621 369 621 396.5 647.5 c 128,-1,10
 424 674 424 674 424 715 c 0,11,12
 424 758 424 758 389 785.5 c 128,-1,13
 354 813 354 813 292 813 c 0,14,15
 270 813 270 813 246 809 c 128,-1,16
 222 805 222 805 200.5 797.5 c 128,-1,17
 179 790 179 790 160.5 778.5 c 128,-1,18
 142 767 142 767 129 752 c 1,19,-1
 159 701 l 1,20,21
 179 724 179 724 209.5 738.5 c 128,-1,22
 240 753 240 753 278 753 c 0,23,24
 306 753 306 753 328.5 740.5 c 128,-1,25
 351 728 351 728 351 703 c 0,26,27
 351 687 351 687 342 674.5 c 128,-1,28
 333 662 333 662 316 654 c 128,-1,29
 299 646 299 646 274.5 642 c 128,-1,30
 250 638 250 638 219 638 c 2,31,-1
 197 638 l 1,32,-1
 185 579 l 1,33,-1
 207 579 l 2,34,35
 264 579 264 579 294.5 564.5 c 128,-1,36
 325 550 325 550 325 523 c 0,37,38
 325 507 325 507 315.5 493.5 c 128,-1,39
 306 480 306 480 291 470.5 c 128,-1,40
 276 461 276 461 255.5 455 c 128,-1,41
 235 449 235 449 213 449 c 0,42,43
 189 449 189 449 170.5 455 c 128,-1,44
 152 461 152 461 139.5 470.5 c 128,-1,45
 127 480 127 480 120 491 c 128,-1,46
 113 502 113 502 111 512 c 1,47,-1
 67 473 l 1,48,49
 70 433 70 433 107 411.5 c 128,-1,50
 144 390 144 390 202 390 c 0,0,1
EndSplineSet
EndChar

StartChar: uni00B5
Encoding: 181 181 119
Width: 618
GlyphClass: 1
Flags: W
LayerCount: 2
Fore
SplineSet
-35 -212 m 1,0,-1
 73 -212 l 1,1,-1
 124 59 l 1,2,3
 127 30 127 30 146.5 10 c 128,-1,4
 166 -10 166 -10 204 -10 c 0,5,6
 231 -10 231 -10 258.5 0 c 128,-1,7
 286 10 286 10 311.5 26.5 c 128,-1,8
 337 43 337 43 358 64 c 128,-1,9
 379 85 379 85 393 106 c 1,10,-1
 394 0 l 1,11,-1
 467 0 l 1,12,-1
 575 523 l 1,13,-1
 466 523 l 1,14,-1
 397 197 l 1,15,16
 380 169 380 169 360 148 c 128,-1,17
 340 127 340 127 318 112.5 c 128,-1,18
 296 98 296 98 273.5 90.5 c 128,-1,19
 251 83 251 83 230 83 c 0,20,21
 194 83 194 83 176 103 c 128,-1,22
 158 123 158 123 158 165 c 0,23,24
 158 178 158 178 160 193 c 128,-1,25
 162 208 162 208 166 225 c 2,26,-1
 229 523 l 1,27,-1
 121 523 l 1,28,-1
 -35 -212 l 1,0,-1
EndSplineSet
EndChar

StartChar: paragraph
Encoding: 182 182 120
Width: 613
GlyphClass: 1
Flags: W
LayerCount: 2
Fore
SplineSet
63 405 m 0,0,1
 63 362 63 362 75.5 327.5 c 128,-1,2
 88 293 88 293 111 269 c 128,-1,3
 134 245 134 245 168 231.5 c 128,-1,4
 202 218 202 218 244 217 c 1,5,-1
 181 -80 l 1,6,-1
 274 -80 l 1,7,-1
 337 217 l 1,8,-1
 392 217 l 1,9,-1
 329 -80 l 1,10,-1
 421 -80 l 1,11,-1
 572 628 l 1,12,-1
 638 628 l 1,13,-1
 656 710 l 1,14,-1
 392 710 l 2,15,16
 316 710 316 710 255.5 688 c 128,-1,17
 195 666 195 666 152 626 c 128,-1,18
 109 586 109 586 86 530 c 128,-1,19
 63 474 63 474 63 405 c 0,0,1
156 420 m 0,20,21
 156 462 156 462 168.5 499.5 c 128,-1,22
 181 537 181 537 204 565 c 128,-1,23
 227 593 227 593 259.5 609.5 c 128,-1,24
 292 626 292 626 332 628 c 1,25,-1
 262 299 l 1,26,27
 239 301 239 301 220 309 c 128,-1,28
 201 317 201 317 186.5 332.5 c 128,-1,29
 172 348 172 348 164 369.5 c 128,-1,30
 156 391 156 391 156 420 c 0,20,21
409 299 m 1,31,-1
 354 299 l 1,32,-1
 425 628 l 1,33,-1
 480 628 l 1,34,-1
 409 299 l 1,31,-1
EndSplineSet
EndChar

StartChar: onesuperior
Encoding: 185 185 123
Width: 278
GlyphClass: 1
Flags: W
LayerCount: 2
Fore
SplineSet
223 461 m 1,0,-1
 298 813 l 1,1,-1
 231 813 l 1,2,3
 231 812 231 812 220.5 803 c 128,-1,4
 210 794 210 794 194.5 784 c 128,-1,5
 179 774 179 774 161.5 765 c 128,-1,6
 144 756 144 756 129 756 c 1,7,-1
 115 691 l 1,8,9
 127 691 127 691 141.5 696.5 c 128,-1,10
 156 702 156 702 170.5 709.5 c 128,-1,11
 185 717 185 717 197.5 725.5 c 128,-1,12
 210 734 210 734 216 740 c 1,13,-1
 157 461 l 1,14,-1
 82 461 l 1,15,-1
 68 396 l 1,16,-1
 277 396 l 1,17,-1
 291 461 l 1,18,-1
 223 461 l 1,0,-1
EndSplineSet
EndChar

StartChar: ordmasculine
Encoding: 186 186 124
Width: 430
GlyphClass: 1
Flags: W
LayerCount: 2
Fore
SplineSet
222 342 m 0,0,1
 269 342 269 342 309.5 360.5 c 128,-1,2
 350 379 350 379 379 410 c 128,-1,3
 408 441 408 441 424.5 481 c 128,-1,4
 441 521 441 521 441 563 c 0,5,6
 441 594 441 594 432 621 c 128,-1,7
 423 648 423 648 405 668.5 c 128,-1,8
 387 689 387 689 361 700.5 c 128,-1,9
 335 712 335 712 301 712 c 0,10,11
 254 712 254 712 214 693.5 c 128,-1,12
 174 675 174 675 144.5 644 c 128,-1,13
 115 613 115 613 98 573.5 c 128,-1,14
 81 534 81 534 81 490 c 0,15,16
 81 460 81 460 90 433 c 128,-1,17
 99 406 99 406 117 386 c 128,-1,18
 135 366 135 366 161 354 c 128,-1,19
 187 342 187 342 222 342 c 0,0,1
237 413 m 0,20,21
 221 413 221 413 208 420 c 128,-1,22
 195 427 195 427 185.5 438 c 128,-1,23
 176 449 176 449 171 465 c 128,-1,24
 166 481 166 481 166 501 c 0,25,26
 166 529 166 529 176 554.5 c 128,-1,27
 186 580 186 580 203 599 c 128,-1,28
 220 618 220 618 241.5 629 c 128,-1,29
 263 640 263 640 285 640 c 0,30,31
 302 640 302 640 315 633 c 128,-1,32
 328 626 328 626 337.5 614.5 c 128,-1,33
 347 603 347 603 352 587 c 128,-1,34
 357 571 357 571 357 552 c 0,35,36
 357 524 357 524 346.5 498.5 c 128,-1,37
 336 473 336 473 319.5 454 c 128,-1,38
 303 435 303 435 281.5 424 c 128,-1,39
 260 413 260 413 237 413 c 0,20,21
EndSplineSet
EndChar

StartChar: guillemotright
Encoding: 187 187 125
Width: 599
GlyphClass: 1
Flags: W
LayerCount: 2
Fore
SplineSet
557 284 m 1,0,-1
 350 468 l 1,1,-1
 331 378 l 1,2,-1
 465 259 l 1,3,-1
 281 144 l 1,4,-1
 262 54 l 1,5,-1
 545 229 l 1,6,-1
 557 284 l 1,0,-1
300 284 m 1,7,-1
 93 468 l 1,8,-1
 75 378 l 1,9,-1
 209 259 l 1,10,-1
 25 144 l 1,11,-1
 6 54 l 1,12,-1
 289 229 l 1,13,-1
 300 284 l 1,7,-1
EndSplineSet
EndChar

StartChar: onehalf
Encoding: 189 189 127
Width: 841
GlyphClass: 1
Flags: W
LayerCount: 2
Fore
SplineSet
206 379 m 1,0,-1
 281 731 l 1,1,-1
 214 731 l 1,2,3
 214 730 214 730 203.5 721 c 128,-1,4
 193 712 193 712 177.5 702 c 128,-1,5
 162 692 162 692 144.5 683 c 128,-1,6
 127 674 127 674 112 674 c 1,7,-1
 98 609 l 1,8,9
 110 609 110 609 124.5 614.5 c 128,-1,10
 139 620 139 620 153.5 627.5 c 128,-1,11
 168 635 168 635 180.5 643.5 c 128,-1,12
 193 652 193 652 199 658 c 1,13,-1
 140 379 l 1,14,-1
 65 379 l 1,15,-1
 50 314 l 1,16,-1
 260 314 l 1,17,-1
 274 379 l 1,18,-1
 206 379 l 1,0,-1
70 -6 m 1,19,-1
 400 342 l 1,20,-1
 732 672 l 1,21,-1
 691 716 l 1,22,-1
 368 373 l 1,23,-1
 30 39 l 1,24,-1
 70 -6 l 1,19,-1
741 0 m 1,25,-1
 755 64 l 1,26,-1
 547 64 l 1,27,28
 550 77 550 77 557 89.5 c 128,-1,29
 564 102 564 102 576.5 113.5 c 128,-1,30
 589 125 589 125 607.5 135.5 c 128,-1,31
 626 146 626 146 653 155 c 0,32,33
 688 167 688 167 716.5 181.5 c 128,-1,34
 745 196 745 196 764.5 215.5 c 128,-1,35
 784 235 784 235 794.5 259.5 c 128,-1,36
 805 284 805 284 805 316 c 0,37,38
 805 362 805 362 775 390 c 128,-1,39
 745 418 745 418 683 418 c 0,40,41
 650 418 650 418 621.5 410.5 c 128,-1,42
 593 403 593 403 570.5 392 c 128,-1,43
 548 381 548 381 531.5 369.5 c 128,-1,44
 515 358 515 358 508 349 c 1,45,-1
 538 300 l 1,46,47
 547 309 547 309 561 318.5 c 128,-1,48
 575 328 575 328 591.5 336 c 128,-1,49
 608 344 608 344 627 349.5 c 128,-1,50
 646 355 646 355 667 355 c 0,51,52
 702 355 702 355 717.5 340 c 128,-1,53
 733 325 733 325 733 301 c 256,54,55
 733 277 733 277 719.5 260.5 c 128,-1,56
 706 244 706 244 685 232 c 128,-1,57
 664 220 664 220 638.5 210.5 c 128,-1,58
 613 201 613 201 589 191 c 0,59,60
 554 176 554 176 528 159 c 128,-1,61
 502 142 502 142 483.5 120 c 128,-1,62
 465 98 465 98 452.5 68.5 c 128,-1,63
 440 39 440 39 432 0 c 1,64,-1
 741 0 l 1,25,-1
EndSplineSet
EndChar

StartChar: questiondown
Encoding: 191 191 129
Width: 461
GlyphClass: 1
Flags: W
LayerCount: 2
Fore
SplineSet
247 285 m 1,0,1
 240 256 240 256 227 236 c 128,-1,2
 214 216 214 216 196.5 201.5 c 128,-1,3
 179 187 179 187 159 176 c 128,-1,4
 139 165 139 165 118 154 c 0,5,6
 91 139 91 139 67 123.5 c 128,-1,7
 43 108 43 108 23.5 88.5 c 128,-1,8
 4 69 4 69 -10 43 c 128,-1,9
 -24 17 -24 17 -31 -19 c 0,10,11
 -43 -69 -43 -69 -33.5 -105.5 c 128,-1,12
 -24 -142 -24 -142 -1.5 -166 c 128,-1,13
 21 -190 21 -190 53.5 -201.5 c 128,-1,14
 86 -213 86 -213 123 -213 c 0,15,16
 155 -213 155 -213 187.5 -204.5 c 128,-1,17
 220 -196 220 -196 250 -179.5 c 128,-1,18
 280 -163 280 -163 306 -139 c 128,-1,19
 332 -115 332 -115 351 -84 c 1,20,-1
 292 -36 l 1,21,22
 280 -52 280 -52 264 -68 c 128,-1,23
 248 -84 248 -84 229 -96.5 c 128,-1,24
 210 -109 210 -109 188.5 -116.5 c 128,-1,25
 167 -124 167 -124 144 -124 c 0,26,27
 124 -124 124 -124 106 -117.5 c 128,-1,28
 88 -111 88 -111 76.5 -98 c 128,-1,29
 65 -85 65 -85 60 -66 c 128,-1,30
 55 -47 55 -47 60 -22 c 0,31,32
 67 9 67 9 85.5 32.5 c 128,-1,33
 104 56 104 56 128 72.5 c 128,-1,34
 152 89 152 89 176.5 101.5 c 128,-1,35
 201 114 201 114 219 125 c 0,36,37
 245 140 245 140 264 157 c 128,-1,38
 283 174 283 174 296.5 194 c 128,-1,39
 310 214 310 214 319 237 c 128,-1,40
 328 260 328 260 333 285 c 1,41,-1
 247 285 l 1,0,1
385 452 m 0,42,43
 390 479 390 479 376.5 497.5 c 128,-1,44
 363 516 363 516 337 516 c 0,45,46
 324 516 324 516 312 511 c 128,-1,47
 300 506 300 506 290 497.5 c 128,-1,48
 280 489 280 489 272.5 477.5 c 128,-1,49
 265 466 265 466 263 452 c 0,50,51
 257 426 257 426 271 407.5 c 128,-1,52
 285 389 285 389 310 389 c 0,53,54
 322 389 322 389 334.5 394 c 128,-1,55
 347 399 347 399 357.5 407.5 c 128,-1,56
 368 416 368 416 375 427.5 c 128,-1,57
 382 439 382 439 385 452 c 0,42,43
EndSplineSet
EndChar

StartChar: AE
Encoding: 198 198 136
Width: 926
GlyphClass: 1
Flags: W
LayerCount: 2
Fore
SplineSet
-80 0 m 1,0,-1
 40 0 l 1,1,-1
 191 194 l 1,2,-1
 416 194 l 1,3,-1
 374 0 l 1,4,-1
 826 0 l 1,5,-1
 847 98 l 1,6,-1
 505 98 l 1,7,-1
 551 313 l 1,8,-1
 833 313 l 1,9,-1
 854 411 l 1,10,-1
 572 411 l 1,11,-1
 614 612 l 1,12,-1
 948 612 l 1,13,-1
 969 710 l 1,14,-1
 496 710 l 1,15,-1
 -80 0 l 1,0,-1
260 292 m 1,16,-1
 490 583 l 1,17,-1
 428 292 l 1,18,-1
 260 292 l 1,16,-1
EndSplineSet
EndChar

StartChar: Idieresis
Encoding: 207 207 145
Width: 270
GlyphClass: 1
Flags: W
LayerCount: 2
Fore
SplineSet
15 0 m 1,0,-1
 126 0 l 1,1,-1
 277 709 l 1,2,-1
 166 709 l 1,3,-1
 15 0 l 1,0,-1
271 857 m 0,4,5
 265 830 265 830 276 811.5 c 128,-1,6
 287 793 287 793 308 793 c 256,7,8
 329 793 329 793 347 811.5 c 128,-1,9
 365 830 365 830 371 857 c 0,10,11
 376 883 376 883 366 901.5 c 128,-1,12
 356 920 356 920 335 920 c 256,13,14
 314 920 314 920 295.5 901.5 c 128,-1,15
 277 883 277 883 271 857 c 0,4,5
133 857 m 0,16,17
 127 830 127 830 137 811.5 c 128,-1,18
 147 793 147 793 169 793 c 0,19,20
 190 793 190 793 208.5 811.5 c 128,-1,21
 227 830 227 830 232 857 c 0,22,23
 238 883 238 883 227.5 901.5 c 128,-1,24
 217 920 217 920 196 920 c 256,25,26
 175 920 175 920 156.5 901.5 c 128,-1,27
 138 883 138 883 133 857 c 0,16,17
EndSplineSet
EndChar

StartChar: Eth
Encoding: 208 208 146
Width: 698
GlyphClass: 1
Flags: W
LayerCount: 2
Fore
SplineSet
39 316 m 1,0,-1
 342 316 l 1,1,-1
 359 398 l 1,2,-1
 57 398 l 1,3,-1
 39 316 l 1,0,-1
22 0 m 1,4,-1
 262 0 l 2,5,6
 351 0 351 0 427 33 c 128,-1,7
 503 66 503 66 559 124.5 c 128,-1,8
 615 183 615 183 646.5 262.5 c 128,-1,9
 678 342 678 342 678 436 c 0,10,11
 678 493 678 493 662 543.5 c 128,-1,12
 646 594 646 594 613.5 631 c 128,-1,13
 581 668 581 668 531 689 c 128,-1,14
 481 710 481 710 413 710 c 2,15,-1
 173 710 l 1,16,-1
 22 0 l 1,4,-1
153 98 m 1,17,-1
 263 612 l 1,18,-1
 392 612 l 2,19,20
 434 612 434 612 466.5 597.5 c 128,-1,21
 499 583 499 583 520 557.5 c 128,-1,22
 541 532 541 532 552 496.5 c 128,-1,23
 563 461 563 461 563 419 c 0,24,25
 563 356 563 356 543.5 297.5 c 128,-1,26
 524 239 524 239 487.5 194.5 c 128,-1,27
 451 150 451 150 399 124 c 128,-1,28
 347 98 347 98 283 98 c 2,29,-1
 153 98 l 1,17,-1
EndSplineSet
EndChar

StartChar: multiply
Encoding: 215 215 153
Width: 478
GlyphClass: 1
Flags: W
LayerCount: 2
Fore
SplineSet
300 274 m 1,0,-1
 406 381 l 1,1,-1
 339 450 l 1,2,-1
 231 342 l 1,3,-1
 125 449 l 1,4,-1
 56 381 l 1,5,-1
 163 274 l 1,6,-1
 54 165 l 1,7,-1
 121 96 l 1,8,-1
 231 206 l 1,9,-1
 341 96 l 1,10,-1
 410 164 l 1,11,-1
 300 274 l 1,0,-1
EndSplineSet
EndChar

StartChar: Thorn
Encoding: 222 222 160
Width: 582
GlyphClass: 1
Flags: W
LayerCount: 2
Fore
SplineSet
15 0 m 1,0,-1
 126 0 l 1,1,-1
 151 115 l 1,2,-1
 312 115 l 2,3,4
 365 115 365 115 412 138.5 c 128,-1,5
 459 162 459 162 494.5 200.5 c 128,-1,6
 530 239 530 239 551 287.5 c 128,-1,7
 572 336 572 336 572 386 c 0,8,9
 572 422 572 422 560.5 456.5 c 128,-1,10
 549 491 549 491 527.5 517.5 c 128,-1,11
 506 544 506 544 475.5 560.5 c 128,-1,12
 445 577 445 577 405 577 c 2,13,-1
 249 577 l 1,14,-1
 277 710 l 1,15,-1
 166 710 l 1,16,-1
 15 0 l 1,0,-1
172 213 m 1,17,-1
 228 479 l 1,18,-1
 379 479 l 2,19,20
 397 479 397 479 411.5 471 c 128,-1,21
 426 463 426 463 436.5 449 c 128,-1,22
 447 435 447 435 453 415.5 c 128,-1,23
 459 396 459 396 459 374 c 0,24,25
 459 345 459 345 448.5 315.5 c 128,-1,26
 438 286 438 286 420 263 c 128,-1,27
 402 240 402 240 378 226.5 c 128,-1,28
 354 213 354 213 328 213 c 2,29,-1
 172 213 l 1,17,-1
EndSplineSet
EndChar

StartChar: germandbls
Encoding: 223 223 161
Width: 535
GlyphClass: 1
Flags: W
LayerCount: 2
Fore
SplineSet
170 -6 m 1,0,1
 233 -4 233 -4 290.5 12 c 128,-1,2
 348 28 348 28 391.5 60 c 128,-1,3
 435 92 435 92 461 139 c 128,-1,4
 487 186 487 186 487 251 c 0,5,6
 487 306 487 306 461.5 347.5 c 128,-1,7
 436 389 436 389 386 402 c 1,8,9
 409 410 409 410 431.5 427 c 128,-1,10
 454 444 454 444 471 468 c 128,-1,11
 488 492 488 492 499 521 c 128,-1,12
 510 550 510 550 510 580 c 0,13,14
 510 641 510 641 468 677.5 c 128,-1,15
 426 714 426 714 357 714 c 0,16,17
 313 714 313 714 272.5 699.5 c 128,-1,18
 232 685 232 685 199 659.5 c 128,-1,19
 166 634 166 634 143 598.5 c 128,-1,20
 120 563 120 563 111 519 c 2,21,-1
 1 0 l 1,22,-1
 104 0 l 1,23,-1
 211 501 l 2,24,25
 216 526 216 526 226 547.5 c 128,-1,26
 236 569 236 569 251 585.5 c 128,-1,27
 266 602 266 602 286 611.5 c 128,-1,28
 306 621 306 621 331 621 c 0,29,30
 360 621 360 621 381 604 c 128,-1,31
 402 587 402 587 402 553 c 0,32,33
 402 530 402 530 394 510.5 c 128,-1,34
 386 491 386 491 371.5 476.5 c 128,-1,35
 357 462 357 462 337.5 453 c 128,-1,36
 318 444 318 444 294 444 c 2,37,-1
 276 444 l 1,38,-1
 255 346 l 1,39,-1
 275 346 l 2,40,41
 297 346 297 346 315 339 c 128,-1,42
 333 332 333 332 346.5 319 c 128,-1,43
 360 306 360 306 367 288 c 128,-1,44
 374 270 374 270 374 246 c 0,45,46
 374 208 374 208 360 179 c 128,-1,47
 346 150 346 150 321.5 131.5 c 128,-1,48
 297 113 297 113 263.5 103.5 c 128,-1,49
 230 94 230 94 191 94 c 1,50,-1
 170 -6 l 1,0,1
EndSplineSet
EndChar

StartChar: ae
Encoding: 230 230 168
Width: 936
GlyphClass: 1
Flags: W
LayerCount: 2
Fore
SplineSet
204 -10 m 0,0,1
 260 -10 260 -10 307 17.5 c 128,-1,2
 354 45 354 45 390 93 c 1,3,-1
 370 0 l 1,4,-1
 468 0 l 1,5,-1
 494 124 l 1,6,-1
 476 254 l 1,7,-1
 549 379 l 1,8,-1
 578 517 l 1,9,-1
 480 517 l 1,10,-1
 459 423 l 1,11,12
 445 472 445 472 406 502 c 128,-1,13
 367 532 367 532 309 532 c 0,14,15
 254 532 254 532 201.5 505.5 c 128,-1,16
 149 479 149 479 108.5 434 c 128,-1,17
 68 389 68 389 43.5 330 c 128,-1,18
 19 271 19 271 19 205 c 0,19,20
 19 161 19 161 31.5 121.5 c 128,-1,21
 44 82 44 82 67.5 52.5 c 128,-1,22
 91 23 91 23 125.5 6.5 c 128,-1,23
 160 -10 160 -10 204 -10 c 0,0,1
251 83 m 0,24,25
 224 83 224 83 202 93.5 c 128,-1,26
 180 104 180 104 165 123 c 128,-1,27
 150 142 150 142 141.5 167.5 c 128,-1,28
 133 193 133 193 133 223 c 0,29,30
 133 262 133 262 148.5 300.5 c 128,-1,31
 164 339 164 339 190 370 c 128,-1,32
 216 401 216 401 250.5 420 c 128,-1,33
 285 439 285 439 322 439 c 0,34,35
 345 439 345 439 365 430.5 c 128,-1,36
 385 422 385 422 400 406.5 c 128,-1,37
 415 391 415 391 425 370 c 128,-1,38
 435 349 435 349 439 324 c 1,39,-1
 409 186 l 1,40,41
 395 164 395 164 377 145 c 128,-1,42
 359 126 359 126 339 112.5 c 128,-1,43
 319 99 319 99 296.5 91 c 128,-1,44
 274 83 274 83 251 83 c 0,24,25
620 -10 m 0,45,46
 658 -10 658 -10 694.5 0 c 128,-1,47
 731 10 731 10 764 28 c 128,-1,48
 797 46 797 46 825 70 c 128,-1,49
 853 94 853 94 872 124 c 1,50,-1
 785 150 l 1,51,52
 774 132 774 132 757.5 117 c 128,-1,53
 741 102 741 102 722 91.5 c 128,-1,54
 703 81 703 81 681.5 75.5 c 128,-1,55
 660 70 660 70 639 70 c 0,56,57
 609 70 609 70 587 81 c 128,-1,58
 565 92 565 92 550.5 111 c 128,-1,59
 536 130 536 130 529 155 c 128,-1,60
 522 180 522 180 522 209 c 0,61,62
 522 250 522 250 534 292.5 c 128,-1,63
 546 335 546 335 571 370.5 c 128,-1,64
 596 406 596 406 633.5 429 c 128,-1,65
 671 452 671 452 722 452 c 0,66,67
 742 452 742 452 759 448 c 128,-1,68
 776 444 776 444 788 435.5 c 128,-1,69
 800 427 800 427 806.5 414.5 c 128,-1,70
 813 402 813 402 813 385 c 0,71,72
 813 365 813 365 803 348.5 c 128,-1,73
 793 332 793 332 770.5 320 c 128,-1,74
 748 308 748 308 712 302 c 128,-1,75
 676 296 676 296 623 296 c 0,76,77
 596 296 596 296 568 297.5 c 128,-1,78
 540 299 540 299 510 302 c 1,79,-1
 486 231 l 1,80,81
 523 227 523 227 557.5 225.5 c 128,-1,82
 592 224 592 224 620 224 c 0,83,84
 769 224 769 224 841 265.5 c 128,-1,85
 913 307 913 307 913 389 c 0,86,87
 913 424 913 424 900 451 c 128,-1,88
 887 478 887 478 863 495.5 c 128,-1,89
 839 513 839 513 806 522.5 c 128,-1,90
 773 532 773 532 733 532 c 0,91,92
 664 532 664 532 609.5 506 c 128,-1,93
 555 480 555 480 516.5 435.5 c 128,-1,94
 478 391 478 391 457 333 c 128,-1,95
 436 275 436 275 436 211 c 0,96,97
 436 164 436 164 446.5 123.5 c 128,-1,98
 457 83 457 83 479 53.5 c 128,-1,99
 501 24 501 24 536 7 c 128,-1,100
 571 -10 571 -10 620 -10 c 0,45,46
EndSplineSet
EndChar

StartChar: idieresis
Encoding: 239 239 177
Width: 241
GlyphClass: 1
Flags: W
LayerCount: 2
Fore
SplineSet
83 669 m 0,0,1
 78 643 78 643 88 624.5 c 128,-1,2
 98 606 98 606 118 606 c 0,3,4
 139 606 139 606 157 624.5 c 128,-1,5
 175 643 175 643 180 669 c 0,6,7
 186 696 186 696 176 714.5 c 128,-1,8
 166 733 166 733 145 733 c 0,9,10
 125 733 125 733 107 714.5 c 128,-1,11
 89 696 89 696 83 669 c 0,0,1
217 669 m 0,12,13
 212 643 212 643 222 624.5 c 128,-1,14
 232 606 232 606 252 606 c 0,15,16
 273 606 273 606 291 624.5 c 128,-1,17
 309 643 309 643 315 669 c 0,18,19
 320 696 320 696 310 714.5 c 128,-1,20
 300 733 300 733 280 733 c 0,21,22
 259 733 259 733 241 714.5 c 128,-1,23
 223 696 223 696 217 669 c 0,12,13
1 0 m 1,24,-1
 109 0 l 1,25,-1
 220 523 l 1,26,-1
 112 523 l 1,27,-1
 1 0 l 1,24,-1
EndSplineSet
EndChar

StartChar: eth
Encoding: 240 240 178
Width: 587
GlyphClass: 1
Flags: W
LayerCount: 2
Fore
SplineSet
556 373 m 0,0,1
 556 419 556 419 547 469 c 128,-1,2
 538 519 538 519 517.5 566.5 c 128,-1,3
 497 614 497 614 465.5 656.5 c 128,-1,4
 434 699 434 699 388 730 c 1,5,-1
 245 730 l 1,6,7
 297 696 297 696 333 661.5 c 128,-1,8
 369 627 369 627 393 591 c 128,-1,9
 417 555 417 555 430 518.5 c 128,-1,10
 443 482 443 482 448 443 c 0,11,12
 451 428 451 428 452 412 c 128,-1,13
 453 396 453 396 453 379 c 1,14,15
 436 422 436 422 396 447.5 c 128,-1,16
 356 473 356 473 302 473 c 256,17,18
 248 473 248 473 196 450 c 128,-1,19
 144 427 144 427 104 388 c 128,-1,20
 64 349 64 349 39.5 298 c 128,-1,21
 15 247 15 247 15 191 c 0,22,23
 15 149 15 149 30 112 c 128,-1,24
 45 75 45 75 72 48 c 128,-1,25
 99 21 99 21 137 5.5 c 128,-1,26
 175 -10 175 -10 221 -10 c 0,27,28
 287 -10 287 -10 347 17 c 128,-1,29
 407 44 407 44 454 94 c 128,-1,30
 501 144 501 144 528.5 214.5 c 128,-1,31
 556 285 556 285 556 373 c 0,0,1
128 205 m 0,32,33
 128 241 128 241 143 274 c 128,-1,34
 158 307 158 307 183.5 331.5 c 128,-1,35
 209 356 209 356 242 370.5 c 128,-1,36
 275 385 275 385 310 385 c 0,37,38
 337 385 337 385 358 376 c 128,-1,39
 379 367 379 367 394.5 351 c 128,-1,40
 410 335 410 335 418.5 313 c 128,-1,41
 427 291 427 291 427 265 c 0,42,43
 427 230 427 230 411.5 196.5 c 128,-1,44
 396 163 396 163 370.5 138 c 128,-1,45
 345 113 345 113 312 98 c 128,-1,46
 279 83 279 83 243 83 c 0,47,48
 218 83 218 83 196 92 c 128,-1,49
 174 101 174 101 159.5 118 c 128,-1,50
 145 135 145 135 136.5 157 c 128,-1,51
 128 179 128 179 128 205 c 0,32,33
549 713 m 1,52,-1
 428 647 l 1,53,-1
 394 638 l 1,54,-1
 272 571 l 1,55,-1
 295 528 l 1,56,-1
 419 596 l 1,57,-1
 456 607 l 1,58,-1
 571 669 l 1,59,-1
 549 713 l 1,52,-1
EndSplineSet
EndChar

StartChar: divide
Encoding: 247 247 185
Width: 523
GlyphClass: 1
Flags: W
LayerCount: 2
Fore
SplineSet
463 248 m 1,0,-1
 463 335 l 1,1,-1
 60 335 l 1,2,-1
 60 248 l 1,3,-1
 463 248 l 1,0,-1
198 108 m 0,4,5
 198 82 198 82 216.5 63.5 c 128,-1,6
 235 45 235 45 262 45 c 0,7,8
 288 45 288 45 306.5 63.5 c 128,-1,9
 325 82 325 82 325 108 c 0,10,11
 325 135 325 135 306.5 153.5 c 128,-1,12
 288 172 288 172 262 172 c 0,13,14
 235 172 235 172 216.5 153.5 c 128,-1,15
 198 135 198 135 198 108 c 0,4,5
199 476 m 0,16,17
 199 449 199 449 217.5 430 c 128,-1,18
 236 411 236 411 262 411 c 0,19,20
 289 411 289 411 307.5 430 c 128,-1,21
 326 449 326 449 326 476 c 0,22,23
 326 502 326 502 307.5 520.5 c 128,-1,24
 289 539 289 539 262 539 c 0,25,26
 236 539 236 539 217.5 520.5 c 128,-1,27
 199 502 199 502 199 476 c 0,16,17
EndSplineSet
EndChar

StartChar: oslash
Encoding: 248 248 186
Width: 582
GlyphClass: 1
Flags: W
LayerCount: 2
Fore
SplineSet
225 -10 m 0,0,1
 293 -10 293 -10 351.5 17 c 128,-1,2
 410 44 410 44 453 89.5 c 128,-1,3
 496 135 496 135 521 193 c 128,-1,4
 546 251 546 251 546 313 c 0,5,6
 546 358 546 358 532.5 398 c 128,-1,7
 519 438 519 438 492.5 467.5 c 128,-1,8
 466 497 466 497 428 514.5 c 128,-1,9
 390 532 390 532 340 532 c 0,10,11
 273 532 273 532 214.5 505 c 128,-1,12
 156 478 156 478 112.5 432.5 c 128,-1,13
 69 387 69 387 44 329 c 128,-1,14
 19 271 19 271 19 208 c 0,15,16
 19 163 19 163 32.5 123.5 c 128,-1,17
 46 84 46 84 72 54.5 c 128,-1,18
 98 25 98 25 136.5 7.5 c 128,-1,19
 175 -10 175 -10 225 -10 c 0,0,1
244 83 m 0,20,21
 219 83 219 83 198 93 c 128,-1,22
 177 103 177 103 162 121.5 c 128,-1,23
 147 140 147 140 139 165.5 c 128,-1,24
 131 191 131 191 131 222 c 0,25,26
 131 265 131 265 147.5 305 c 128,-1,27
 164 345 164 345 190.5 374.5 c 128,-1,28
 217 404 217 404 251 421.5 c 128,-1,29
 285 439 285 439 320 439 c 0,30,31
 346 439 346 439 366.5 428.5 c 128,-1,32
 387 418 387 418 402 399.5 c 128,-1,33
 417 381 417 381 425 355.5 c 128,-1,34
 433 330 433 330 433 300 c 0,35,36
 433 255 433 255 416.5 215.5 c 128,-1,37
 400 176 400 176 373.5 147 c 128,-1,38
 347 118 347 118 313.5 100.5 c 128,-1,39
 280 83 280 83 244 83 c 0,20,21
0 -3 m 1,40,-1
 63 -3 l 1,41,-1
 140 72 l 1,42,-1
 113 107 l 1,43,-1
 0 -3 l 1,40,-1
147 81 m 1,44,-1
 452 422 l 1,45,-1
 420 448 l 1,46,-1
 122 112 l 1,47,-1
 147 81 l 1,44,-1
462 428 m 1,48,-1
 562 526 l 1,49,-1
 497 526 l 1,50,-1
 427 456 l 1,51,-1
 462 428 l 1,48,-1
EndSplineSet
EndChar

StartChar: thorn
Encoding: 254 254 192
Width: 588
GlyphClass: 1
Flags: W
LayerCount: 2
Fore
SplineSet
64 -213 m 1,0,-1
 130 98 l 1,1,2
 138 75 138 75 151.5 54.5 c 128,-1,3
 165 34 165 34 184.5 20 c 128,-1,4
 204 6 204 6 229 -2 c 128,-1,5
 254 -10 254 -10 283 -10 c 0,6,7
 340 -10 340 -10 392 17 c 128,-1,8
 444 44 444 44 483.5 89 c 128,-1,9
 523 134 523 134 546 193 c 128,-1,10
 569 252 569 252 569 315 c 0,11,12
 569 360 569 360 556.5 399 c 128,-1,13
 544 438 544 438 520 468 c 128,-1,14
 496 498 496 498 462 515 c 128,-1,15
 428 532 428 532 385 532 c 0,16,17
 360 532 360 532 335.5 526 c 128,-1,18
 311 520 311 520 287.5 509 c 128,-1,19
 264 498 264 498 243.5 482.5 c 128,-1,20
 223 467 223 467 206 447 c 1,21,-1
 263 710 l 1,22,-1
 152 710 l 1,23,-1
 -44 -213 l 1,24,-1
 64 -213 l 1,0,-1
268 83 m 0,25,26
 245 83 245 83 225.5 91.5 c 128,-1,27
 206 100 206 100 191 115.5 c 128,-1,28
 176 131 176 131 165.5 152 c 128,-1,29
 155 173 155 173 151 197 c 1,30,-1
 180 335 l 1,31,32
 191 357 191 357 209 376 c 128,-1,33
 227 395 227 395 248.5 409 c 128,-1,34
 270 423 270 423 293 431 c 128,-1,35
 316 439 316 439 336 439 c 0,36,37
 363 439 363 439 385 428 c 128,-1,38
 407 417 407 417 423 398 c 128,-1,39
 439 379 439 379 447 353 c 128,-1,40
 455 327 455 327 455 298 c 0,41,42
 455 259 455 259 440 220.5 c 128,-1,43
 425 182 425 182 399 151 c 128,-1,44
 373 120 373 120 339.5 101.5 c 128,-1,45
 306 83 306 83 268 83 c 0,25,26
EndSplineSet
EndChar

StartChar: Dcroat
Encoding: 272 272 210
Width: 698
GlyphClass: 1
Flags: W
LayerCount: 2
Fore
SplineSet
39 316 m 1,0,-1
 342 316 l 1,1,-1
 359 398 l 1,2,-1
 57 398 l 1,3,-1
 39 316 l 1,0,-1
22 0 m 1,4,-1
 262 0 l 2,5,6
 351 0 351 0 427 33 c 128,-1,7
 503 66 503 66 559 124.5 c 128,-1,8
 615 183 615 183 646.5 262.5 c 128,-1,9
 678 342 678 342 678 436 c 0,10,11
 678 493 678 493 662 543.5 c 128,-1,12
 646 594 646 594 613.5 631 c 128,-1,13
 581 668 581 668 531 689 c 128,-1,14
 481 710 481 710 413 710 c 2,15,-1
 173 710 l 1,16,-1
 22 0 l 1,4,-1
153 98 m 1,17,-1
 263 612 l 1,18,-1
 392 612 l 2,19,20
 434 612 434 612 466.5 597.5 c 128,-1,21
 499 583 499 583 520 557.5 c 128,-1,22
 541 532 541 532 552 496.5 c 128,-1,23
 563 461 563 461 563 419 c 0,24,25
 563 356 563 356 543.5 297.5 c 128,-1,26
 524 239 524 239 487.5 194.5 c 128,-1,27
 451 150 451 150 399 124 c 128,-1,28
 347 98 347 98 283 98 c 2,29,-1
 153 98 l 1,17,-1
EndSplineSet
EndChar

StartChar: dcroat
Encoding: 273 273 211
Width: 614
GlyphClass: 1
Flags: W
LayerCount: 2
Fore
SplineSet
408 597 m 1,0,-1
 677 597 l 1,1,-1
 692 663 l 1,2,-1
 422 663 l 1,3,-1
 408 597 l 1,0,-1
205 -10 m 0,4,5
 231 -10 231 -10 256 -3.5 c 128,-1,6
 281 3 281 3 304.5 16 c 128,-1,7
 328 29 328 29 348.5 47 c 128,-1,8
 369 65 369 65 387 87 c 1,9,-1
 368 0 l 1,10,-1
 477 0 l 1,11,-1
 632 730 l 1,12,-1
 523 730 l 1,13,-1
 458 424 l 1,14,15
 449 447 449 447 435 467 c 128,-1,16
 421 487 421 487 402 501 c 128,-1,17
 383 515 383 515 359 523.5 c 128,-1,18
 335 532 335 532 306 532 c 0,19,20
 250 532 250 532 198 505 c 128,-1,21
 146 478 146 478 106.5 433 c 128,-1,22
 67 388 67 388 43 329 c 128,-1,23
 19 270 19 270 19 206 c 0,24,25
 19 161 19 161 31.5 122 c 128,-1,26
 44 83 44 83 68 53.5 c 128,-1,27
 92 24 92 24 126.5 7 c 128,-1,28
 161 -10 161 -10 205 -10 c 0,4,5
252 83 m 0,29,30
 224 83 224 83 202.5 93.5 c 128,-1,31
 181 104 181 104 165.5 123 c 128,-1,32
 150 142 150 142 141.5 168 c 128,-1,33
 133 194 133 194 133 224 c 0,34,35
 133 263 133 263 148.5 301.5 c 128,-1,36
 164 340 164 340 189.5 370.5 c 128,-1,37
 215 401 215 401 249 420 c 128,-1,38
 283 439 283 439 320 439 c 0,39,40
 341 439 341 439 361 430.5 c 128,-1,41
 381 422 381 422 397 406.5 c 128,-1,42
 413 391 413 391 423.5 370.5 c 128,-1,43
 434 350 434 350 437 326 c 1,44,-1
 408 187 l 1,45,46
 399 165 399 165 380.5 146 c 128,-1,47
 362 127 362 127 340.5 113 c 128,-1,48
 319 99 319 99 296 91 c 128,-1,49
 273 83 273 83 252 83 c 0,29,30
EndSplineSet
EndChar

StartChar: hcircumflex
Encoding: 293 293 231
Width: 574
GlyphClass: 1
Flags: W
LayerCount: 2
Fore
SplineSet
1 0 m 1,0,-1
 109 0 l 1,1,-1
 175 311 l 1,2,3
 189 338 189 338 209 361 c 128,-1,4
 229 384 229 384 251.5 400.5 c 128,-1,5
 274 417 274 417 297 426.5 c 128,-1,6
 320 436 320 436 341 436 c 0,7,8
 375 436 375 436 393 415 c 128,-1,9
 411 394 411 394 411 353 c 0,10,11
 411 339 411 339 409 324.5 c 128,-1,12
 407 310 407 310 404 293 c 2,13,-1
 342 0 l 1,14,-1
 450 0 l 1,15,-1
 517 319 l 2,16,17
 522 341 522 341 524.5 363 c 128,-1,18
 527 385 527 385 527 405 c 0,19,20
 527 433 527 433 521 456 c 128,-1,21
 515 479 515 479 501 496 c 128,-1,22
 487 513 487 513 463.5 522.5 c 128,-1,23
 440 532 440 532 406 532 c 0,24,25
 377 532 377 532 348.5 524 c 128,-1,26
 320 516 320 516 293 501.5 c 128,-1,27
 266 487 266 487 242 465.5 c 128,-1,28
 218 444 218 444 198 418 c 1,29,-1
 264 730 l 1,30,-1
 156 730 l 1,31,-1
 1 0 l 1,0,-1
454 914 m 1,32,-1
 357 914 l 1,33,-1
 243 770 l 1,34,-1
 296 770 l 1,35,-1
 454 914 l 1,32,-1
372 914 m 1,36,-1
 471 770 l 1,37,-1
 525 770 l 1,38,-1
 469 914 l 1,39,-1
 372 914 l 1,36,-1
EndSplineSet
EndChar

StartChar: Hbar
Encoding: 294 294 232
Width: 724
GlyphClass: 1
Flags: W
LayerCount: 2
Fore
SplineSet
89 546 m 1,0,-1
 741 546 l 1,1,-1
 752 601 l 1,2,-1
 101 601 l 1,3,-1
 89 546 l 1,0,-1
21 0 m 1,4,-1
 132 0 l 1,5,-1
 199 314 l 1,6,-1
 533 314 l 1,7,-1
 466 0 l 1,8,-1
 577 0 l 1,9,-1
 728 710 l 1,10,-1
 617 710 l 1,11,-1
 554 412 l 1,12,-1
 220 412 l 1,13,-1
 283 710 l 1,14,-1
 172 710 l 1,15,-1
 21 0 l 1,4,-1
EndSplineSet
EndChar

StartChar: hbar
Encoding: 295 295 233
Width: 574
GlyphClass: 1
Flags: W
LayerCount: 2
Fore
SplineSet
63 597 m 1,0,-1
 332 597 l 1,1,-1
 347 663 l 1,2,-1
 77 663 l 1,3,-1
 63 597 l 1,0,-1
1 0 m 1,4,-1
 109 0 l 1,5,-1
 175 311 l 1,6,7
 189 338 189 338 209 361 c 128,-1,8
 229 384 229 384 251.5 400.5 c 128,-1,9
 274 417 274 417 297 426.5 c 128,-1,10
 320 436 320 436 341 436 c 0,11,12
 375 436 375 436 393 415 c 128,-1,13
 411 394 411 394 411 353 c 0,14,15
 411 339 411 339 409 324.5 c 128,-1,16
 407 310 407 310 404 293 c 2,17,-1
 342 0 l 1,18,-1
 450 0 l 1,19,-1
 517 319 l 2,20,21
 522 341 522 341 524.5 363 c 128,-1,22
 527 385 527 385 527 405 c 0,23,24
 527 433 527 433 521 456 c 128,-1,25
 515 479 515 479 501 496 c 128,-1,26
 487 513 487 513 463.5 522.5 c 128,-1,27
 440 532 440 532 406 532 c 0,28,29
 377 532 377 532 348.5 524 c 128,-1,30
 320 516 320 516 293 501.5 c 128,-1,31
 266 487 266 487 242 465.5 c 128,-1,32
 218 444 218 444 198 418 c 1,33,-1
 264 730 l 1,34,-1
 156 730 l 1,35,-1
 1 0 l 1,4,-1
EndSplineSet
EndChar

StartChar: dotlessi
Encoding: 305 305 243
Width: 238
GlyphClass: 1
Flags: W
LayerCount: 2
Fore
SplineSet
1 0 m 1,0,-1
 109 0 l 1,1,-1
 220 523 l 1,2,-1
 112 523 l 1,3,-1
 1 0 l 1,0,-1
EndSplineSet
EndChar

StartChar: kgreenlandic
Encoding: 312 312 248
Width: 527
GlyphClass: 1
Flags: W
LayerCount: 2
Fore
SplineSet
1 0 m 1,0,-1
 109 0 l 1,1,-1
 143 159 l 1,2,-1
 241 242 l 1,3,-1
 346 0 l 1,4,-1
 462 0 l 1,5,-1
 323 303 l 1,6,-1
 560 522 l 1,7,-1
 444 522 l 1,8,-1
 166 266 l 1,9,-1
 220 523 l 1,10,-1
 112 523 l 1,11,-1
 1 0 l 1,0,-1
EndSplineSet
EndChar

StartChar: Lslash
Encoding: 321 321 257
Width: 567
GlyphClass: 1
Flags: W
LayerCount: 2
Fore
SplineSet
23 237 m 1,0,-1
 378 464 l 1,1,-1
 363 524 l 1,2,-1
 6 297 l 1,3,-1
 23 237 l 1,0,-1
15 0 m 1,4,-1
 485 0 l 1,5,-1
 505 98 l 1,6,-1
 147 98 l 1,7,-1
 277 710 l 1,8,-1
 166 710 l 1,9,-1
 15 0 l 1,4,-1
EndSplineSet
EndChar

StartChar: lslash
Encoding: 322 322 258
Width: 320
GlyphClass: 1
Flags: W
LayerCount: 2
Fore
SplineSet
29 277 m 1,0,-1
 341 464 l 1,1,-1
 324 523 l 1,2,-1
 13 336 l 1,3,-1
 29 277 l 1,0,-1
141 -8 m 0,4,5
 167 -8 167 -8 200 -1 c 128,-1,6
 233 6 233 6 259 16 c 1,7,-1
 262 101 l 1,8,9
 248 95 248 95 233 91.5 c 128,-1,10
 218 88 218 88 207 88 c 0,11,12
 186 88 186 88 175.5 99 c 128,-1,13
 165 110 165 110 165 130 c 0,14,15
 165 138 165 138 166 146 c 128,-1,16
 167 154 167 154 170 166 c 2,17,-1
 290 730 l 1,18,-1
 181 730 l 1,19,-1
 50 111 l 2,20,21
 48 102 48 102 47 93.5 c 128,-1,22
 46 85 46 85 46 76 c 0,23,24
 46 36 46 36 70.5 14 c 128,-1,25
 95 -8 95 -8 141 -8 c 0,4,5
EndSplineSet
EndChar

StartChar: Eng
Encoding: 330 330 265
Width: 727
GlyphClass: 1
Flags: W
LayerCount: 2
Fore
SplineSet
377 -191 m 0,0,1
 409 -191 409 -191 442 -178 c 128,-1,2
 475 -165 475 -165 502.5 -142 c 128,-1,3
 530 -119 530 -119 550.5 -86.5 c 128,-1,4
 571 -54 571 -54 579 -15 c 2,5,-1
 733 709 l 1,6,-1
 622 709 l 1,7,-1
 514 201 l 1,8,-1
 252 710 l 1,9,-1
 166 710 l 1,10,-1
 15 0 l 1,11,-1
 126 0 l 1,12,-1
 233 501 l 1,13,-1
 478 21 l 1,14,-1
 470 -19 l 2,15,16
 466 -35 466 -35 458 -49.5 c 128,-1,17
 450 -64 450 -64 438 -74 c 128,-1,18
 426 -84 426 -84 411.5 -90 c 128,-1,19
 397 -96 397 -96 384 -96 c 0,20,21
 368 -96 368 -96 353.5 -90.5 c 128,-1,22
 339 -85 339 -85 330 -73 c 1,23,-1
 266 -146 l 1,24,25
 286 -169 286 -169 314.5 -180 c 128,-1,26
 343 -191 343 -191 377 -191 c 0,0,1
EndSplineSet
EndChar

StartChar: eng
Encoding: 331 331 266
Width: 574
GlyphClass: 1
Flags: W
LayerCount: 2
Fore
SplineSet
244 -191 m 256,0,1
 278 -191 278 -191 310.5 -177.5 c 128,-1,2
 343 -164 343 -164 370.5 -140 c 128,-1,3
 398 -116 398 -116 418.5 -83.5 c 128,-1,4
 439 -51 439 -51 447 -11 c 2,5,-1
 517 319 l 2,6,7
 522 343 522 343 525.5 366 c 128,-1,8
 529 389 529 389 529 410 c 0,9,10
 529 437 529 437 523 459 c 128,-1,11
 517 481 517 481 503.5 497.5 c 128,-1,12
 490 514 490 514 468 523 c 128,-1,13
 446 532 446 532 413 532 c 0,14,15
 381 532 381 532 349 524 c 128,-1,16
 317 516 317 516 287.5 501 c 128,-1,17
 258 486 258 486 232.5 464.5 c 128,-1,18
 207 443 207 443 188 418 c 1,19,-1
 210 523 l 1,20,-1
 112 523 l 1,21,-1
 1 0 l 1,22,-1
 109 0 l 1,23,-1
 175 311 l 1,24,25
 189 338 189 338 209 361 c 128,-1,26
 229 384 229 384 252.5 400.5 c 128,-1,27
 276 417 276 417 300.5 426.5 c 128,-1,28
 325 436 325 436 347 436 c 0,29,30
 378 436 378 436 395 417 c 128,-1,31
 412 398 412 398 412 358 c 0,32,33
 412 344 412 344 410 328 c 128,-1,34
 408 312 408 312 404 293 c 2,35,-1
 337 -19 l 2,36,37
 334 -35 334 -35 325 -49.5 c 128,-1,38
 316 -64 316 -64 304 -74 c 128,-1,39
 292 -84 292 -84 278.5 -90 c 128,-1,40
 265 -96 265 -96 252 -96 c 0,41,42
 236 -96 236 -96 221 -90.5 c 128,-1,43
 206 -85 206 -85 196 -73 c 1,44,-1
 133 -146 l 1,45,46
 153 -169 153 -169 181.5 -180 c 128,-1,47
 210 -191 210 -191 244 -191 c 256,0,1
EndSplineSet
EndChar

StartChar: OE
Encoding: 338 338 273
Width: 1057
GlyphClass: 1
Flags: W
LayerCount: 2
Fore
SplineSet
292 -5 m 0,0,1
 326 -5 326 -5 359.5 5.5 c 128,-1,2
 393 16 393 16 424 34.5 c 128,-1,3
 455 53 455 53 482.5 79 c 128,-1,4
 510 105 510 105 533 134 c 1,5,-1
 504 0 l 1,6,-1
 957 0 l 1,7,-1
 978 98 l 1,8,-1
 636 98 l 1,9,-1
 682 313 l 1,10,-1
 964 313 l 1,11,-1
 985 411 l 1,12,-1
 703 411 l 1,13,-1
 745 612 l 1,14,-1
 1079 612 l 1,15,-1
 1100 710 l 1,16,-1
 655 710 l 1,17,-1
 627 576 l 1,18,19
 617 606 617 606 601 631 c 128,-1,20
 585 656 585 656 562.5 675 c 128,-1,21
 540 694 540 694 511 704.5 c 128,-1,22
 482 715 482 715 447 715 c 0,23,24
 369 715 369 715 295 679 c 128,-1,25
 221 643 221 643 165 583 c 128,-1,26
 109 523 109 523 75 446 c 128,-1,27
 41 369 41 369 41 288 c 0,28,29
 41 231 41 231 57.5 178 c 128,-1,30
 74 125 74 125 106 84.5 c 128,-1,31
 138 44 138 44 185 19.5 c 128,-1,32
 232 -5 232 -5 292 -5 c 0,0,1
314 94 m 0,33,34
 274 94 274 94 244.5 111 c 128,-1,35
 215 128 215 128 195 155.5 c 128,-1,36
 175 183 175 183 164.5 219.5 c 128,-1,37
 154 256 154 256 154 297 c 0,38,39
 154 353 154 353 175 410 c 128,-1,40
 196 467 196 467 232 512.5 c 128,-1,41
 268 558 268 558 318 587 c 128,-1,42
 368 616 368 616 425 616 c 0,43,44
 463 616 463 616 492.5 599 c 128,-1,45
 522 582 522 582 542.5 554.5 c 128,-1,46
 563 527 563 527 573.5 490.5 c 128,-1,47
 584 454 584 454 584 413 c 0,48,49
 584 357 584 357 563 300.5 c 128,-1,50
 542 244 542 244 506 198 c 128,-1,51
 470 152 470 152 421 123 c 128,-1,52
 372 94 372 94 314 94 c 0,33,34
EndSplineSet
EndChar

StartChar: Tbar
Encoding: 358 358 293
Width: 618
GlyphClass: 1
Flags: W
LayerCount: 2
Fore
SplineSet
70 334 m 1,0,-1
 559 334 l 1,1,-1
 571 389 l 1,2,-1
 82 389 l 1,3,-1
 70 334 l 1,0,-1
188 0 m 1,4,-1
 299 0 l 1,5,-1
 429 612 l 1,6,-1
 652 612 l 1,7,-1
 673 710 l 1,8,-1
 116 710 l 1,9,-1
 95 612 l 1,10,-1
 318 612 l 1,11,-1
 188 0 l 1,4,-1
EndSplineSet
EndChar

StartChar: tbar
Encoding: 359 359 294
Width: 354
GlyphClass: 1
Flags: W
LayerCount: 2
Fore
SplineSet
19 280 m 1,0,-1
 298 280 l 1,1,-1
 312 346 l 1,2,-1
 34 346 l 1,3,-1
 19 280 l 1,0,-1
47 78 m 0,4,5
 47 33 47 33 76 12.5 c 128,-1,6
 105 -8 105 -8 148 -8 c 0,7,8
 168 -8 168 -8 187.5 -5 c 128,-1,9
 207 -2 207 -2 225.5 3 c 128,-1,10
 244 8 244 8 259.5 14 c 128,-1,11
 275 20 275 20 287 27 c 1,12,-1
 283 113 l 1,13,14
 277 110 277 110 268.5 106.5 c 128,-1,15
 260 103 260 103 250 99.5 c 128,-1,16
 240 96 240 96 229 94 c 128,-1,17
 218 92 218 92 207 92 c 0,18,19
 189 92 189 92 177 100.5 c 128,-1,20
 165 109 165 109 165 129 c 0,21,22
 165 133 165 133 165.5 137 c 128,-1,23
 166 141 166 141 167 145 c 2,24,-1
 229 439 l 1,25,-1
 337 439 l 1,26,-1
 355 523 l 1,27,-1
 247 523 l 1,28,-1
 283 695 l 1,29,-1
 175 695 l 1,30,-1
 138 523 l 1,31,-1
 73 523 l 1,32,-1
 54 439 l 1,33,-1
 121 439 l 1,34,-1
 51 110 l 2,35,36
 49 101 49 101 48 93 c 128,-1,37
 47 85 47 85 47 78 c 0,4,5
EndSplineSet
EndChar

StartChar: uni018F
Encoding: 399 399 318
Width: 711
GlyphClass: 1
Flags: W
LayerCount: 2
Fore
SplineSet
285 -5 m 0,0,1
 366 -5 366 -5 440 30.5 c 128,-1,2
 514 66 514 66 570 126 c 128,-1,3
 626 186 626 186 659.5 263.5 c 128,-1,4
 693 341 693 341 693 425 c 0,5,6
 693 485 693 485 675.5 537.5 c 128,-1,7
 658 590 658 590 625.5 629.5 c 128,-1,8
 593 669 593 669 546 692 c 128,-1,9
 499 715 499 715 440 715 c 0,10,11
 393 715 393 715 346 701.5 c 128,-1,12
 299 688 299 688 256.5 665 c 128,-1,13
 214 642 214 642 177.5 608.5 c 128,-1,14
 141 575 141 575 113 535 c 1,15,-1
 214 492 l 1,16,17
 228 519 228 519 249.5 541.5 c 128,-1,18
 271 564 271 564 297.5 580 c 128,-1,19
 324 596 324 596 354 605 c 128,-1,20
 384 614 384 614 413 614 c 0,21,22
 449 614 449 614 478 601 c 128,-1,23
 507 588 507 588 528 563.5 c 128,-1,24
 549 539 549 539 561 505 c 128,-1,25
 573 471 573 471 573 430 c 0,26,27
 573 421 573 421 572.5 412.5 c 128,-1,28
 572 404 572 404 571 396 c 1,29,-1
 47 396 l 1,30,31
 41 382 41 382 33 353.5 c 128,-1,32
 25 325 25 325 25 282 c 0,33,34
 25 224 25 224 43 172 c 128,-1,35
 61 120 61 120 94.5 81 c 128,-1,36
 128 42 128 42 176 18.5 c 128,-1,37
 224 -5 224 -5 285 -5 c 0,0,1
308 94 m 0,38,39
 267 94 267 94 235 106.5 c 128,-1,40
 203 119 203 119 181.5 141.5 c 128,-1,41
 160 164 160 164 148 194.5 c 128,-1,42
 136 225 136 225 136 260 c 0,43,44
 136 271 136 271 137 282 c 128,-1,45
 138 293 138 293 141 305 c 1,46,-1
 552 305 l 1,47,48
 539 259 539 259 514 220 c 128,-1,49
 489 181 489 181 456.5 153 c 128,-1,50
 424 125 424 125 386 109.5 c 128,-1,51
 348 94 348 94 308 94 c 0,38,39
EndSplineSet
EndChar

StartChar: florin
Encoding: 402 402 319
Width: 518
GlyphClass: 1
Flags: W
LayerCount: 2
Fore
SplineSet
46 -191 m 0,0,1
 80 -191 80 -191 112.5 -178 c 128,-1,2
 145 -165 145 -165 172.5 -142 c 128,-1,3
 200 -119 200 -119 220 -87 c 128,-1,4
 240 -55 240 -55 248 -16 c 2,5,-1
 332 378 l 1,6,-1
 458 378 l 1,7,-1
 476 462 l 1,8,-1
 350 462 l 1,9,-1
 366 535 l 2,10,11
 378 590 378 590 402.5 619 c 128,-1,12
 427 648 427 648 464 648 c 0,13,14
 482 648 482 648 500.5 642.5 c 128,-1,15
 519 637 519 637 530 628 c 1,16,-1
 571 708 l 1,17,18
 547 723 547 723 518.5 731.5 c 128,-1,19
 490 740 490 740 460 740 c 0,20,21
 424 740 424 740 391.5 725.5 c 128,-1,22
 359 711 359 711 332 684 c 128,-1,23
 305 657 305 657 285.5 618 c 128,-1,24
 266 579 266 579 256 531 c 2,25,-1
 242 462 l 1,26,-1
 175 462 l 1,27,-1
 158 378 l 1,28,-1
 224 378 l 1,29,-1
 139 -19 l 2,30,31
 136 -35 136 -35 127.5 -49.5 c 128,-1,32
 119 -64 119 -64 107 -74 c 128,-1,33
 95 -84 95 -84 81.5 -90 c 128,-1,34
 68 -96 68 -96 54 -96 c 0,35,36
 38 -96 38 -96 23 -90.5 c 128,-1,37
 8 -85 8 -85 -2 -73 c 1,38,-1
 -65 -146 l 1,39,40
 -45 -169 -45 -169 -16 -180 c 128,-1,41
 13 -191 13 -191 46 -191 c 0,0,1
EndSplineSet
EndChar

StartChar: Aringacute
Encoding: 506 506 328
Width: 649
GlyphClass: 1
Flags: W
LayerCount: 2
Fore
SplineSet
-50 0 m 1,0,-1
 67 0 l 1,1,-1
 177 194 l 1,2,-1
 433 194 l 1,3,-1
 462 0 l 1,4,-1
 578 0 l 1,5,-1
 464 710 l 1,6,-1
 366 710 l 1,7,-1
 -50 0 l 1,0,-1
213 276 m 1,8,-1
 388 583 l 1,9,-1
 429 276 l 1,10,-1
 213 276 l 1,8,-1
607 964 m 1,11,-1
 497 964 l 1,12,-1
 405 812 l 1,13,-1
 468 812 l 1,14,-1
 607 964 l 1,11,-1
339 756 m 0,15,16
 339 728 339 728 358.5 712.5 c 128,-1,17
 378 697 378 697 411 697 c 0,18,19
 456 697 456 697 485 720.5 c 128,-1,20
 514 744 514 744 514 783 c 0,21,22
 514 811 514 811 495.5 826.5 c 128,-1,23
 477 842 477 842 443 842 c 0,24,25
 399 842 399 842 369 818.5 c 128,-1,26
 339 795 339 795 339 756 c 0,15,16
435 806 m 0,27,28
 449 806 449 806 458 798 c 128,-1,29
 467 790 467 790 467 776 c 0,30,31
 467 757 467 757 451.5 744.5 c 128,-1,32
 436 732 436 732 419 732 c 0,33,34
 405 732 405 732 396.5 741 c 128,-1,35
 388 750 388 750 388 763 c 0,36,37
 388 782 388 782 402 794 c 128,-1,38
 416 806 416 806 435 806 c 0,27,28
EndSplineSet
EndChar

StartChar: uni0237
Encoding: 567 567 370
Width: 238
GlyphClass: 1
Flags: W
LayerCount: 2
Fore
SplineSet
-96 -191 m 0,0,1
 -63 -191 -63 -191 -30 -177.5 c 128,-1,2
 3 -164 3 -164 30.5 -140 c 128,-1,3
 58 -116 58 -116 78 -83.5 c 128,-1,4
 98 -51 98 -51 107 -11 c 2,5,-1
 220 523 l 1,6,-1
 112 523 l 1,7,-1
 -3 -19 l 2,8,9
 -7 -35 -7 -35 -15.5 -49.5 c 128,-1,10
 -24 -64 -24 -64 -36 -74 c 128,-1,11
 -48 -84 -48 -84 -61.5 -90 c 128,-1,12
 -75 -96 -75 -96 -89 -96 c 0,13,14
 -105 -96 -105 -96 -120 -90.5 c 128,-1,15
 -135 -85 -135 -85 -144 -73 c 1,16,-1
 -208 -146 l 1,17,18
 -188 -169 -188 -169 -159.5 -180 c 128,-1,19
 -131 -191 -131 -191 -96 -191 c 0,0,1
EndSplineSet
EndChar

StartChar: uni0259
Encoding: 601 601 371
Width: 572
GlyphClass: 1
Flags: W
LayerCount: 2
Fore
SplineSet
216 -10 m 0,0,1
 284 -10 284 -10 342.5 17 c 128,-1,2
 401 44 401 44 444 89 c 128,-1,3
 487 134 487 134 511.5 192 c 128,-1,4
 536 250 536 250 536 313 c 0,5,6
 536 358 536 358 522.5 398 c 128,-1,7
 509 438 509 438 482.5 468 c 128,-1,8
 456 498 456 498 417.5 515 c 128,-1,9
 379 532 379 532 329 532 c 0,10,11
 290 532 290 532 252.5 522 c 128,-1,12
 215 512 215 512 181.5 494 c 128,-1,13
 148 476 148 476 121 451.5 c 128,-1,14
 94 427 94 427 75 398 c 1,15,-1
 162 372 l 1,16,17
 173 389 173 389 189.5 404 c 128,-1,18
 206 419 206 419 225.5 429 c 128,-1,19
 245 439 245 439 266.5 445 c 128,-1,20
 288 451 288 451 308 451 c 0,21,22
 333 451 333 451 354 442.5 c 128,-1,23
 375 434 375 434 390.5 417 c 128,-1,24
 406 400 406 400 414.5 377 c 128,-1,25
 423 354 423 354 423 325 c 0,26,27
 423 318 423 318 422.5 310.5 c 128,-1,28
 422 303 422 303 421 296 c 1,29,-1
 26 296 l 1,30,31
 17 274 17 274 12.5 247.5 c 128,-1,32
 8 221 8 221 8 197 c 0,33,34
 8 153 8 153 21.5 115 c 128,-1,35
 35 77 35 77 61.5 49.5 c 128,-1,36
 88 22 88 22 127 6 c 128,-1,37
 166 -10 166 -10 216 -10 c 0,0,1
234 70 m 0,38,39
 208 70 208 70 186.5 79 c 128,-1,40
 165 88 165 88 149.5 105 c 128,-1,41
 134 122 134 122 125 146 c 128,-1,42
 116 170 116 170 116 198 c 0,43,44
 116 206 116 206 116 213 c 128,-1,45
 116 220 116 220 118 227 c 1,46,-1
 409 227 l 1,47,48
 400 193 400 193 382 164 c 128,-1,49
 364 135 364 135 341 114 c 128,-1,50
 318 93 318 93 290.5 81.5 c 128,-1,51
 263 70 263 70 234 70 c 0,38,39
EndSplineSet
EndChar

StartChar: uni02BC
Encoding: 700 700 375
Width: 218
GlyphClass: 1
Flags: W
LayerCount: 2
Fore
SplineSet
300 730 m 1,0,-1
 189 730 l 1,1,-1
 97 570 l 1,2,-1
 161 570 l 1,3,-1
 300 730 l 1,0,-1
EndSplineSet
EndChar

StartChar: uni02BE
Encoding: 702 702 376
Width: 134
GlyphClass: 1
Flags: W
LayerCount: 2
Fore
SplineSet
95 573 m 1,0,1
 115 573 115 573 132.5 581 c 128,-1,2
 150 589 150 589 163.5 604 c 128,-1,3
 177 619 177 619 184.5 639.5 c 128,-1,4
 192 660 192 660 192 684 c 0,5,6
 192 714 192 714 179.5 732 c 128,-1,7
 167 750 167 750 143 750 c 1,8,-1
 131 707 l 1,9,10
 139 707 139 707 143.5 698.5 c 128,-1,11
 148 690 148 690 148 676 c 0,12,13
 148 649 148 649 134.5 632 c 128,-1,14
 121 615 121 615 107 615 c 1,15,-1
 95 573 l 1,0,1
EndSplineSet
EndChar

StartChar: uni02BF
Encoding: 703 703 377
Width: 133
GlyphClass: 1
Flags: W
LayerCount: 2
Fore
SplineSet
173 615 m 1,0,1
 165 615 165 615 161 624.5 c 128,-1,2
 157 634 157 634 157 648 c 0,3,4
 157 674 157 674 169.5 690.5 c 128,-1,5
 182 707 182 707 196 707 c 1,6,-1
 209 750 l 1,7,8
 189 750 189 750 171.5 741.5 c 128,-1,9
 154 733 154 733 140.5 718 c 128,-1,10
 127 703 127 703 119.5 682.5 c 128,-1,11
 112 662 112 662 112 638 c 0,12,13
 112 609 112 609 125 591 c 128,-1,14
 138 573 138 573 161 573 c 1,15,-1
 173 615 l 1,0,1
EndSplineSet
EndChar

StartChar: uni02C8
Encoding: 712 712 380
Width: 199
GlyphClass: 1
Flags: W
LayerCount: 2
Fore
SplineSet
112 775 m 1,0,-1
 112 376 l 1,1,-1
 205 376 l 1,2,-1
 205 775 l 1,3,-1
 112 775 l 1,0,-1
EndSplineSet
EndChar

StartChar: uni02C9
Encoding: 713 713 381
Width: 386
GlyphClass: 1
Flags: W
LayerCount: 2
Fore
SplineSet
408 645 m 1,0,-1
 424 714 l 1,1,-1
 156 714 l 1,2,-1
 139 645 l 1,3,-1
 408 645 l 1,0,-1
EndSplineSet
EndChar

StartChar: uni02CB
Encoding: 715 715 382
Width: 215
GlyphClass: 1
Flags: W
LayerCount: 2
Fore
SplineSet
189 500 m 1,0,-1
 248 720 l 1,1,-1
 162 720 l 1,2,-1
 127 500 l 1,3,-1
 189 500 l 1,0,-1
EndSplineSet
EndChar

StartChar: uni02CC
Encoding: 716 716 383
Width: 200
GlyphClass: 1
Flags: W
LayerCount: 2
Fore
SplineSet
5 269 m 1,0,-1
 5 -130 l 1,1,-1
 98 -130 l 1,2,-1
 98 269 l 1,3,-1
 5 269 l 1,0,-1
EndSplineSet
EndChar

StartChar: hungarumlaut
Encoding: 733 733 389
Width: 350
GlyphClass: 1
Flags: W
LayerCount: 2
Fore
SplineSet
433 730 m 1,0,-1
 329 730 l 1,1,-1
 231 583 l 1,2,-1
 288 583 l 1,3,-1
 433 730 l 1,0,-1
286 730 m 1,4,-1
 182 730 l 1,5,-1
 84 583 l 1,6,-1
 141 583 l 1,7,-1
 286 730 l 1,4,-1
EndSplineSet
EndChar

StartChar: gravecomb
Encoding: 768 768 390
Width: 242
GlyphClass: 1
Flags: W
LayerCount: 2
Fore
SplineSet
77 760 m 1,0,-1
 182 600 l 1,1,-1
 239 600 l 1,2,-1
 181 760 l 1,3,-1
 77 760 l 1,0,-1
EndSplineSet
EndChar

StartChar: acutecomb
Encoding: 769 769 391
Width: 242
GlyphClass: 1
Flags: W
LayerCount: 2
Fore
SplineSet
262 760 m 1,0,-1
 152 760 l 1,1,-1
 60 600 l 1,2,-1
 123 600 l 1,3,-1
 262 760 l 1,0,-1
EndSplineSet
EndChar

StartChar: uni0302
Encoding: 770 770 392
Width: 354
GlyphClass: 1
Flags: W
LayerCount: 2
Fore
SplineSet
70 600 m 1,0,-1
 127 600 l 1,1,-1
 239 688 l 1,2,-1
 312 600 l 1,3,-1
 369 600 l 1,4,-1
 303 744 l 1,5,-1
 198 744 l 1,6,-1
 70 600 l 1,0,-1
EndSplineSet
EndChar

StartChar: tildecomb
Encoding: 771 771 393
Width: 441
GlyphClass: 1
Flags: W
LayerCount: 2
Fore
SplineSet
357 622 m 0,0,1
 389 622 389 622 413 637.5 c 128,-1,2
 437 653 437 653 454 673 c 128,-1,3
 471 693 471 693 480 711 c 128,-1,4
 489 729 489 729 491 736 c 1,5,-1
 430 736 l 1,6,7
 430 735 430 735 426.5 727 c 128,-1,8
 423 719 423 719 415.5 710 c 128,-1,9
 408 701 408 701 396 694 c 128,-1,10
 384 687 384 687 367 687 c 256,11,12
 350 687 350 687 338 693.5 c 128,-1,13
 326 700 326 700 314 709 c 128,-1,14
 302 718 302 718 288 724.5 c 128,-1,15
 274 731 274 731 253 731 c 0,16,17
 223 731 223 731 200 716.5 c 128,-1,18
 177 702 177 702 160.5 682 c 128,-1,19
 144 662 144 662 135.5 643.5 c 128,-1,20
 127 625 127 625 125 617 c 1,21,-1
 187 617 l 1,22,23
 187 619 187 619 189.5 626.5 c 128,-1,24
 192 634 192 634 198.5 642.5 c 128,-1,25
 205 651 205 651 215.5 658 c 128,-1,26
 226 665 226 665 242 665 c 0,27,28
 257 665 257 665 269 658.5 c 128,-1,29
 281 652 281 652 293.5 643.5 c 128,-1,30
 306 635 306 635 321 628.5 c 128,-1,31
 336 622 336 622 357 622 c 0,0,1
EndSplineSet
EndChar

StartChar: uni0304
Encoding: 772 772 394
Width: 382
GlyphClass: 1
Flags: W
LayerCount: 2
Fore
SplineSet
413 643 m 1,0,-1
 428 712 l 1,1,-1
 145 712 l 1,2,-1
 131 643 l 1,3,-1
 413 643 l 1,0,-1
EndSplineSet
EndChar

StartChar: uni0306
Encoding: 774 774 395
Width: 330
GlyphClass: 1
Flags: W
LayerCount: 2
Fore
SplineSet
250 659 m 0,0,1
 231 659 231 659 219.5 674.5 c 128,-1,2
 208 690 208 690 208 712 c 0,3,4
 208 717 208 717 208.5 721 c 128,-1,5
 209 725 209 725 210 730 c 1,6,-1
 150 730 l 1,7,8
 148 722 148 722 147 715.5 c 128,-1,9
 146 709 146 709 146 701 c 0,10,11
 146 660 146 660 171.5 634.5 c 128,-1,12
 197 609 197 609 240 609 c 0,13,14
 264 609 264 609 287 618 c 128,-1,15
 310 627 310 627 329 643.5 c 128,-1,16
 348 660 348 660 361.5 682 c 128,-1,17
 375 704 375 704 380 730 c 1,18,-1
 321 730 l 1,19,20
 311 700 311 700 291 679.5 c 128,-1,21
 271 659 271 659 250 659 c 0,0,1
EndSplineSet
EndChar

StartChar: uni0307
Encoding: 775 775 396
Width: 198
GlyphClass: 1
Flags: W
LayerCount: 2
Fore
SplineSet
99 671 m 0,0,1
 94 645 94 645 108.5 626.5 c 128,-1,2
 123 608 123 608 149 608 c 0,3,4
 163 608 163 608 175.5 613 c 128,-1,5
 188 618 188 618 198.5 626.5 c 128,-1,6
 209 635 209 635 216.5 646.5 c 128,-1,7
 224 658 224 658 226 671 c 0,8,9
 232 697 232 697 217.5 716 c 128,-1,10
 203 735 203 735 176 735 c 0,11,12
 163 735 163 735 150.5 730 c 128,-1,13
 138 725 138 725 127.5 716.5 c 128,-1,14
 117 708 117 708 109.5 696.5 c 128,-1,15
 102 685 102 685 99 671 c 0,0,1
EndSplineSet
EndChar

StartChar: uni0308
Encoding: 776 776 397
Width: 408
GlyphClass: 1
Flags: W
LayerCount: 2
Fore
SplineSet
149 606 m 0,0,1
 163 606 163 606 175.5 611 c 128,-1,2
 188 616 188 616 198.5 624.5 c 128,-1,3
 209 633 209 633 216.5 644.5 c 128,-1,4
 224 656 224 656 226 669 c 0,5,6
 232 696 232 696 217 714.5 c 128,-1,7
 202 733 202 733 176 733 c 0,8,9
 163 733 163 733 150.5 728 c 128,-1,10
 138 723 138 723 127.5 714.5 c 128,-1,11
 117 706 117 706 109.5 694.5 c 128,-1,12
 102 683 102 683 99 669 c 0,13,14
 93 643 93 643 108 624.5 c 128,-1,15
 123 606 123 606 149 606 c 0,0,1
360 606 m 0,16,17
 374 606 374 606 386.5 611 c 128,-1,18
 399 616 399 616 409.5 624.5 c 128,-1,19
 420 633 420 633 427.5 644.5 c 128,-1,20
 435 656 435 656 437 669 c 0,21,22
 443 696 443 696 428 714.5 c 128,-1,23
 413 733 413 733 387 733 c 0,24,25
 374 733 374 733 361.5 728 c 128,-1,26
 349 723 349 723 338.5 714.5 c 128,-1,27
 328 706 328 706 320.5 694.5 c 128,-1,28
 313 683 313 683 310 669 c 0,29,30
 304 643 304 643 319 624.5 c 128,-1,31
 334 606 334 606 360 606 c 0,16,17
EndSplineSet
EndChar

StartChar: hookabovecomb
Encoding: 777 777 398
Width: 265
GlyphClass: 1
Flags: W
LayerCount: 2
Fore
SplineSet
171 692 m 1,0,1
 191 705 191 705 202.5 710 c 128,-1,2
 214 715 214 715 227 715 c 256,3,4
 240 715 240 715 244.5 707 c 128,-1,5
 249 699 249 699 244 687 c 256,6,7
 239 675 239 675 228 663.5 c 128,-1,8
 217 652 217 652 194 637 c 1,9,-1
 210 604 l 1,10,11
 251 630 251 630 274.5 652.5 c 128,-1,12
 298 675 298 675 307 699 c 0,13,14
 317 727 317 727 306 748 c 128,-1,15
 295 769 295 769 257 769 c 0,16,17
 231 769 231 769 204.5 758.5 c 128,-1,18
 178 748 178 748 149 728 c 1,19,-1
 171 692 l 1,0,1
EndSplineSet
EndChar

StartChar: uni030A
Encoding: 778 778 399
Width: 273
GlyphClass: 1
Flags: W
LayerCount: 2
Fore
SplineSet
133 644 m 0,0,1
 133 616 133 616 152.5 600.5 c 128,-1,2
 172 585 172 585 205 585 c 0,3,4
 250 585 250 585 279 608.5 c 128,-1,5
 308 632 308 632 308 671 c 0,6,7
 308 699 308 699 289 714.5 c 128,-1,8
 270 730 270 730 236 730 c 0,9,10
 193 730 193 730 163 706.5 c 128,-1,11
 133 683 133 683 133 644 c 0,0,1
228 694 m 0,12,13
 242 694 242 694 251 686 c 128,-1,14
 260 678 260 678 260 664 c 0,15,16
 260 645 260 645 245 632.5 c 128,-1,17
 230 620 230 620 213 620 c 0,18,19
 199 620 199 620 190.5 629 c 128,-1,20
 182 638 182 638 182 651 c 0,21,22
 182 670 182 670 196 682 c 128,-1,23
 210 694 210 694 228 694 c 0,12,13
EndSplineSet
EndChar

StartChar: uni030B
Encoding: 779 779 400
Width: 350
GlyphClass: 1
Flags: W
LayerCount: 2
Fore
SplineSet
478 760 m 1,0,-1
 367 760 l 1,1,-1
 258 600 l 1,2,-1
 322 600 l 1,3,-1
 478 760 l 1,0,-1
295 760 m 1,4,-1
 185 760 l 1,5,-1
 76 600 l 1,6,-1
 139 600 l 1,7,-1
 295 760 l 1,4,-1
EndSplineSet
EndChar

StartChar: uni030C
Encoding: 780 780 401
Width: 354
GlyphClass: 1
Flags: W
LayerCount: 2
Fore
SplineSet
101 744 m 1,0,-1
 167 600 l 1,1,-1
 272 600 l 1,2,-1
 400 744 l 1,3,-1
 343 744 l 1,4,-1
 232 656 l 1,5,-1
 158 744 l 1,6,-1
 101 744 l 1,0,-1
EndSplineSet
EndChar

StartChar: uni030F
Encoding: 783 783 402
Width: 350
GlyphClass: 1
Flags: W
LayerCount: 2
Fore
SplineSet
217 760 m 1,0,-1
 305 600 l 1,1,-1
 362 600 l 1,2,-1
 321 760 l 1,3,-1
 217 760 l 1,0,-1
35 760 m 1,4,-1
 123 600 l 1,5,-1
 180 600 l 1,6,-1
 139 760 l 1,7,-1
 35 760 l 1,4,-1
EndSplineSet
EndChar

StartChar: uni0311
Encoding: 785 785 403
Width: 330
GlyphClass: 1
Flags: W
LayerCount: 2
Fore
SplineSet
124 609 m 1,0,-1
 183 609 l 1,1,2
 191 642 191 642 208 660.5 c 128,-1,3
 225 679 225 679 255 679 c 0,4,5
 277 679 277 679 287 668.5 c 128,-1,6
 297 658 297 658 297 635 c 0,7,8
 297 629 297 629 296.5 622.5 c 128,-1,9
 296 616 296 616 295 609 c 1,10,-1
 353 609 l 1,11,12
 355 616 355 616 356 622.5 c 128,-1,13
 357 629 357 629 357 635 c 0,14,15
 357 675 357 675 331.5 702.5 c 128,-1,16
 306 730 306 730 263 730 c 0,17,18
 239 730 239 730 216.5 721 c 128,-1,19
 194 712 194 712 175 695.5 c 128,-1,20
 156 679 156 679 142.5 657 c 128,-1,21
 129 635 129 635 124 609 c 1,0,-1
EndSplineSet
EndChar

StartChar: uni0312
Encoding: 786 786 404
Width: 183
GlyphClass: 1
Flags: W
LayerCount: 2
Fore
SplineSet
68 585 m 1,0,-1
 172 585 l 1,1,-1
 271 732 l 1,2,-1
 214 732 l 1,3,-1
 68 585 l 1,0,-1
EndSplineSet
EndChar

StartChar: uni031B
Encoding: 795 795 405
Width: 282
GlyphClass: 1
Flags: W
LayerCount: 2
Fore
SplineSet
98 488 m 1,0,1
 121 488 121 488 144 491.5 c 128,-1,2
 167 495 167 495 187.5 501 c 128,-1,3
 208 507 208 507 225.5 515.5 c 128,-1,4
 243 524 243 524 255 536 c 0,5,6
 269 549 269 549 279 563 c 128,-1,7
 289 577 289 577 295.5 591.5 c 128,-1,8
 302 606 302 606 306.5 621 c 128,-1,9
 311 636 311 636 315 651 c 1,10,-1
 232 651 l 1,11,12
 227 631 227 631 221.5 616 c 128,-1,13
 216 601 216 601 203 588 c 0,14,15
 191 576 191 576 170.5 570.5 c 128,-1,16
 150 565 150 565 115 565 c 1,17,-1
 98 488 l 1,0,1
EndSplineSet
EndChar

StartChar: dotbelowcomb
Encoding: 803 803 406
Width: 198
GlyphClass: 1
Flags: W
LayerCount: 2
Fore
SplineSet
-64 -137 m 0,0,1
 -69 -163 -69 -163 -54.5 -181.5 c 128,-1,2
 -40 -200 -40 -200 -14 -200 c 0,3,4
 0 -200 0 -200 12.5 -195 c 128,-1,5
 25 -190 25 -190 35.5 -181.5 c 128,-1,6
 46 -173 46 -173 53.5 -161.5 c 128,-1,7
 61 -150 61 -150 64 -137 c 0,8,9
 69 -111 69 -111 54.5 -92 c 128,-1,10
 40 -73 40 -73 14 -73 c 0,11,12
 0 -73 0 -73 -12.5 -78 c 128,-1,13
 -25 -83 -25 -83 -35.5 -91.5 c 128,-1,14
 -46 -100 -46 -100 -53 -111.5 c 128,-1,15
 -60 -123 -60 -123 -64 -137 c 0,0,1
EndSplineSet
EndChar

StartChar: uni0324
Encoding: 804 804 407
Width: 408
GlyphClass: 1
Flags: W
LayerCount: 2
Fore
SplineSet
63 -201 m 0,0,1
 77 -201 77 -201 89.5 -196 c 128,-1,2
 102 -191 102 -191 112.5 -182.5 c 128,-1,3
 123 -174 123 -174 130.5 -162.5 c 128,-1,4
 138 -151 138 -151 140 -138 c 0,5,6
 146 -111 146 -111 131 -92.5 c 128,-1,7
 116 -74 116 -74 90 -74 c 0,8,9
 77 -74 77 -74 64.5 -79 c 128,-1,10
 52 -84 52 -84 41.5 -92.5 c 128,-1,11
 31 -101 31 -101 23.5 -112.5 c 128,-1,12
 16 -124 16 -124 13 -138 c 0,13,14
 7 -164 7 -164 22 -182.5 c 128,-1,15
 37 -201 37 -201 63 -201 c 0,0,1
274 -201 m 0,16,17
 288 -201 288 -201 300.5 -196 c 128,-1,18
 313 -191 313 -191 323.5 -182.5 c 128,-1,19
 334 -174 334 -174 341.5 -162.5 c 128,-1,20
 349 -151 349 -151 351 -138 c 0,21,22
 357 -111 357 -111 342 -92.5 c 128,-1,23
 327 -74 327 -74 301 -74 c 0,24,25
 288 -74 288 -74 275.5 -79 c 128,-1,26
 263 -84 263 -84 252.5 -92.5 c 128,-1,27
 242 -101 242 -101 234.5 -112.5 c 128,-1,28
 227 -124 227 -124 224 -138 c 0,29,30
 218 -164 218 -164 233 -182.5 c 128,-1,31
 248 -201 248 -201 274 -201 c 0,16,17
EndSplineSet
EndChar

StartChar: uni0326
Encoding: 806 806 408
Width: 183
GlyphClass: 1
Flags: W
LayerCount: 2
Fore
SplineSet
39 -251 m 1,0,-1
 161 -48 l 1,1,-1
 64 -48 l 1,2,-1
 -12 -251 l 1,3,-1
 39 -251 l 1,0,-1
EndSplineSet
EndChar

StartChar: uni0327
Encoding: 807 807 409
Width: 296
GlyphClass: 1
Flags: W
LayerCount: 2
Fore
SplineSet
-44 -172 m 1,0,1
 -21 -183 -21 -183 2.5 -187.5 c 128,-1,2
 26 -192 26 -192 51 -192 c 0,3,4
 73 -192 73 -192 96.5 -187.5 c 128,-1,5
 120 -183 120 -183 139.5 -172 c 128,-1,6
 159 -161 159 -161 171.5 -143 c 128,-1,7
 184 -125 184 -125 184 -98 c 0,8,9
 184 -68 184 -68 165 -56 c 128,-1,10
 146 -44 146 -44 119 -44 c 0,11,12
 110 -44 110 -44 102 -45 c 128,-1,13
 94 -46 94 -46 86 -49 c 1,14,-1
 131 5 l 1,15,-1
 89 20 l 1,16,-1
 9 -93 l 1,17,18
 29 -88 29 -88 48.5 -84.5 c 128,-1,19
 68 -81 68 -81 87 -81 c 0,20,21
 95 -81 95 -81 102.5 -82 c 128,-1,22
 110 -83 110 -83 116.5 -86 c 128,-1,23
 123 -89 123 -89 126.5 -94 c 128,-1,24
 130 -99 130 -99 130 -108 c 0,25,26
 130 -121 130 -121 124 -129.5 c 128,-1,27
 118 -138 118 -138 109 -142 c 128,-1,28
 100 -146 100 -146 89.5 -147.5 c 128,-1,29
 79 -149 79 -149 68 -149 c 0,30,31
 59 -149 59 -149 48.5 -148 c 128,-1,32
 38 -147 38 -147 27 -144.5 c 128,-1,33
 16 -142 16 -142 6 -138.5 c 128,-1,34
 -4 -135 -4 -135 -12 -130 c 1,35,36
 -20 -140 -20 -140 -28 -150.5 c 128,-1,37
 -36 -161 -36 -161 -44 -172 c 1,0,1
EndSplineSet
EndChar

StartChar: uni0328
Encoding: 808 808 410
Width: 225
GlyphClass: 1
Flags: W
LayerCount: 2
Fore
SplineSet
-29 -123 m 0,0,1
 -29 -147 -29 -147 -11.5 -167.5 c 128,-1,2
 6 -188 6 -188 49 -194 c 1,3,-1
 87 -129 l 1,4,5
 65 -128 65 -128 53.5 -121 c 128,-1,6
 42 -114 42 -114 42 -99 c 0,7,8
 42 -79 42 -79 60.5 -56 c 128,-1,9
 79 -33 79 -33 120 0 c 1,10,-1
 113 19 l 1,11,-1
 80 19 l 1,12,13
 24 -17 24 -17 -2.5 -52 c 128,-1,14
 -29 -87 -29 -87 -29 -123 c 0,0,1
EndSplineSet
EndChar

StartChar: uni032E
Encoding: 814 814 411
Width: 285
GlyphClass: 1
Flags: W
LayerCount: 2
Fore
SplineSet
46 -175 m 0,0,1
 69 -175 69 -175 90.5 -166 c 128,-1,2
 112 -157 112 -157 130 -140.5 c 128,-1,3
 148 -124 148 -124 161.5 -102.5 c 128,-1,4
 175 -81 175 -81 181 -54 c 1,5,-1
 125 -54 l 1,6,7
 115 -84 115 -84 96 -104.5 c 128,-1,8
 77 -125 77 -125 59 -125 c 0,9,10
 39 -125 39 -125 29.5 -103.5 c 128,-1,11
 20 -82 20 -82 27 -54 c 1,12,-1
 -30 -54 l 1,13,14
 -43 -107 -43 -107 -21.5 -141 c 128,-1,15
 0 -175 0 -175 46 -175 c 0,0,1
EndSplineSet
EndChar

StartChar: uni0331
Encoding: 817 817 412
Width: 371
GlyphClass: 1
Flags: W
LayerCount: 2
Fore
SplineSet
231 -152 m 1,0,-1
 247 -83 l 1,1,-1
 -22 -83 l 1,2,-1
 -38 -152 l 1,3,-1
 231 -152 l 1,0,-1
EndSplineSet
EndChar

StartChar: uni0335
Encoding: 821 821 413
Width: 345
GlyphClass: 1
Flags: W
LayerCount: 2
Fore
SplineSet
294 263 m 1,0,-1
 310 330 l 1,1,-1
 66 330 l 1,2,-1
 50 263 l 1,3,-1
 294 263 l 1,0,-1
EndSplineSet
EndChar

StartChar: tonos
Encoding: 900 900 415
Width: 193
GlyphClass: 1
Flags: W
LayerCount: 2
Fore
SplineSet
192 812 m 1,0,-1
 114 580 l 1,1,-1
 177 570 l 1,2,-1
 273 794 l 1,3,-1
 192 812 l 1,0,-1
EndSplineSet
EndChar

StartChar: dieresistonos
Encoding: 901 901 416
Width: 482
GlyphClass: 1
Flags: W
LayerCount: 2
Fore
SplineSet
115 660 m 0,0,1
 107 628 107 628 123.5 604 c 128,-1,2
 140 580 140 580 173 580 c 0,3,4
 201 580 201 580 222.5 597.5 c 128,-1,5
 244 615 244 615 250 641 c 0,6,7
 257 675 257 675 241 697.5 c 128,-1,8
 225 720 225 720 193 720 c 0,9,10
 165 720 165 720 143 704 c 128,-1,11
 121 688 121 688 115 660 c 0,0,1
410 660 m 0,12,13
 403 628 403 628 420.5 604 c 128,-1,14
 438 580 438 580 469 580 c 0,15,16
 497 580 497 580 518.5 597.5 c 128,-1,17
 540 615 540 615 546 641 c 0,18,19
 554 675 554 675 537 697.5 c 128,-1,20
 520 720 520 720 488 720 c 0,21,22
 461 720 461 720 438.5 704 c 128,-1,23
 416 688 416 688 410 660 c 0,12,13
350 822 m 1,24,-1
 272 590 l 1,25,-1
 335 580 l 1,26,-1
 431 804 l 1,27,-1
 350 822 l 1,24,-1
EndSplineSet
EndChar

StartChar: Gamma
Encoding: 915 915 428
Width: 491
GlyphClass: 1
Flags: W
LayerCount: 2
Fore
SplineSet
154 714 m 1,0,-1
 619 714 l 1,1,-1
 593 617 l 1,2,-1
 238 617 l 1,3,-1
 76 10 l 1,4,-1
 -34 10 l 1,5,-1
 154 714 l 1,0,-1
EndSplineSet
EndChar

StartChar: uni0394
Encoding: 916 916 429
Width: 650
GlyphClass: 1
Flags: W
LayerCount: 2
Fore
SplineSet
-46 0 m 1,0,-1
 579 0 l 1,1,-1
 583 22 l 1,2,-1
 499 714 l 1,3,-1
 355 714 l 1,4,-1
 -42 22 l 1,5,-1
 -46 0 l 1,0,-1
109 95 m 1,6,-1
 285 391 l 1,7,-1
 405 615 l 1,8,-1
 409 615 l 1,9,-1
 430 391 l 1,10,-1
 465 95 l 1,11,-1
 109 95 l 1,6,-1
EndSplineSet
EndChar

StartChar: Eta
Encoding: 919 919 432
Width: 715
GlyphClass: 1
Flags: W
LayerCount: 2
Fore
SplineSet
-18 0 m 1,0,-1
 92 0 l 1,1,-1
 158 311 l 1,2,-1
 490 311 l 1,3,-1
 424 0 l 1,4,-1
 533 0 l 1,5,-1
 683 704 l 1,6,-1
 573 704 l 1,7,-1
 510 409 l 1,8,-1
 179 409 l 1,9,-1
 242 704 l 1,10,-1
 132 704 l 1,11,-1
 -18 0 l 1,0,-1
EndSplineSet
EndChar

StartChar: Theta
Encoding: 920 920 433
Width: 724
GlyphClass: 1
Flags: W
LayerCount: 2
Fore
SplineSet
202 306 m 1,0,-1
 520 306 l 1,1,-1
 542 410 l 1,2,-1
 225 410 l 1,3,-1
 202 306 l 1,0,-1
294 -5 m 0,4,5
 373 -5 373 -5 446.5 31 c 128,-1,6
 520 67 520 67 576 126 c 128,-1,7
 632 185 632 185 666 260.5 c 128,-1,8
 700 336 700 336 700 415 c 0,9,10
 700 472 700 472 683.5 525 c 128,-1,11
 667 578 667 578 635 619 c 128,-1,12
 603 660 603 660 556 684.5 c 128,-1,13
 509 709 509 709 448 709 c 0,14,15
 369 709 369 709 295 673 c 128,-1,16
 221 637 221 637 164.5 578 c 128,-1,17
 108 519 108 519 74.5 443 c 128,-1,18
 41 367 41 367 41 287 c 0,19,20
 41 230 41 230 57.5 177 c 128,-1,21
 74 124 74 124 106.5 83.5 c 128,-1,22
 139 43 139 43 186 19 c 128,-1,23
 233 -5 233 -5 294 -5 c 0,4,5
316 93 m 0,24,25
 276 93 276 93 245.5 109.5 c 128,-1,26
 215 126 215 126 194.5 153.5 c 128,-1,27
 174 181 174 181 163.5 218 c 128,-1,28
 153 255 153 255 153 296 c 0,29,30
 153 351 153 351 174 407 c 128,-1,31
 195 463 195 463 231.5 508 c 128,-1,32
 268 553 268 553 317.5 581.5 c 128,-1,33
 367 610 367 610 425 610 c 0,34,35
 465 610 465 610 495 593 c 128,-1,36
 525 576 525 576 546 549 c 128,-1,37
 567 522 567 522 577.5 485 c 128,-1,38
 588 448 588 448 588 408 c 0,39,40
 588 353 588 353 567.5 297 c 128,-1,41
 547 241 547 241 510.5 196 c 128,-1,42
 474 151 474 151 424 122 c 128,-1,43
 374 93 374 93 316 93 c 0,24,25
EndSplineSet
EndChar

StartChar: Lambda
Encoding: 923 923 436
Width: 678
GlyphClass: 1
Flags: W
LayerCount: 2
Fore
SplineSet
-43 0 m 1,0,-1
 76 0 l 1,1,-1
 295 385 l 1,2,-1
 418 607 l 1,3,-1
 422 607 l 1,4,-1
 447 384 l 1,5,-1
 488 0 l 1,6,-1
 603 0 l 1,7,-1
 517 714 l 1,8,-1
 369 714 l 1,9,-1
 -43 0 l 1,0,-1
EndSplineSet
EndChar

StartChar: Xi
Encoding: 926 926 439
Width: 646
GlyphClass: 1
Flags: W
LayerCount: 2
Fore
SplineSet
9 0 m 1,0,-1
 519 0 l 1,1,-1
 541 95 l 1,2,-1
 31 95 l 1,3,-1
 9 0 l 1,0,-1
150 311 m 1,4,-1
 517 311 l 1,5,-1
 539 405 l 1,6,-1
 172 405 l 1,7,-1
 150 311 l 1,4,-1
150 618 m 1,8,-1
 660 618 l 1,9,-1
 680 714 l 1,10,-1
 170 714 l 1,11,-1
 150 618 l 1,8,-1
EndSplineSet
EndChar

StartChar: Pi
Encoding: 928 928 441
Width: 658
GlyphClass: 1
Flags: W
LayerCount: 2
Fore
SplineSet
20 0 m 1,0,-1
 133 0 l 1,1,-1
 274 618 l 1,2,-1
 549 618 l 1,3,-1
 408 0 l 1,4,-1
 521 0 l 1,5,-1
 682 714 l 1,6,-1
 182 714 l 1,7,-1
 20 0 l 1,0,-1
EndSplineSet
EndChar

StartChar: Sigma
Encoding: 931 931 443
Width: 563
GlyphClass: 1
Flags: W
LayerCount: 2
Fore
SplineSet
-9 0 m 1,0,-1
 460 0 l 1,1,-1
 482 95 l 1,2,-1
 169 95 l 1,3,-1
 433 365 l 1,4,-1
 288 618 l 1,5,-1
 578 618 l 1,6,-1
 599 714 l 1,7,-1
 156 714 l 1,8,-1
 143 646 l 1,9,-1
 311 362 l 1,10,-1
 5 67 l 1,11,-1
 -9 0 l 1,0,-1
EndSplineSet
EndChar

StartChar: Upsilon
Encoding: 933 933 445
Width: 634
GlyphClass: 1
Flags: W
LayerCount: 2
Fore
SplineSet
202 0 m 1,0,-1
 315 0 l 1,1,-1
 368 232 l 2,2,3
 384 300 384 300 417 358.5 c 128,-1,4
 450 417 450 417 494 467.5 c 128,-1,5
 538 518 538 518 589 563 c 128,-1,6
 640 608 640 608 692 651 c 1,7,-1
 619 721 l 1,8,9
 566 678 566 678 526 643 c 128,-1,10
 486 608 486 608 455 574.5 c 128,-1,11
 424 541 424 541 400.5 506 c 128,-1,12
 377 471 377 471 357 429 c 1,13,-1
 349 419 l 1,14,15
 348 461 348 461 340 496.5 c 128,-1,16
 332 532 332 532 317 565.5 c 128,-1,17
 302 599 302 599 278 634.5 c 128,-1,18
 254 670 254 670 218 713 c 1,19,-1
 126 657 l 1,20,21
 157 618 157 618 187.5 574.5 c 128,-1,22
 218 531 218 531 238.5 481.5 c 128,-1,23
 259 432 259 432 266 372.5 c 128,-1,24
 273 313 273 313 257 243 c 2,25,-1
 202 0 l 1,0,-1
EndSplineSet
EndChar

StartChar: Phi
Encoding: 934 934 446
Width: 743
GlyphClass: 1
Flags: W
LayerCount: 2
Fore
SplineSet
327 168 m 1,0,1
 284 168 284 168 250.5 181.5 c 128,-1,2
 217 195 217 195 196.5 219 c 128,-1,3
 176 243 176 243 169 276 c 128,-1,4
 162 309 162 309 171 348 c 0,5,6
 181 391 181 391 205 428 c 128,-1,7
 229 465 229 465 262.5 491.5 c 128,-1,8
 296 518 296 518 336.5 533 c 128,-1,9
 377 548 377 548 420 548 c 1,10,-1
 435 641 l 1,11,12
 367 641 367 641 306.5 621.5 c 128,-1,13
 246 602 246 602 198.5 566 c 128,-1,14
 151 530 151 530 117 479.5 c 128,-1,15
 83 429 83 429 69 367 c 0,16,17
 55 303 55 303 66 249.5 c 128,-1,18
 77 196 77 196 109 157 c 128,-1,19
 141 118 141 118 192.5 96.5 c 128,-1,20
 244 75 244 75 312 75 c 1,21,-1
 327 168 l 1,0,1
359 -31 m 1,22,-1
 535 745 l 1,23,-1
 429 745 l 1,24,-1
 254 -31 l 1,25,-1
 359 -31 l 1,22,-1
357 75 m 1,26,27
 425 75 425 75 485 95 c 128,-1,28
 545 115 545 115 592.5 151.5 c 128,-1,29
 640 188 640 188 673 238 c 128,-1,30
 706 288 706 288 720 348 c 0,31,32
 734 412 734 412 724 466 c 128,-1,33
 714 520 714 520 682 559 c 128,-1,34
 650 598 650 598 599 619.5 c 128,-1,35
 548 641 548 641 480 641 c 1,36,-1
 465 548 l 1,37,38
 508 548 508 548 541 535 c 128,-1,39
 574 522 574 522 594 498 c 128,-1,40
 614 474 614 474 620.5 441 c 128,-1,41
 627 408 627 408 617 367 c 0,42,43
 608 325 608 325 585 288.5 c 128,-1,44
 562 252 562 252 529 225.5 c 128,-1,45
 496 199 496 199 456 183.5 c 128,-1,46
 416 168 416 168 373 168 c 1,47,-1
 357 75 l 1,26,27
EndSplineSet
EndChar

StartChar: Psi
Encoding: 936 936 448
Width: 773
GlyphClass: 1
Flags: W
LayerCount: 2
Fore
SplineSet
276 0 m 1,0,-1
 382 0 l 1,1,-1
 545 714 l 1,2,-1
 438 714 l 1,3,-1
 276 0 l 1,0,-1
121 445 m 2,4,5
 108 388 108 388 113 339.5 c 128,-1,6
 118 291 118 291 144 255.5 c 128,-1,7
 170 220 170 220 218.5 199.5 c 128,-1,8
 267 179 267 179 341 179 c 1,9,-1
 349 267 l 1,10,11
 304 267 304 267 275 278.5 c 128,-1,12
 246 290 246 290 231.5 311 c 128,-1,13
 217 332 217 332 214.5 360 c 128,-1,14
 212 388 212 388 220 422 c 0,15,16
 224 438 224 438 229 457 c 128,-1,17
 234 476 234 476 238.5 496.5 c 128,-1,18
 243 517 243 517 248.5 538 c 128,-1,19
 254 559 254 559 257 578 c 0,20,21
 267 618 267 618 273 652 c 128,-1,22
 279 686 279 686 274 708 c 1,23,-1
 172 720 l 1,24,25
 172 697 172 697 169.5 675.5 c 128,-1,26
 167 654 167 654 163.5 635 c 128,-1,27
 160 616 160 616 156.5 599 c 128,-1,28
 153 582 153 582 149 566 c 2,29,-1
 121 445 l 2,4,5
759 556 m 2,30,31
 764 573 764 573 768.5 590 c 128,-1,32
 773 607 773 607 778.5 626 c 128,-1,33
 784 645 784 645 791.5 665.5 c 128,-1,34
 799 686 799 686 809 708 c 1,35,-1
 701 720 l 1,36,37
 695 709 695 709 689.5 694.5 c 128,-1,38
 684 680 684 680 679.5 663.5 c 128,-1,39
 675 647 675 647 671 630.5 c 128,-1,40
 667 614 667 614 664 598 c 0,41,42
 660 575 660 575 655 552.5 c 128,-1,43
 650 530 650 530 646 509.5 c 128,-1,44
 642 489 642 489 638.5 471.5 c 128,-1,45
 635 454 635 454 632 442 c 0,46,47
 623 406 623 406 606 374 c 128,-1,48
 589 342 589 342 563.5 318.5 c 128,-1,49
 538 295 538 295 503 281 c 128,-1,50
 468 267 468 267 423 267 c 1,51,-1
 404 179 l 1,52,53
 477 179 477 179 533 198 c 128,-1,54
 589 217 589 217 629 251 c 128,-1,55
 669 285 669 285 694.5 331.5 c 128,-1,56
 720 378 720 378 732 434 c 2,57,-1
 759 556 l 2,30,31
EndSplineSet
EndChar

StartChar: uni03A9
Encoding: 937 937 449
Width: 716
GlyphClass: 1
Flags: W
LayerCount: 2
Fore
SplineSet
-15 0 m 1,0,-1
 257 0 l 1,1,-1
 301 197 l 1,2,3
 267 207 267 207 243 227.5 c 128,-1,4
 219 248 219 248 205.5 275 c 128,-1,5
 192 302 192 302 190 335 c 128,-1,6
 188 368 188 368 196 406 c 0,7,8
 206 450 206 450 229 489 c 128,-1,9
 252 528 252 528 283.5 556.5 c 128,-1,10
 315 585 315 585 354.5 601.5 c 128,-1,11
 394 618 394 618 438 618 c 0,12,13
 480 618 480 618 512.5 602 c 128,-1,14
 545 586 545 586 565.5 559 c 128,-1,15
 586 532 586 532 593 495.5 c 128,-1,16
 600 459 600 459 591 418 c 0,17,18
 582 378 582 378 561.5 342 c 128,-1,19
 541 306 541 306 513 276 c 128,-1,20
 485 246 485 246 451.5 225 c 128,-1,21
 418 204 418 204 383 196 c 1,22,-1
 337 0 l 1,23,-1
 613 0 l 1,24,-1
 635 98 l 1,25,-1
 396 98 l 1,26,-1
 442 50 l 1,27,-1
 472 181 l 1,28,-1
 418 112 l 1,29,30
 471 124 471 124 517.5 152.5 c 128,-1,31
 564 181 564 181 602 221 c 128,-1,32
 640 261 640 261 666.5 310 c 128,-1,33
 693 359 693 359 704 412 c 0,34,35
 719 478 719 478 706 534.5 c 128,-1,36
 693 591 693 591 659 632.5 c 128,-1,37
 625 674 625 674 571 698 c 128,-1,38
 517 722 517 722 450 722 c 0,39,40
 384 722 384 722 324 699.5 c 128,-1,41
 264 677 264 677 215.5 636.5 c 128,-1,42
 167 596 167 596 132.5 540.5 c 128,-1,43
 98 485 98 485 84 420 c 0,44,45
 72 366 72 366 77 319 c 128,-1,46
 82 272 82 272 102.5 232.5 c 128,-1,47
 123 193 123 193 158 163.5 c 128,-1,48
 193 134 193 134 240 117 c 1,49,-1
 210 181 l 1,50,-1
 181 50 l 1,51,-1
 249 98 l 1,52,-1
 10 98 l 1,53,-1
 -15 0 l 1,0,-1
EndSplineSet
EndChar

StartChar: Iotadieresis
Encoding: 938 938 450
Width: 337
GlyphClass: 1
Flags: W
LayerCount: 2
Fore
SplineSet
15 0 m 1,0,-1
 125 0 l 1,1,-1
 275 703 l 1,2,-1
 165 703 l 1,3,-1
 15 0 l 1,0,-1
269 850 m 0,4,5
 263 823 263 823 273.5 804.5 c 128,-1,6
 284 786 284 786 305 786 c 256,7,8
 326 786 326 786 344 804.5 c 128,-1,9
 362 823 362 823 368 850 c 0,10,11
 373 876 373 876 363 894 c 128,-1,12
 353 912 353 912 332 912 c 256,13,14
 311 912 311 912 293 894 c 128,-1,15
 275 876 275 876 269 850 c 0,4,5
132 850 m 0,16,17
 126 823 126 823 136 804.5 c 128,-1,18
 146 786 146 786 168 786 c 0,19,20
 188 786 188 786 206.5 804.5 c 128,-1,21
 225 823 225 823 230 850 c 0,22,23
 236 876 236 876 225.5 894 c 128,-1,24
 215 912 215 912 194 912 c 256,25,26
 173 912 173 912 155 894 c 128,-1,27
 137 876 137 876 132 850 c 0,16,17
EndSplineSet
EndChar

StartChar: alphatonos
Encoding: 940 940 452
Width: 652
GlyphClass: 1
Flags: W
LayerCount: 2
Fore
SplineSet
407 251 m 2,0,1
 395 229 395 229 380 201 c 128,-1,2
 365 173 365 173 343 149 c 128,-1,3
 321 125 321 125 293 108.5 c 128,-1,4
 265 92 265 92 228 92 c 0,5,6
 202 92 202 92 180.5 101.5 c 128,-1,7
 159 111 159 111 145.5 131 c 128,-1,8
 132 151 132 151 128.5 180.5 c 128,-1,9
 125 210 125 210 134 251 c 0,10,11
 144 297 144 297 163.5 331 c 128,-1,12
 183 365 183 365 206.5 387 c 128,-1,13
 230 409 230 409 255.5 420 c 128,-1,14
 281 431 281 431 305 431 c 0,15,16
 327 431 327 431 343 422 c 128,-1,17
 359 413 359 413 370 397 c 128,-1,18
 381 381 381 381 387.5 359 c 128,-1,19
 394 337 394 337 397.5 312.5 c 128,-1,20
 401 288 401 288 401 262.5 c 128,-1,21
 401 237 401 237 399 211 c 1,22,-1
 468 291 l 1,23,24
 471 340 471 340 463 383.5 c 128,-1,25
 455 427 455 427 435.5 459 c 128,-1,26
 416 491 416 491 385 510 c 128,-1,27
 354 529 354 529 309 529 c 0,28,29
 265 529 265 529 222 508.5 c 128,-1,30
 179 488 179 488 143.5 453 c 128,-1,31
 108 418 108 418 81 368.5 c 128,-1,32
 54 319 54 319 41 262 c 0,33,34
 28 203 28 203 33.5 153.5 c 128,-1,35
 39 104 39 104 60.5 68 c 128,-1,36
 82 32 82 32 118 12 c 128,-1,37
 154 -8 154 -8 201 -8 c 0,38,39
 241 -8 241 -8 279 6 c 128,-1,40
 317 20 317 20 351.5 45.5 c 128,-1,41
 386 71 386 71 414.5 105.5 c 128,-1,42
 443 140 443 140 466 181 c 2,43,-1
 653 521 l 1,44,-1
 553 521 l 1,45,-1
 407 251 l 2,0,1
562 83 m 1,46,-1
 539 94 l 2,47,48
 530 99 530 99 520.5 107 c 128,-1,49
 511 115 511 115 502 128.5 c 128,-1,50
 493 142 493 142 485 161.5 c 128,-1,51
 477 181 477 181 472 207 c 1,52,-1
 403 141 l 1,53,54
 401 112 401 112 405.5 89.5 c 128,-1,55
 410 67 410 67 419.5 50 c 128,-1,56
 429 33 429 33 442.5 20.5 c 128,-1,57
 456 8 456 8 473 0 c 2,58,-1
 490 -8 l 1,59,-1
 562 83 l 1,46,-1
404 815 m 1,60,-1
 326 582 l 1,61,-1
 389 572 l 1,62,-1
 485 797 l 1,63,-1
 404 815 l 1,60,-1
EndSplineSet
EndChar

StartChar: epsilontonos
Encoding: 941 941 453
Width: 494
GlyphClass: 1
Flags: W
LayerCount: 2
Fore
SplineSet
389 113 m 1,0,1
 346 102 346 102 310 95.5 c 128,-1,2
 274 89 274 89 238 89 c 0,3,4
 178 89 178 89 150 107 c 128,-1,5
 122 125 122 125 128 157 c 0,6,7
 132 175 132 175 146 187.5 c 128,-1,8
 160 200 160 200 179.5 208 c 128,-1,9
 199 216 199 216 223.5 219 c 128,-1,10
 248 222 248 222 274 222 c 2,11,-1
 320 222 l 1,12,-1
 340 311 l 1,13,-1
 289 311 l 2,14,15
 267 311 267 311 247.5 315 c 128,-1,16
 228 319 228 319 215 326 c 128,-1,17
 202 333 202 333 196 343.5 c 128,-1,18
 190 354 190 354 194 366 c 0,19,20
 197 379 197 379 206.5 390.5 c 128,-1,21
 216 402 216 402 231.5 410.5 c 128,-1,22
 247 419 247 419 270.5 424.5 c 128,-1,23
 294 430 294 430 325 430 c 0,24,25
 342 430 342 430 359.5 428.5 c 128,-1,26
 377 427 377 427 393 424 c 128,-1,27
 409 421 409 421 423 417.5 c 128,-1,28
 437 414 437 414 446 409 c 1,29,-1
 495 504 l 1,30,31
 462 522 462 522 421.5 526 c 128,-1,32
 381 530 381 530 345 529 c 0,33,34
 293 530 293 530 251 519.5 c 128,-1,35
 209 509 209 509 178.5 490.5 c 128,-1,36
 148 472 148 472 128.5 447.5 c 128,-1,37
 109 423 109 423 102 394 c 0,38,39
 98 373 98 373 100.5 353.5 c 128,-1,40
 103 334 103 334 110 318 c 128,-1,41
 117 302 117 302 127.5 291 c 128,-1,42
 138 280 138 280 150 275 c 1,43,-1
 146 274 l 2,44,45
 128 268 128 268 109 256 c 128,-1,46
 90 244 90 244 73.5 227.5 c 128,-1,47
 57 211 57 211 44.5 191 c 128,-1,48
 32 171 32 171 27 147 c 0,49,50
 18 111 18 111 29.5 82 c 128,-1,51
 41 53 41 53 67.5 32.5 c 128,-1,52
 94 12 94 12 134.5 1.5 c 128,-1,53
 175 -9 175 -9 223 -9 c 0,54,55
 245 -9 245 -9 268.5 -7.5 c 128,-1,56
 292 -6 292 -6 315 -3 c 128,-1,57
 338 0 338 0 358 4 c 128,-1,58
 378 8 378 8 392 12 c 1,59,-1
 389 113 l 1,0,1
406 859 m 1,60,-1
 329 626 l 1,61,-1
 391 616 l 1,62,-1
 488 841 l 1,63,-1
 406 859 l 1,60,-1
EndSplineSet
EndChar

StartChar: etatonos
Encoding: 942 942 454
Width: 606
GlyphClass: 1
Flags: W
LayerCount: 2
Fore
SplineSet
103 -3 m 1,0,1
 136 92 136 92 161 173 c 128,-1,2
 186 254 186 254 203 332 c 0,3,4
 212 370 212 370 213.5 400.5 c 128,-1,5
 215 431 215 431 207.5 455 c 128,-1,6
 200 479 200 479 183.5 497 c 128,-1,7
 167 515 167 515 141 529 c 1,8,-1
 70 440 l 1,9,10
 85 433 85 433 92.5 422 c 128,-1,11
 100 411 100 411 102.5 393.5 c 128,-1,12
 105 376 105 376 102 350.5 c 128,-1,13
 99 325 99 325 90 287 c 0,14,15
 74 224 74 224 51 150.5 c 128,-1,16
 28 77 28 77 3 3 c 1,17,-1
 103 -3 l 1,0,1
363 -209 m 1,18,19
 384 -164 384 -164 406.5 -104.5 c 128,-1,20
 429 -45 429 -45 450 18.5 c 128,-1,21
 471 82 471 82 489 143.5 c 128,-1,22
 507 205 507 205 519 254 c 0,23,24
 552 398 552 398 528 463.5 c 128,-1,25
 504 529 504 529 420 529 c 0,26,27
 388 529 388 529 353.5 517.5 c 128,-1,28
 319 506 319 506 287.5 485.5 c 128,-1,29
 256 465 256 465 229.5 436.5 c 128,-1,30
 203 408 203 408 187 373 c 1,31,-1
 171 209 l 1,32,33
 183 252 183 252 204 290.5 c 128,-1,34
 225 329 225 329 251.5 358.5 c 128,-1,35
 278 388 278 388 308 405.5 c 128,-1,36
 338 423 338 423 367 423 c 0,37,38
 413 423 413 423 424 379.5 c 128,-1,39
 435 336 435 336 412 234 c 0,40,41
 404 195 404 195 390 148.5 c 128,-1,42
 376 102 376 102 357.5 47.5 c 128,-1,43
 339 -7 339 -7 315 -69.5 c 128,-1,44
 291 -132 291 -132 261 -201 c 1,45,-1
 363 -209 l 1,18,19
448 815 m 1,46,-1
 370 582 l 1,47,-1
 433 572 l 1,48,-1
 529 797 l 1,49,-1
 448 815 l 1,46,-1
EndSplineSet
EndChar

StartChar: iotatonos
Encoding: 943 943 455
Width: 311
GlyphClass: 1
Flags: W
LayerCount: 2
Fore
SplineSet
132 -8 m 0,0,1
 149 -8 149 -8 171 -5.5 c 128,-1,2
 193 -3 193 -3 212 5 c 1,3,-1
 211 109 l 1,4,5
 201 105 201 105 189 100 c 128,-1,6
 177 95 177 95 166 94 c 0,7,8
 158 95 158 95 153.5 97.5 c 128,-1,9
 149 100 149 100 147.5 108 c 128,-1,10
 146 116 146 116 148 130.5 c 128,-1,11
 150 145 150 145 155 169 c 0,12,13
 161 194 161 194 172 236.5 c 128,-1,14
 183 279 183 279 195.5 328 c 128,-1,15
 208 377 208 377 222 427 c 128,-1,16
 236 477 236 477 246 518 c 1,17,-1
 138 528 l 1,18,19
 124 474 124 474 112 424 c 128,-1,20
 100 374 100 374 89 327 c 128,-1,21
 78 280 78 280 67.5 235 c 128,-1,22
 57 190 57 190 48 145 c 0,23,24
 39 106 39 106 40.5 77 c 128,-1,25
 42 48 42 48 53.5 29.5 c 128,-1,26
 65 11 65 11 85 1.5 c 128,-1,27
 105 -8 105 -8 132 -8 c 0,0,1
250 826 m 1,28,-1
 172 593 l 1,29,-1
 235 583 l 1,30,-1
 331 808 l 1,31,-1
 250 826 l 1,28,-1
EndSplineSet
EndChar

StartChar: upsilondieresistonos
Encoding: 944 944 456
Width: 574
GlyphClass: 1
Flags: W
LayerCount: 2
Fore
SplineSet
58 191 m 0,0,1
 46 140 46 140 54 102.5 c 128,-1,2
 62 65 62 65 86.5 40.5 c 128,-1,3
 111 16 111 16 147.5 4 c 128,-1,4
 184 -8 184 -8 228 -8 c 0,5,6
 282 -8 282 -8 328 8.5 c 128,-1,7
 374 25 374 25 411 59.5 c 128,-1,8
 448 94 448 94 475 146.5 c 128,-1,9
 502 199 502 199 518 271 c 0,10,11
 524 299 524 299 531 332 c 128,-1,12
 538 365 538 365 543.5 398 c 128,-1,13
 549 431 549 431 552.5 462 c 128,-1,14
 556 493 556 493 556 518 c 1,15,-1
 452 528 l 1,16,17
 451 493 451 493 447.5 459.5 c 128,-1,18
 444 426 444 426 438.5 395.5 c 128,-1,19
 433 365 433 365 427.5 339 c 128,-1,20
 422 313 422 313 417 293 c 0,21,22
 395 188 395 188 350 141 c 128,-1,23
 305 94 305 94 239 93 c 0,24,25
 218 94 218 94 200.5 98.5 c 128,-1,26
 183 103 183 103 172.5 113.5 c 128,-1,27
 162 124 162 124 158 141.5 c 128,-1,28
 154 159 154 159 159 185 c 0,29,30
 162 197 162 197 167 213 c 128,-1,31
 172 229 172 229 176.5 247.5 c 128,-1,32
 181 266 181 266 186.5 286.5 c 128,-1,33
 192 307 192 307 197 329 c 0,34,35
 206 364 206 364 210 390.5 c 128,-1,36
 214 417 214 417 216 439 c 128,-1,37
 218 461 218 461 218 479.5 c 128,-1,38
 218 498 218 498 217 518 c 1,39,-1
 116 528 l 1,40,41
 117 494 117 494 115 451 c 128,-1,42
 113 408 113 408 100 348 c 0,43,44
 94 324 94 324 87.5 300 c 128,-1,45
 81 276 81 276 75 255.5 c 128,-1,46
 69 235 69 235 64.5 218 c 128,-1,47
 60 201 60 201 58 191 c 0,0,1
142 663 m 0,48,49
 133 630 133 630 150 606 c 128,-1,50
 167 582 167 582 199 582 c 0,51,52
 228 582 228 582 249.5 599.5 c 128,-1,53
 271 617 271 617 276 644 c 0,54,55
 284 678 284 678 268 700.5 c 128,-1,56
 252 723 252 723 219 723 c 0,57,58
 191 723 191 723 169 706.5 c 128,-1,59
 147 690 147 690 142 663 c 0,48,49
438 663 m 0,60,61
 430 630 430 630 447.5 606 c 128,-1,62
 465 582 465 582 497 582 c 0,63,64
 524 582 524 582 546 599.5 c 128,-1,65
 568 617 568 617 574 644 c 0,66,67
 582 678 582 678 565 700.5 c 128,-1,68
 548 723 548 723 516 723 c 0,69,70
 489 723 489 723 466.5 706.5 c 128,-1,71
 444 690 444 690 438 663 c 0,60,61
377 825 m 1,72,-1
 299 592 l 1,73,-1
 362 582 l 1,74,-1
 458 807 l 1,75,-1
 377 825 l 1,72,-1
EndSplineSet
EndChar

StartChar: alpha
Encoding: 945 945 457
Width: 626
GlyphClass: 1
Flags: W
LayerCount: 2
Fore
SplineSet
407 251 m 2,0,1
 395 229 395 229 380 201 c 128,-1,2
 365 173 365 173 343 149 c 128,-1,3
 321 125 321 125 293 108.5 c 128,-1,4
 265 92 265 92 228 92 c 0,5,6
 202 92 202 92 180.5 101.5 c 128,-1,7
 159 111 159 111 145.5 131 c 128,-1,8
 132 151 132 151 128.5 180.5 c 128,-1,9
 125 210 125 210 134 251 c 0,10,11
 144 297 144 297 163.5 331 c 128,-1,12
 183 365 183 365 206.5 387 c 128,-1,13
 230 409 230 409 255.5 420 c 128,-1,14
 281 431 281 431 305 431 c 0,15,16
 327 431 327 431 343 422 c 128,-1,17
 359 413 359 413 370 397 c 128,-1,18
 381 381 381 381 387.5 359 c 128,-1,19
 394 337 394 337 397.5 312.5 c 128,-1,20
 401 288 401 288 401 262.5 c 128,-1,21
 401 237 401 237 399 211 c 1,22,-1
 468 291 l 1,23,24
 471 340 471 340 463 383.5 c 128,-1,25
 455 427 455 427 435.5 459 c 128,-1,26
 416 491 416 491 385 510 c 128,-1,27
 354 529 354 529 309 529 c 0,28,29
 265 529 265 529 222 508.5 c 128,-1,30
 179 488 179 488 143.5 453 c 128,-1,31
 108 418 108 418 81 368.5 c 128,-1,32
 54 319 54 319 41 262 c 0,33,34
 28 203 28 203 33.5 153.5 c 128,-1,35
 39 104 39 104 60.5 68 c 128,-1,36
 82 32 82 32 118 12 c 128,-1,37
 154 -8 154 -8 201 -8 c 0,38,39
 241 -8 241 -8 279 6 c 128,-1,40
 317 20 317 20 351.5 45.5 c 128,-1,41
 386 71 386 71 414.5 105.5 c 128,-1,42
 443 140 443 140 466 181 c 2,43,-1
 653 521 l 1,44,-1
 553 521 l 1,45,-1
 407 251 l 2,0,1
562 83 m 1,46,-1
 539 94 l 2,47,48
 530 99 530 99 520.5 107 c 128,-1,49
 511 115 511 115 502 128.5 c 128,-1,50
 493 142 493 142 485 161.5 c 128,-1,51
 477 181 477 181 472 207 c 1,52,-1
 403 141 l 1,53,54
 401 112 401 112 405.5 89.5 c 128,-1,55
 410 67 410 67 419.5 50 c 128,-1,56
 429 33 429 33 442.5 20.5 c 128,-1,57
 456 8 456 8 473 0 c 2,58,-1
 490 -8 l 1,59,-1
 562 83 l 1,46,-1
EndSplineSet
EndChar

StartChar: beta
Encoding: 946 946 458
Width: 664
GlyphClass: 1
Flags: W
LayerCount: 2
Fore
SplineSet
124 52 m 1,0,1
 140 36 140 36 161.5 25 c 128,-1,2
 183 14 183 14 207.5 6.5 c 128,-1,3
 232 -1 232 -1 257.5 -4.5 c 128,-1,4
 283 -8 283 -8 308 -8 c 0,5,6
 360 -8 360 -8 408 10 c 128,-1,7
 456 28 456 28 494 58 c 128,-1,8
 532 88 532 88 558.5 127.5 c 128,-1,9
 585 167 585 167 594 211 c 0,10,11
 604 248 604 248 600.5 282 c 128,-1,12
 597 316 597 316 580.5 343 c 128,-1,13
 564 370 564 370 535 388 c 128,-1,14
 506 406 506 406 464 412 c 1,15,-1
 471 416 l 2,16,17
 498 430 498 430 521 448.5 c 128,-1,18
 544 467 544 467 561.5 488.5 c 128,-1,19
 579 510 579 510 591 534.5 c 128,-1,20
 603 559 603 559 608 583 c 0,21,22
 616 620 616 620 608 653.5 c 128,-1,23
 600 687 600 687 577.5 712 c 128,-1,24
 555 737 555 737 519 751.5 c 128,-1,25
 483 766 483 766 434 765 c 0,26,27
 377 766 377 766 327.5 744.5 c 128,-1,28
 278 723 278 723 239.5 684.5 c 128,-1,29
 201 646 201 646 174 592.5 c 128,-1,30
 147 539 147 539 132 475 c 2,31,-1
 -22 -207 l 1,32,-1
 85 -212 l 1,33,34
 102 -123 102 -123 113 -58 c 128,-1,35
 124 7 124 7 129 48 c 1,36,-1
 149 127 l 2,37,38
 161 168 161 168 169.5 203 c 128,-1,39
 178 238 178 238 186.5 275.5 c 128,-1,40
 195 313 195 313 205.5 357.5 c 128,-1,41
 216 402 216 402 230 463 c 0,42,43
 241 508 241 508 258.5 546 c 128,-1,44
 276 584 276 584 300 611.5 c 128,-1,45
 324 639 324 639 354 654 c 128,-1,46
 384 669 384 669 418 668 c 0,47,48
 445 669 445 669 463.5 662 c 128,-1,49
 482 655 482 655 492.5 642.5 c 128,-1,50
 503 630 503 630 506 613 c 128,-1,51
 509 596 509 596 505 578 c 0,52,53
 499 554 499 554 483.5 531 c 128,-1,54
 468 508 468 508 443.5 488.5 c 128,-1,55
 419 469 419 469 387 455.5 c 128,-1,56
 355 442 355 442 319 435 c 1,57,-1
 307 357 l 1,58,59
 309 358 309 358 316.5 359 c 128,-1,60
 324 360 324 360 334 361 c 128,-1,61
 344 362 344 362 355 362.5 c 128,-1,62
 366 363 366 363 375 362 c 0,63,64
 411 363 411 363 438 354 c 128,-1,65
 465 345 465 345 482 328 c 128,-1,66
 499 311 499 311 505.5 288 c 128,-1,67
 512 265 512 265 507 238 c 0,68,69
 500 207 500 207 480.5 179.5 c 128,-1,70
 461 152 461 152 433.5 131.5 c 128,-1,71
 406 111 406 111 372.5 99 c 128,-1,72
 339 87 339 87 304 86 c 0,73,74
 287 87 287 87 265.5 90 c 128,-1,75
 244 93 244 93 222 101 c 128,-1,76
 200 109 200 109 179 121 c 128,-1,77
 158 133 158 133 141 151 c 1,78,-1
 124 52 l 1,0,1
EndSplineSet
EndChar

StartChar: gamma
Encoding: 947 947 459
Width: 581
GlyphClass: 1
Flags: W
LayerCount: 2
Fore
SplineSet
204 -212 m 1,0,1
 238 -101 238 -101 263.5 9.5 c 128,-1,2
 289 120 289 120 292.5 219.5 c 128,-1,3
 296 319 296 319 270.5 401.5 c 128,-1,4
 245 484 245 484 177 539 c 1,5,-1
 100 456 l 1,6,7
 137 429 137 429 156 386 c 128,-1,8
 175 343 175 343 181.5 290 c 128,-1,9
 188 237 188 237 183.5 176.5 c 128,-1,10
 179 116 179 116 167 52 c 128,-1,11
 155 -12 155 -12 138.5 -76.5 c 128,-1,12
 122 -141 122 -141 104 -201 c 1,13,-1
 204 -212 l 1,0,1
245 -6 m 1,14,15
 320 71 320 71 375 136.5 c 128,-1,16
 430 202 430 202 472.5 263.5 c 128,-1,17
 515 325 515 325 548.5 387 c 128,-1,18
 582 449 582 449 614 517 c 1,19,-1
 502 528 l 1,20,21
 482 474 482 474 454.5 419.5 c 128,-1,22
 427 365 427 365 394 314 c 128,-1,23
 361 263 361 263 324 217 c 128,-1,24
 287 171 287 171 250 134 c 1,25,-1
 245 -6 l 1,14,15
EndSplineSet
EndChar

StartChar: delta
Encoding: 948 948 460
Width: 609
GlyphClass: 1
Flags: W
LayerCount: 2
Fore
SplineSet
253 -8 m 0,0,1
 306 -8 306 -8 355.5 10.5 c 128,-1,2
 405 29 405 29 446 63 c 128,-1,3
 487 97 487 97 516.5 144 c 128,-1,4
 546 191 546 191 559 248 c 0,5,6
 572 307 572 307 563.5 350.5 c 128,-1,7
 555 394 555 394 535 426.5 c 128,-1,8
 515 459 515 459 488.5 482 c 128,-1,9
 462 505 462 505 438 522 c 0,10,11
 418 536 418 536 397.5 549.5 c 128,-1,12
 377 563 377 563 361 576 c 128,-1,13
 345 589 345 589 336.5 602.5 c 128,-1,14
 328 616 328 616 331 630 c 0,15,16
 335 647 335 647 354 658 c 128,-1,17
 373 669 373 669 404 669 c 0,18,19
 428 669 428 669 455 662.5 c 128,-1,20
 482 656 482 656 509.5 645 c 128,-1,21
 537 634 537 634 562 618.5 c 128,-1,22
 587 603 587 603 606 583 c 1,23,-1
 669 663 l 1,24,25
 651 680 651 680 624 698 c 128,-1,26
 597 716 597 716 564 730.5 c 128,-1,27
 531 745 531 745 492 754 c 128,-1,28
 453 763 453 763 411 762 c 0,29,30
 335 763 335 763 285.5 733 c 128,-1,31
 236 703 236 703 223 649 c 0,32,33
 216 615 216 615 226.5 588.5 c 128,-1,34
 237 562 237 562 257.5 540.5 c 128,-1,35
 278 519 278 519 305.5 501.5 c 128,-1,36
 333 484 333 484 358 467 c 0,37,38
 383 449 383 449 406 429 c 128,-1,39
 429 409 429 409 445.5 384 c 128,-1,40
 462 359 462 359 468.5 328.5 c 128,-1,41
 475 298 475 298 466 259 c 0,42,43
 458 221 458 221 438.5 190.5 c 128,-1,44
 419 160 419 160 392 138 c 128,-1,45
 365 116 365 116 333 104 c 128,-1,46
 301 92 301 92 268 92 c 256,47,48
 235 92 235 92 208 103.5 c 128,-1,49
 181 115 181 115 164.5 135.5 c 128,-1,50
 148 156 148 156 141.5 184.5 c 128,-1,51
 135 213 135 213 143 248 c 0,52,53
 152 284 152 284 172.5 316 c 128,-1,54
 193 348 193 348 221 372 c 128,-1,55
 249 396 249 396 283 409.5 c 128,-1,56
 317 423 317 423 353 423 c 0,57,58
 381 423 381 423 409 414.5 c 128,-1,59
 437 406 437 406 454 387 c 1,60,-1
 421 477 l 1,61,62
 407 487 407 487 382 492.5 c 128,-1,63
 357 498 357 498 330 500 c 0,64,65
 281 501 281 501 235.5 482 c 128,-1,66
 190 463 190 463 153.5 430.5 c 128,-1,67
 117 398 117 398 90 354 c 128,-1,68
 63 310 63 310 52 259 c 0,69,70
 40 205 40 205 48 156.5 c 128,-1,71
 56 108 56 108 82.5 71.5 c 128,-1,72
 109 35 109 35 152 13.5 c 128,-1,73
 195 -8 195 -8 253 -8 c 0,0,1
EndSplineSet
EndChar

StartChar: epsilon
Encoding: 949 949 461
Width: 484
GlyphClass: 1
Flags: W
LayerCount: 2
Fore
SplineSet
389 113 m 1,0,1
 346 102 346 102 310 95.5 c 128,-1,2
 274 89 274 89 238 89 c 0,3,4
 178 89 178 89 150 107 c 128,-1,5
 122 125 122 125 128 157 c 0,6,7
 132 175 132 175 146 187.5 c 128,-1,8
 160 200 160 200 179.5 208 c 128,-1,9
 199 216 199 216 223.5 219 c 128,-1,10
 248 222 248 222 274 222 c 2,11,-1
 320 222 l 1,12,-1
 340 311 l 1,13,-1
 289 311 l 2,14,15
 267 311 267 311 247.5 315 c 128,-1,16
 228 319 228 319 215 326 c 128,-1,17
 202 333 202 333 196 343.5 c 128,-1,18
 190 354 190 354 194 366 c 0,19,20
 197 379 197 379 206.5 390.5 c 128,-1,21
 216 402 216 402 231.5 410.5 c 128,-1,22
 247 419 247 419 270.5 424.5 c 128,-1,23
 294 430 294 430 325 430 c 0,24,25
 342 430 342 430 359.5 428.5 c 128,-1,26
 377 427 377 427 393 424 c 128,-1,27
 409 421 409 421 423 417.5 c 128,-1,28
 437 414 437 414 446 409 c 1,29,-1
 495 504 l 1,30,31
 462 522 462 522 421.5 526 c 128,-1,32
 381 530 381 530 345 529 c 0,33,34
 293 530 293 530 251 519.5 c 128,-1,35
 209 509 209 509 178.5 490.5 c 128,-1,36
 148 472 148 472 128.5 447.5 c 128,-1,37
 109 423 109 423 102 394 c 0,38,39
 98 373 98 373 100.5 353.5 c 128,-1,40
 103 334 103 334 110 318 c 128,-1,41
 117 302 117 302 127.5 291 c 128,-1,42
 138 280 138 280 150 275 c 1,43,-1
 146 274 l 2,44,45
 128 268 128 268 109 256 c 128,-1,46
 90 244 90 244 73.5 227.5 c 128,-1,47
 57 211 57 211 44.5 191 c 128,-1,48
 32 171 32 171 27 147 c 0,49,50
 18 111 18 111 29.5 82 c 128,-1,51
 41 53 41 53 67.5 32.5 c 128,-1,52
 94 12 94 12 134.5 1.5 c 128,-1,53
 175 -9 175 -9 223 -9 c 0,54,55
 245 -9 245 -9 268.5 -7.5 c 128,-1,56
 292 -6 292 -6 315 -3 c 128,-1,57
 338 0 338 0 358 4 c 128,-1,58
 378 8 378 8 392 12 c 1,59,-1
 389 113 l 1,0,1
EndSplineSet
EndChar

StartChar: zeta
Encoding: 950 950 462
Width: 504
GlyphClass: 1
Flags: W
LayerCount: 2
Fore
SplineSet
235 -187 m 0,0,1
 271 -187 271 -187 305.5 -175 c 128,-1,2
 340 -163 340 -163 368.5 -142.5 c 128,-1,3
 397 -122 397 -122 417 -93.5 c 128,-1,4
 437 -65 437 -65 445 -32 c 0,5,6
 451 -5 451 -5 447 18.5 c 128,-1,7
 443 42 443 42 430 59.5 c 128,-1,8
 417 77 417 77 394.5 86 c 128,-1,9
 372 95 372 95 344 95 c 0,10,11
 337 95 337 95 325 94.5 c 128,-1,12
 313 94 313 94 299 93 c 128,-1,13
 285 92 285 92 270 91.5 c 128,-1,14
 255 91 255 91 241 91 c 0,15,16
 224 91 224 91 203 93.5 c 128,-1,17
 182 96 182 96 166.5 106 c 128,-1,18
 151 116 151 116 144 137 c 128,-1,19
 137 158 137 158 146 195 c 0,20,21
 154 232 154 232 176.5 274 c 128,-1,22
 199 316 199 316 231 358 c 128,-1,23
 263 400 263 400 302.5 442 c 128,-1,24
 342 484 342 484 384.5 522 c 128,-1,25
 427 560 427 560 470.5 592 c 128,-1,26
 514 624 514 624 554 648 c 1,27,-1
 566 720 l 1,28,-1
 396 720 l 2,29,30
 384 720 384 720 373 720.5 c 128,-1,31
 362 721 362 721 354 724.5 c 128,-1,32
 346 728 346 728 342.5 733.5 c 128,-1,33
 339 739 339 739 341 748 c 0,34,35
 343 758 343 758 349 770 c 128,-1,36
 355 782 355 782 364 791 c 1,37,-1
 283 831 l 1,38,39
 265 809 265 809 255.5 791.5 c 128,-1,40
 246 774 246 774 241 756 c 0,41,42
 235 730 235 730 241 708 c 128,-1,43
 247 686 247 686 263.5 670 c 128,-1,44
 280 654 280 654 306 645.5 c 128,-1,45
 332 637 332 637 368 637 c 2,46,-1
 451 637 l 1,47,-1
 432 679 l 1,48,49
 375 641 375 641 313 587.5 c 128,-1,50
 251 534 251 534 196.5 470 c 128,-1,51
 142 406 142 406 100.5 336 c 128,-1,52
 59 266 59 266 43 194 c 0,53,54
 29 132 29 132 39 93 c 128,-1,55
 49 54 49 54 74 31.5 c 128,-1,56
 99 9 99 9 134.5 0.5 c 128,-1,57
 170 -8 170 -8 206 -8 c 0,58,59
 222 -8 222 -8 238 -7 c 128,-1,60
 254 -6 254 -6 268 -5 c 128,-1,61
 282 -4 282 -4 294 -3 c 128,-1,62
 306 -2 306 -2 314 -2 c 0,63,64
 336 -2 336 -2 342.5 -12.5 c 128,-1,65
 349 -23 349 -23 348 -31 c 0,66,67
 345 -43 345 -43 335 -53.5 c 128,-1,68
 325 -64 325 -64 309 -71.5 c 128,-1,69
 293 -79 293 -79 272.5 -83.5 c 128,-1,70
 252 -88 252 -88 228 -88 c 0,71,72
 211 -88 211 -88 191.5 -86 c 128,-1,73
 172 -84 172 -84 159 -80 c 1,74,-1
 142 -176 l 1,75,76
 167 -181 167 -181 191 -184.5 c 128,-1,77
 215 -188 215 -188 235 -187 c 0,0,1
EndSplineSet
EndChar

StartChar: eta
Encoding: 951 951 463
Width: 575
GlyphClass: 1
Flags: W
LayerCount: 2
Fore
SplineSet
103 -3 m 1,0,1
 136 92 136 92 161 173 c 128,-1,2
 186 254 186 254 203 332 c 0,3,4
 212 370 212 370 213.5 400.5 c 128,-1,5
 215 431 215 431 207.5 455 c 128,-1,6
 200 479 200 479 183.5 497 c 128,-1,7
 167 515 167 515 141 529 c 1,8,-1
 70 440 l 1,9,10
 85 433 85 433 92.5 422 c 128,-1,11
 100 411 100 411 102.5 393.5 c 128,-1,12
 105 376 105 376 102 350.5 c 128,-1,13
 99 325 99 325 90 287 c 0,14,15
 74 224 74 224 51 150.5 c 128,-1,16
 28 77 28 77 3 3 c 1,17,-1
 103 -3 l 1,0,1
363 -209 m 1,18,19
 384 -164 384 -164 406.5 -104.5 c 128,-1,20
 429 -45 429 -45 450 18.5 c 128,-1,21
 471 82 471 82 489 143.5 c 128,-1,22
 507 205 507 205 519 254 c 0,23,24
 552 398 552 398 528 463.5 c 128,-1,25
 504 529 504 529 420 529 c 0,26,27
 388 529 388 529 353.5 517.5 c 128,-1,28
 319 506 319 506 287.5 485.5 c 128,-1,29
 256 465 256 465 229.5 436.5 c 128,-1,30
 203 408 203 408 187 373 c 1,31,-1
 171 209 l 1,32,33
 183 252 183 252 204 290.5 c 128,-1,34
 225 329 225 329 251.5 358.5 c 128,-1,35
 278 388 278 388 308 405.5 c 128,-1,36
 338 423 338 423 367 423 c 0,37,38
 413 423 413 423 424 379.5 c 128,-1,39
 435 336 435 336 412 234 c 0,40,41
 404 195 404 195 390 148.5 c 128,-1,42
 376 102 376 102 357.5 47.5 c 128,-1,43
 339 -7 339 -7 315 -69.5 c 128,-1,44
 291 -132 291 -132 261 -201 c 1,45,-1
 363 -209 l 1,18,19
EndSplineSet
EndChar

StartChar: theta
Encoding: 952 952 464
Width: 654
GlyphClass: 1
Flags: W
LayerCount: 2
Fore
SplineSet
273 -8 m 256,0,1
 332 -8 332 -8 385.5 19.5 c 128,-1,2
 439 47 439 47 484 97.5 c 128,-1,3
 529 148 529 148 562.5 217 c 128,-1,4
 596 286 596 286 614 370 c 0,5,6
 635 459 635 459 632.5 532.5 c 128,-1,7
 630 606 630 606 607 657.5 c 128,-1,8
 584 709 584 709 541 737.5 c 128,-1,9
 498 766 498 766 439 765 c 0,10,11
 383 766 383 766 329.5 739.5 c 128,-1,12
 276 713 276 713 230.5 664 c 128,-1,13
 185 615 185 615 149.5 545.5 c 128,-1,14
 114 476 114 476 94 390 c 0,15,16
 73 299 73 299 76.5 225.5 c 128,-1,17
 80 152 80 152 104 99.5 c 128,-1,18
 128 47 128 47 171 19.5 c 128,-1,19
 214 -8 214 -8 273 -8 c 256,0,1
273 89 m 0,20,21
 238 89 238 89 214.5 112 c 128,-1,22
 191 135 191 135 180 172.5 c 128,-1,23
 169 210 169 210 170.5 260 c 128,-1,24
 172 310 172 310 186 365 c 0,25,26
 203 432 203 432 231 487 c 128,-1,27
 259 542 259 542 293 581.5 c 128,-1,28
 327 621 327 621 363.5 642.5 c 128,-1,29
 400 664 400 664 435 664 c 0,30,31
 471 664 471 664 494 643.5 c 128,-1,32
 517 623 517 623 528.5 587 c 128,-1,33
 540 551 540 551 538.5 501.5 c 128,-1,34
 537 452 537 452 522 393 c 0,35,36
 507 330 507 330 480 274.5 c 128,-1,37
 453 219 453 219 419.5 178 c 128,-1,38
 386 137 386 137 348 113 c 128,-1,39
 310 89 310 89 273 89 c 0,20,21
548 341 m 1,40,-1
 566 418 l 1,41,-1
 162 418 l 1,42,-1
 144 341 l 1,43,-1
 548 341 l 1,40,-1
EndSplineSet
EndChar

StartChar: iota
Encoding: 953 953 465
Width: 311
GlyphClass: 1
Flags: W
LayerCount: 2
Fore
SplineSet
132 -8 m 0,0,1
 149 -8 149 -8 171 -5.5 c 128,-1,2
 193 -3 193 -3 212 5 c 1,3,-1
 211 109 l 1,4,5
 201 105 201 105 189 100 c 128,-1,6
 177 95 177 95 166 94 c 0,7,8
 158 95 158 95 153.5 97.5 c 128,-1,9
 149 100 149 100 147.5 108 c 128,-1,10
 146 116 146 116 148 130.5 c 128,-1,11
 150 145 150 145 155 169 c 0,12,13
 161 194 161 194 172 236.5 c 128,-1,14
 183 279 183 279 195.5 328 c 128,-1,15
 208 377 208 377 222 427 c 128,-1,16
 236 477 236 477 246 518 c 1,17,-1
 138 528 l 1,18,19
 124 474 124 474 112 424 c 128,-1,20
 100 374 100 374 89 327 c 128,-1,21
 78 280 78 280 67.5 235 c 128,-1,22
 57 190 57 190 48 145 c 0,23,24
 39 106 39 106 40.5 77 c 128,-1,25
 42 48 42 48 53.5 29.5 c 128,-1,26
 65 11 65 11 85 1.5 c 128,-1,27
 105 -8 105 -8 132 -8 c 0,0,1
EndSplineSet
EndChar

StartChar: kappa
Encoding: 954 954 466
Width: 588
GlyphClass: 1
Flags: W
LayerCount: 2
Fore
SplineSet
114 -3 m 1,0,1
 158 82 158 82 216.5 157 c 128,-1,2
 275 232 275 232 337.5 289 c 128,-1,3
 400 346 400 346 461.5 381.5 c 128,-1,4
 523 417 523 417 573 422 c 1,5,-1
 594 528 l 1,6,7
 550 523 550 523 495 502 c 128,-1,8
 440 481 440 481 379.5 439.5 c 128,-1,9
 319 398 319 398 257 332 c 128,-1,10
 195 266 195 266 139 171 c 1,11,-1
 156 167 l 1,12,13
 174 223 174 223 186.5 265 c 128,-1,14
 199 307 199 307 206 341 c 0,15,16
 216 380 216 380 216 411 c 128,-1,17
 216 442 216 442 208.5 465 c 128,-1,18
 201 488 201 488 187.5 503.5 c 128,-1,19
 174 519 174 519 155 528 c 1,20,-1
 88 442 l 1,21,22
 105 435 105 435 113 420.5 c 128,-1,23
 121 406 121 406 123 386.5 c 128,-1,24
 125 367 125 367 121 342 c 128,-1,25
 117 317 117 317 110 286 c 0,26,27
 95 221 95 221 68.5 149 c 128,-1,28
 42 77 42 77 14 3 c 1,29,-1
 114 -3 l 1,0,1
497 74 m 1,30,31
 462 91 462 91 434.5 118 c 128,-1,32
 407 145 407 145 389 179.5 c 128,-1,33
 371 214 371 214 361.5 251.5 c 128,-1,34
 352 289 352 289 354 326 c 1,35,-1
 275 271 l 1,36,37
 271 231 271 231 281.5 188 c 128,-1,38
 292 145 292 145 313 106.5 c 128,-1,39
 334 68 334 68 364.5 37.5 c 128,-1,40
 395 7 395 7 430 -9 c 1,41,-1
 497 74 l 1,30,31
EndSplineSet
EndChar

